M48
;GenerationSoftware,Autodesk,EAGLE,9.7.0*%
;CreationDate,2024-11-01T03:22:13Z*%
FMAT,2
ICI,OFF
METRIC,TZ,000.000
T6C0.350
T5C0.800
T4C1.000
T3C1.016
T2C1.300
T1C2.057
%
G90
M71
T1
X61417Y10160
X2083Y2540
X61417Y25400
X2083Y25400
T2
X43490Y5040
X50490Y5040
X53650Y5040
X60650Y5040
T3
X50800Y16510
X27219Y7036
X50800Y19050
X10160Y22276
X12700Y22276
X20320Y4496
X20320Y9576
X20320Y12116
X20320Y14656
X20320Y17196
X20320Y19736
X20320Y22276
X17780Y22276
X15240Y22276
X7620Y22276
X5080Y22276
X5080Y19736
X5080Y17196
X5080Y14656
X5080Y12116
X5080Y9576
X5080Y7036
X20320Y7036
X20320Y1956
X5080Y1956
X5080Y4496
X27219Y22276
X27219Y19736
X50800Y21590
X27219Y14656
X27219Y12116
X27219Y9576
X27219Y17196
X27219Y4496
X39919Y4496
X39919Y7036
X39919Y9576
X39919Y12116
X39919Y14656
X39919Y17196
X39919Y19736
X39919Y22276
X29759Y22276
X45720Y10160
X45720Y12700
X45720Y15240
X45720Y17780
T4
X54900Y2540
X59400Y2540
X49240Y2540
X44740Y2540
T5
X23866Y10160
X53340Y11176
X23866Y17780
X23866Y15240
X50800Y11176
X23866Y2540
T6
X25717Y25241
X25717Y5874
X16510Y18256
X15557Y19209
X22066Y7620
X22701Y8890
X9684Y13970
M30