G04 EAGLE Gerber RS-274X export*
G75*
%MOMM*%
%FSLAX34Y34*%
%LPD*%
%INBottom Copper*%
%IPPOS*%
%AMOC8*
5,1,8,0,0,1.08239X$1,22.5*%
G01*
G04 Define Apertures*
%ADD10C,1.879600*%
%ADD11R,1.879600X1.879600*%
%ADD12C,1.676400*%
%ADD13C,1.800000*%
%ADD14C,2.000000*%
%ADD15R,2.053000X0.604500*%
%ADD16C,0.254000*%
%ADD17C,0.756400*%
D10*
X101600Y222758D03*
X127000Y222758D03*
X203200Y44958D03*
X203200Y95758D03*
X203200Y121158D03*
X203200Y146558D03*
X203200Y171958D03*
X203200Y197358D03*
X203200Y222758D03*
X177800Y222758D03*
X152400Y222758D03*
X76200Y222758D03*
X50800Y222758D03*
X50800Y197358D03*
X50800Y171958D03*
X50800Y146558D03*
X50800Y121158D03*
X50800Y95758D03*
X50800Y70358D03*
X203200Y70358D03*
X203200Y19558D03*
X50800Y19558D03*
X50800Y44958D03*
D11*
X272192Y222758D03*
D10*
X272192Y197358D03*
X272192Y171958D03*
X272192Y146558D03*
X272192Y121158D03*
X272192Y95758D03*
X272192Y70358D03*
X272192Y44958D03*
X399192Y44958D03*
X399192Y70358D03*
X399192Y95758D03*
X399192Y121158D03*
X399192Y146558D03*
X399192Y171958D03*
X399192Y197358D03*
X399192Y222758D03*
X297592Y222758D03*
D12*
X238664Y177800D03*
X238664Y152400D03*
X508000Y111760D03*
X533400Y111760D03*
D10*
X457200Y177800D03*
X457200Y152400D03*
X457200Y127000D03*
X457200Y101600D03*
D12*
X238664Y101600D03*
X238664Y25400D03*
D13*
X447400Y25400D03*
X492400Y25400D03*
D14*
X434900Y50400D03*
X504900Y50400D03*
D13*
X549000Y25400D03*
X594000Y25400D03*
D14*
X536500Y50400D03*
X606500Y50400D03*
D15*
X173537Y171450D03*
X173537Y158750D03*
X173537Y146050D03*
X173537Y133350D03*
X173537Y120650D03*
X173537Y107950D03*
X173537Y95250D03*
X173537Y82550D03*
X173537Y69850D03*
X173537Y57150D03*
X80463Y57150D03*
X80463Y69850D03*
X80463Y82550D03*
X80463Y95250D03*
X80463Y107950D03*
X80463Y120650D03*
X80463Y133350D03*
X80463Y146050D03*
X80463Y158750D03*
X80463Y171450D03*
D10*
X508000Y215900D03*
X508000Y190500D03*
X508000Y165100D03*
D16*
X80463Y158750D02*
X65088Y158750D01*
X65088Y141288D01*
X50800Y127000D01*
X50800Y121158D01*
X80463Y146050D02*
X96838Y146050D01*
X96838Y139700D01*
D17*
X96838Y139700D03*
D16*
X165100Y179388D02*
X173038Y171450D01*
X165100Y179388D02*
X165100Y182563D01*
X173038Y171450D02*
X173537Y171450D01*
D17*
X165100Y182563D03*
D16*
X80963Y120650D02*
X80963Y107950D01*
X80963Y69850D02*
X80963Y57150D01*
X80463Y57150D01*
X80963Y82550D02*
X80963Y95250D01*
X80963Y82550D02*
X80963Y69850D01*
X80463Y69850D01*
X80463Y82550D02*
X80963Y82550D01*
X80963Y95250D02*
X80963Y107950D01*
X80463Y107950D01*
X80463Y95250D02*
X80963Y95250D01*
X173038Y69850D02*
X173038Y57150D01*
X173537Y57150D01*
X173038Y88900D02*
X173038Y95250D01*
X173038Y88900D02*
X173038Y82550D01*
X173038Y95250D02*
X173537Y95250D01*
X173537Y158750D02*
X188913Y158750D01*
X188913Y176213D01*
X163513Y201613D01*
X146050Y201613D01*
X146050Y120650D02*
X146050Y115888D01*
X146050Y120650D02*
X146050Y201613D01*
X146050Y115888D02*
X173038Y88900D01*
X173038Y82550D02*
X173038Y69850D01*
X173537Y69850D01*
X173537Y82550D02*
X173038Y82550D01*
X174625Y46038D02*
X203200Y46038D01*
X174625Y46038D02*
X174625Y57150D01*
X173537Y57150D01*
X146050Y120650D02*
X80963Y120650D01*
X80463Y120650D01*
X236538Y100013D02*
X238125Y101600D01*
X236538Y100013D02*
X236538Y79375D01*
X203200Y46038D01*
X238125Y101600D02*
X238664Y101600D01*
X203200Y46038D02*
X203200Y44958D01*
X508000Y190500D02*
X533400Y165100D01*
X533400Y111760D01*
X550863Y26988D02*
X549275Y25400D01*
X550863Y26988D02*
X550863Y93663D01*
X533400Y111125D01*
X549000Y25400D02*
X549275Y25400D01*
X533400Y111125D02*
X533400Y111760D01*
X508000Y196850D02*
X400050Y196850D01*
X508000Y196850D02*
X508000Y190500D01*
X400050Y196850D02*
X399192Y197358D01*
X400050Y122238D02*
X457200Y122238D01*
X457200Y127000D01*
X400050Y122238D02*
X399192Y121158D01*
X400050Y96838D02*
X457200Y96838D01*
X457200Y101600D01*
X400050Y96838D02*
X399192Y95758D01*
X247650Y33338D02*
X239713Y25400D01*
X247650Y33338D02*
X247650Y61913D01*
X254794Y69056D02*
X255588Y69850D01*
X254794Y69056D02*
X247650Y61913D01*
X255588Y69850D02*
X271463Y69850D01*
X239713Y25400D02*
X238664Y25400D01*
X271463Y69850D02*
X272192Y70358D01*
X101600Y223838D02*
X127000Y249238D01*
X241300Y249238D01*
X241300Y193675D01*
X254000Y180975D01*
X254000Y69850D01*
X101600Y222758D02*
X101600Y223838D01*
X254000Y69850D02*
X254794Y69056D01*
X271463Y238125D02*
X257175Y252413D01*
X271463Y238125D02*
X271463Y223838D01*
X272192Y222758D01*
D17*
X257175Y252413D03*
D16*
X557213Y61913D02*
X593725Y25400D01*
X557213Y61913D02*
X557213Y195263D01*
X515938Y236538D01*
X319088Y236538D01*
X319088Y71438D01*
X277813Y30163D01*
X257175Y30163D01*
X257175Y58738D01*
X227013Y88900D02*
X223838Y92075D01*
X223838Y230188D01*
X211138Y242888D01*
X152400Y242888D01*
X152400Y222758D01*
X593725Y25400D02*
X594000Y25400D01*
D17*
X257175Y58738D03*
X227013Y88900D03*
D16*
X188913Y133350D02*
X173537Y133350D01*
X188913Y133350D02*
X188913Y85725D01*
X203200Y71438D01*
X203200Y70358D01*
X76200Y223838D02*
X107950Y255588D01*
X247650Y255588D01*
X247650Y196850D01*
X271463Y173038D01*
X76200Y222758D02*
X76200Y223838D01*
X271463Y173038D02*
X272192Y171958D01*
X273050Y198438D02*
X312738Y198438D01*
X312738Y227013D01*
X276225Y263525D01*
X50800Y263525D01*
X50800Y222758D01*
X272192Y197358D02*
X273050Y198438D01*
X400050Y147638D02*
X442913Y147638D01*
X442913Y163513D01*
X457200Y177800D01*
X400050Y147638D02*
X399192Y146558D01*
X80463Y133350D02*
X65088Y133350D01*
X65088Y111125D01*
X50800Y96838D01*
X50800Y95758D01*
X155575Y120650D02*
X173537Y120650D01*
X155575Y120650D02*
X155575Y192088D01*
D17*
X155575Y192088D03*
D16*
X203200Y19050D02*
X227013Y19050D01*
X233363Y12700D01*
X419100Y12700D01*
X419100Y55563D01*
X450850Y87313D01*
X508000Y87313D01*
X508000Y111760D01*
X203200Y19558D02*
X203200Y19050D01*
X220663Y76200D02*
X217488Y79375D01*
X217488Y228600D01*
X209550Y236538D01*
X177800Y236538D01*
X177800Y222758D01*
D17*
X220663Y76200D03*
M02*
