G04 EAGLE Gerber RS-274X export*
G75*
%MOMM*%
%FSLAX34Y34*%
%LPD*%
%INTop Copper*%
%IPPOS*%
%AMOC8*
5,1,8,0,0,1.08239X$1,22.5*%
G01*
G04 Define Apertures*
%ADD10C,1.879600*%
%ADD11R,1.879600X1.879600*%
%ADD12C,1.676400*%
%ADD13C,1.800000*%
%ADD14C,2.000000*%
%ADD15C,0.254000*%
%ADD16C,0.756400*%
D10*
X101600Y222758D03*
X127000Y222758D03*
X203200Y44958D03*
X203200Y95758D03*
X203200Y121158D03*
X203200Y146558D03*
X203200Y171958D03*
X203200Y197358D03*
X203200Y222758D03*
X177800Y222758D03*
X152400Y222758D03*
X76200Y222758D03*
X50800Y222758D03*
X50800Y197358D03*
X50800Y171958D03*
X50800Y146558D03*
X50800Y121158D03*
X50800Y95758D03*
X50800Y70358D03*
X203200Y70358D03*
X203200Y19558D03*
X50800Y19558D03*
X50800Y44958D03*
D11*
X272192Y222758D03*
D10*
X272192Y197358D03*
X272192Y171958D03*
X272192Y146558D03*
X272192Y121158D03*
X272192Y95758D03*
X272192Y70358D03*
X272192Y44958D03*
X399192Y44958D03*
X399192Y70358D03*
X399192Y95758D03*
X399192Y121158D03*
X399192Y146558D03*
X399192Y171958D03*
X399192Y197358D03*
X399192Y222758D03*
X297592Y222758D03*
D12*
X238664Y177800D03*
X238664Y152400D03*
X508000Y111760D03*
X533400Y111760D03*
D10*
X457200Y177800D03*
X457200Y152400D03*
X457200Y127000D03*
X457200Y101600D03*
D12*
X238664Y101600D03*
X238664Y25400D03*
D13*
X447400Y25400D03*
X492400Y25400D03*
D14*
X434900Y50400D03*
X504900Y50400D03*
D13*
X549000Y25400D03*
X594000Y25400D03*
D14*
X536500Y50400D03*
X606500Y50400D03*
D10*
X508000Y215900D03*
X508000Y190500D03*
X508000Y165100D03*
D15*
X96838Y139700D02*
X96838Y117475D01*
X50800Y71438D01*
X50800Y70358D01*
D16*
X96838Y139700D03*
D15*
X85725Y182563D02*
X165100Y182563D01*
X85725Y182563D02*
X50800Y147638D01*
X50800Y146558D01*
D16*
X165100Y182563D03*
D15*
X239713Y152400D02*
X239713Y101600D01*
X238664Y101600D01*
X238664Y152400D02*
X239713Y152400D01*
X419100Y25400D02*
X447400Y25400D01*
X419100Y25400D02*
X400050Y44450D01*
X399192Y44958D01*
X447675Y25400D02*
X533400Y111125D01*
X447675Y25400D02*
X447400Y25400D01*
X533400Y111125D02*
X533400Y111760D01*
X225425Y22225D02*
X203200Y44450D01*
X225425Y22225D02*
X225425Y20638D01*
X233363Y12700D01*
X366713Y12700D01*
X398463Y44450D01*
X203200Y44450D02*
X203200Y44958D01*
X398463Y44450D02*
X399192Y44958D01*
X273050Y46038D02*
X273050Y50800D01*
X312738Y90488D01*
X312738Y227013D01*
X296863Y242888D01*
X146050Y242888D01*
X127000Y223838D01*
X273050Y46038D02*
X272192Y44958D01*
X127000Y222758D02*
X127000Y223838D01*
X50800Y203200D02*
X50800Y197358D01*
X50800Y203200D02*
X36513Y217488D01*
X36513Y228600D01*
X60325Y252413D01*
X257175Y252413D01*
D16*
X257175Y252413D03*
D15*
X203200Y177800D02*
X203200Y171958D01*
X203200Y177800D02*
X257175Y231775D01*
X257175Y233363D01*
X260350Y236538D01*
X284163Y236538D01*
X296863Y223838D01*
X297592Y222758D01*
X227013Y88900D02*
X257175Y58738D01*
D16*
X257175Y58738D03*
X227013Y88900D03*
D15*
X238125Y169863D02*
X238125Y177800D01*
X238125Y169863D02*
X217488Y149225D01*
X217488Y85725D01*
X203200Y71438D01*
X238125Y177800D02*
X238664Y177800D01*
X203200Y71438D02*
X203200Y70358D01*
X325438Y69850D02*
X398463Y69850D01*
X325438Y69850D02*
X279400Y23813D01*
X258763Y23813D01*
X207963Y74613D01*
X398463Y69850D02*
X399192Y70358D01*
X207963Y74613D02*
X203200Y70358D01*
X400050Y171450D02*
X438150Y171450D01*
X457200Y152400D01*
X400050Y171450D02*
X399192Y171958D01*
X155575Y192088D02*
X69850Y192088D01*
X50800Y173038D01*
X50800Y171958D01*
D16*
X155575Y192088D03*
D15*
X508000Y165100D02*
X508000Y111760D01*
X508000Y215900D02*
X406400Y215900D01*
X400050Y222250D01*
X399192Y222758D01*
X492400Y25400D02*
X501650Y25400D01*
X520700Y44450D01*
X520700Y80963D01*
X546100Y106363D01*
X546100Y206375D01*
X515938Y236538D01*
X392113Y236538D01*
X319088Y163513D01*
X319088Y71438D01*
X277813Y30163D01*
X266700Y30163D01*
X220663Y76200D01*
D16*
X220663Y76200D03*
M02*
