G04 EAGLE Gerber RS-274X export*
G75*
%MOMM*%
%FSLAX34Y34*%
%LPD*%
%INSilkscreen Top*%
%IPPOS*%
%AMOC8*
5,1,8,0,0,1.08239X$1,22.5*%
G01*
G04 Define Apertures*
%ADD10C,0.203200*%
%ADD11C,0.152400*%
%ADD12C,0.127000*%
%ADD13C,0.076200*%
D10*
X438235Y257556D02*
X432816Y257556D01*
X432816Y269748D01*
X438235Y269748D01*
X436880Y264329D02*
X432816Y264329D01*
X443699Y265684D02*
X443699Y257556D01*
X443699Y265684D02*
X447086Y265684D01*
X447175Y265682D01*
X447263Y265676D01*
X447351Y265667D01*
X447439Y265653D01*
X447526Y265636D01*
X447612Y265615D01*
X447697Y265590D01*
X447781Y265561D01*
X447864Y265529D01*
X447945Y265494D01*
X448024Y265454D01*
X448102Y265412D01*
X448178Y265366D01*
X448252Y265317D01*
X448323Y265264D01*
X448392Y265209D01*
X448459Y265150D01*
X448523Y265089D01*
X448584Y265025D01*
X448643Y264958D01*
X448698Y264889D01*
X448751Y264818D01*
X448800Y264744D01*
X448846Y264668D01*
X448888Y264590D01*
X448928Y264511D01*
X448963Y264430D01*
X448995Y264347D01*
X449024Y264263D01*
X449049Y264178D01*
X449070Y264092D01*
X449087Y264005D01*
X449101Y263917D01*
X449110Y263829D01*
X449116Y263741D01*
X449118Y263652D01*
X449118Y257556D01*
X457161Y257556D02*
X460548Y257556D01*
X457161Y257556D02*
X457072Y257558D01*
X456984Y257564D01*
X456896Y257573D01*
X456808Y257587D01*
X456721Y257604D01*
X456635Y257625D01*
X456550Y257650D01*
X456466Y257679D01*
X456383Y257711D01*
X456302Y257746D01*
X456223Y257786D01*
X456145Y257828D01*
X456069Y257874D01*
X455995Y257923D01*
X455924Y257976D01*
X455855Y258031D01*
X455788Y258090D01*
X455724Y258151D01*
X455663Y258215D01*
X455604Y258282D01*
X455549Y258351D01*
X455496Y258422D01*
X455447Y258496D01*
X455401Y258572D01*
X455359Y258650D01*
X455319Y258729D01*
X455284Y258810D01*
X455252Y258893D01*
X455223Y258977D01*
X455198Y259062D01*
X455177Y259148D01*
X455160Y259235D01*
X455146Y259323D01*
X455137Y259411D01*
X455131Y259499D01*
X455129Y259588D01*
X455129Y263652D01*
X455131Y263741D01*
X455137Y263829D01*
X455146Y263917D01*
X455160Y264005D01*
X455177Y264092D01*
X455198Y264178D01*
X455223Y264263D01*
X455252Y264347D01*
X455284Y264430D01*
X455319Y264511D01*
X455359Y264590D01*
X455401Y264668D01*
X455447Y264744D01*
X455496Y264818D01*
X455549Y264889D01*
X455604Y264958D01*
X455663Y265025D01*
X455724Y265089D01*
X455788Y265150D01*
X455855Y265209D01*
X455924Y265264D01*
X455995Y265317D01*
X456069Y265366D01*
X456145Y265412D01*
X456223Y265454D01*
X456302Y265494D01*
X456383Y265529D01*
X456466Y265561D01*
X456550Y265590D01*
X456635Y265615D01*
X456721Y265636D01*
X456808Y265653D01*
X456896Y265667D01*
X456984Y265676D01*
X457072Y265682D01*
X457161Y265684D01*
X460548Y265684D01*
X460548Y255524D01*
X460546Y255435D01*
X460540Y255347D01*
X460531Y255259D01*
X460517Y255171D01*
X460500Y255084D01*
X460479Y254998D01*
X460454Y254913D01*
X460425Y254829D01*
X460393Y254746D01*
X460358Y254665D01*
X460318Y254586D01*
X460276Y254508D01*
X460230Y254432D01*
X460181Y254358D01*
X460128Y254287D01*
X460073Y254218D01*
X460014Y254151D01*
X459953Y254087D01*
X459889Y254026D01*
X459822Y253967D01*
X459753Y253912D01*
X459682Y253859D01*
X459608Y253810D01*
X459532Y253764D01*
X459454Y253722D01*
X459375Y253682D01*
X459294Y253647D01*
X459211Y253615D01*
X459127Y253586D01*
X459042Y253561D01*
X458956Y253540D01*
X458869Y253523D01*
X458781Y253509D01*
X458693Y253500D01*
X458605Y253494D01*
X458516Y253492D01*
X455806Y253492D01*
X476130Y257556D02*
X473421Y269748D01*
X478839Y265684D02*
X476130Y257556D01*
X481549Y257556D02*
X478839Y265684D01*
X484258Y269748D02*
X481549Y257556D01*
X489785Y260265D02*
X489785Y262975D01*
X489787Y263078D01*
X489793Y263180D01*
X489802Y263282D01*
X489816Y263384D01*
X489833Y263485D01*
X489855Y263585D01*
X489880Y263684D01*
X489908Y263783D01*
X489941Y263880D01*
X489977Y263976D01*
X490016Y264071D01*
X490060Y264164D01*
X490106Y264255D01*
X490157Y264344D01*
X490210Y264432D01*
X490267Y264517D01*
X490327Y264600D01*
X490390Y264681D01*
X490456Y264760D01*
X490525Y264835D01*
X490597Y264909D01*
X490671Y264979D01*
X490748Y265047D01*
X490828Y265111D01*
X490910Y265173D01*
X490994Y265231D01*
X491081Y265286D01*
X491169Y265338D01*
X491260Y265386D01*
X491352Y265431D01*
X491445Y265473D01*
X491541Y265511D01*
X491637Y265545D01*
X491735Y265576D01*
X491834Y265602D01*
X491934Y265626D01*
X492035Y265645D01*
X492136Y265660D01*
X492238Y265672D01*
X492340Y265680D01*
X492443Y265684D01*
X492545Y265684D01*
X492648Y265680D01*
X492750Y265672D01*
X492852Y265660D01*
X492953Y265645D01*
X493054Y265626D01*
X493154Y265602D01*
X493253Y265576D01*
X493351Y265545D01*
X493447Y265511D01*
X493543Y265473D01*
X493636Y265431D01*
X493728Y265386D01*
X493819Y265338D01*
X493907Y265286D01*
X493994Y265231D01*
X494078Y265173D01*
X494160Y265111D01*
X494240Y265047D01*
X494317Y264979D01*
X494391Y264909D01*
X494463Y264835D01*
X494532Y264760D01*
X494598Y264681D01*
X494661Y264600D01*
X494721Y264517D01*
X494778Y264432D01*
X494831Y264344D01*
X494882Y264255D01*
X494928Y264164D01*
X494972Y264071D01*
X495011Y263976D01*
X495047Y263880D01*
X495080Y263783D01*
X495108Y263684D01*
X495133Y263585D01*
X495155Y263485D01*
X495172Y263384D01*
X495186Y263282D01*
X495195Y263180D01*
X495201Y263078D01*
X495203Y262975D01*
X495204Y262975D02*
X495204Y260265D01*
X495203Y260265D02*
X495201Y260162D01*
X495195Y260060D01*
X495186Y259958D01*
X495172Y259856D01*
X495155Y259755D01*
X495133Y259655D01*
X495108Y259556D01*
X495080Y259457D01*
X495047Y259360D01*
X495011Y259264D01*
X494972Y259169D01*
X494928Y259076D01*
X494882Y258985D01*
X494831Y258896D01*
X494778Y258808D01*
X494721Y258723D01*
X494661Y258640D01*
X494598Y258559D01*
X494532Y258480D01*
X494463Y258405D01*
X494391Y258331D01*
X494317Y258261D01*
X494240Y258193D01*
X494160Y258129D01*
X494078Y258067D01*
X493994Y258009D01*
X493907Y257954D01*
X493819Y257902D01*
X493728Y257854D01*
X493636Y257809D01*
X493543Y257767D01*
X493447Y257729D01*
X493351Y257695D01*
X493253Y257664D01*
X493154Y257638D01*
X493054Y257614D01*
X492953Y257595D01*
X492852Y257580D01*
X492750Y257568D01*
X492648Y257560D01*
X492545Y257556D01*
X492443Y257556D01*
X492340Y257560D01*
X492238Y257568D01*
X492136Y257580D01*
X492035Y257595D01*
X491934Y257614D01*
X491834Y257638D01*
X491735Y257664D01*
X491637Y257695D01*
X491541Y257729D01*
X491445Y257767D01*
X491352Y257809D01*
X491260Y257854D01*
X491169Y257902D01*
X491081Y257954D01*
X490994Y258009D01*
X490910Y258067D01*
X490828Y258129D01*
X490748Y258193D01*
X490671Y258261D01*
X490597Y258331D01*
X490525Y258405D01*
X490456Y258480D01*
X490390Y258559D01*
X490327Y258640D01*
X490267Y258723D01*
X490210Y258808D01*
X490157Y258896D01*
X490106Y258985D01*
X490060Y259076D01*
X490016Y259169D01*
X489977Y259264D01*
X489941Y259360D01*
X489908Y259457D01*
X489880Y259556D01*
X489855Y259655D01*
X489833Y259755D01*
X489816Y259856D01*
X489802Y259958D01*
X489793Y260060D01*
X489787Y260162D01*
X489785Y260265D01*
X501410Y257556D02*
X501410Y265684D01*
X505474Y265684D01*
X505474Y264329D01*
X510479Y269748D02*
X510479Y257556D01*
X510479Y261620D02*
X515898Y265684D01*
X512850Y263313D02*
X515898Y257556D01*
X521952Y262297D02*
X525338Y260943D01*
X521952Y262298D02*
X521876Y262330D01*
X521802Y262366D01*
X521729Y262406D01*
X521658Y262448D01*
X521590Y262494D01*
X521524Y262544D01*
X521460Y262596D01*
X521398Y262651D01*
X521340Y262709D01*
X521284Y262770D01*
X521231Y262834D01*
X521181Y262899D01*
X521134Y262967D01*
X521090Y263038D01*
X521050Y263110D01*
X521013Y263184D01*
X520980Y263259D01*
X520951Y263336D01*
X520925Y263415D01*
X520902Y263494D01*
X520884Y263575D01*
X520869Y263656D01*
X520858Y263738D01*
X520851Y263820D01*
X520848Y263903D01*
X520849Y263986D01*
X520854Y264068D01*
X520862Y264150D01*
X520874Y264232D01*
X520891Y264313D01*
X520911Y264393D01*
X520934Y264472D01*
X520962Y264550D01*
X520993Y264626D01*
X521028Y264701D01*
X521066Y264775D01*
X521107Y264846D01*
X521152Y264916D01*
X521200Y264983D01*
X521251Y265048D01*
X521305Y265110D01*
X521362Y265170D01*
X521422Y265227D01*
X521484Y265281D01*
X521549Y265332D01*
X521616Y265380D01*
X521686Y265425D01*
X521757Y265466D01*
X521831Y265504D01*
X521906Y265539D01*
X521982Y265570D01*
X522060Y265598D01*
X522139Y265621D01*
X522219Y265641D01*
X522300Y265658D01*
X522382Y265670D01*
X522464Y265678D01*
X522546Y265683D01*
X522629Y265684D01*
X522814Y265679D01*
X522999Y265670D01*
X523183Y265656D01*
X523367Y265638D01*
X523551Y265616D01*
X523734Y265589D01*
X523916Y265557D01*
X524097Y265521D01*
X524278Y265481D01*
X524457Y265437D01*
X524636Y265388D01*
X524813Y265335D01*
X524989Y265278D01*
X525163Y265216D01*
X525336Y265151D01*
X525507Y265081D01*
X525677Y265007D01*
X525338Y260942D02*
X525414Y260910D01*
X525488Y260874D01*
X525561Y260834D01*
X525632Y260792D01*
X525700Y260746D01*
X525766Y260696D01*
X525830Y260644D01*
X525892Y260589D01*
X525950Y260531D01*
X526006Y260470D01*
X526059Y260406D01*
X526109Y260341D01*
X526156Y260273D01*
X526200Y260202D01*
X526240Y260130D01*
X526276Y260056D01*
X526310Y259981D01*
X526339Y259904D01*
X526365Y259825D01*
X526388Y259746D01*
X526406Y259665D01*
X526421Y259584D01*
X526432Y259502D01*
X526439Y259420D01*
X526442Y259337D01*
X526441Y259255D01*
X526436Y259172D01*
X526428Y259090D01*
X526416Y259008D01*
X526399Y258927D01*
X526379Y258847D01*
X526356Y258768D01*
X526328Y258690D01*
X526297Y258614D01*
X526262Y258539D01*
X526224Y258465D01*
X526183Y258394D01*
X526138Y258325D01*
X526090Y258257D01*
X526039Y258192D01*
X525985Y258130D01*
X525928Y258070D01*
X525868Y258013D01*
X525806Y257959D01*
X525741Y257908D01*
X525674Y257860D01*
X525604Y257815D01*
X525533Y257774D01*
X525459Y257736D01*
X525384Y257701D01*
X525308Y257670D01*
X525230Y257642D01*
X525151Y257619D01*
X525071Y257599D01*
X524990Y257582D01*
X524908Y257570D01*
X524826Y257562D01*
X524744Y257557D01*
X524661Y257556D01*
X524661Y257555D02*
X524389Y257562D01*
X524118Y257576D01*
X523847Y257596D01*
X523577Y257622D01*
X523307Y257655D01*
X523038Y257694D01*
X522770Y257739D01*
X522503Y257791D01*
X522238Y257849D01*
X521974Y257913D01*
X521712Y257984D01*
X521451Y258061D01*
X521192Y258144D01*
X520936Y258233D01*
X532457Y257556D02*
X532457Y269748D01*
X532457Y265684D02*
X535844Y265684D01*
X535933Y265682D01*
X536021Y265676D01*
X536109Y265667D01*
X536197Y265653D01*
X536284Y265636D01*
X536370Y265615D01*
X536455Y265590D01*
X536539Y265561D01*
X536622Y265529D01*
X536703Y265494D01*
X536782Y265454D01*
X536860Y265412D01*
X536936Y265366D01*
X537010Y265317D01*
X537081Y265264D01*
X537150Y265209D01*
X537217Y265150D01*
X537281Y265089D01*
X537342Y265025D01*
X537401Y264958D01*
X537456Y264889D01*
X537509Y264818D01*
X537558Y264744D01*
X537604Y264668D01*
X537646Y264590D01*
X537686Y264511D01*
X537721Y264430D01*
X537753Y264347D01*
X537782Y264263D01*
X537807Y264178D01*
X537828Y264092D01*
X537845Y264005D01*
X537859Y263917D01*
X537868Y263829D01*
X537874Y263741D01*
X537876Y263652D01*
X537876Y257556D01*
X543979Y260265D02*
X543979Y262975D01*
X543981Y263078D01*
X543987Y263180D01*
X543996Y263282D01*
X544010Y263384D01*
X544027Y263485D01*
X544049Y263585D01*
X544074Y263684D01*
X544102Y263783D01*
X544135Y263880D01*
X544171Y263976D01*
X544210Y264071D01*
X544254Y264164D01*
X544300Y264255D01*
X544351Y264344D01*
X544404Y264432D01*
X544461Y264517D01*
X544521Y264600D01*
X544584Y264681D01*
X544650Y264760D01*
X544719Y264835D01*
X544791Y264909D01*
X544865Y264979D01*
X544942Y265047D01*
X545022Y265111D01*
X545104Y265173D01*
X545188Y265231D01*
X545275Y265286D01*
X545363Y265338D01*
X545454Y265386D01*
X545546Y265431D01*
X545639Y265473D01*
X545735Y265511D01*
X545831Y265545D01*
X545929Y265576D01*
X546028Y265602D01*
X546128Y265626D01*
X546229Y265645D01*
X546330Y265660D01*
X546432Y265672D01*
X546534Y265680D01*
X546637Y265684D01*
X546739Y265684D01*
X546842Y265680D01*
X546944Y265672D01*
X547046Y265660D01*
X547147Y265645D01*
X547248Y265626D01*
X547348Y265602D01*
X547447Y265576D01*
X547545Y265545D01*
X547641Y265511D01*
X547737Y265473D01*
X547830Y265431D01*
X547922Y265386D01*
X548013Y265338D01*
X548101Y265286D01*
X548188Y265231D01*
X548272Y265173D01*
X548354Y265111D01*
X548434Y265047D01*
X548511Y264979D01*
X548585Y264909D01*
X548657Y264835D01*
X548726Y264760D01*
X548792Y264681D01*
X548855Y264600D01*
X548915Y264517D01*
X548972Y264432D01*
X549025Y264344D01*
X549076Y264255D01*
X549122Y264164D01*
X549166Y264071D01*
X549205Y263976D01*
X549241Y263880D01*
X549274Y263783D01*
X549302Y263684D01*
X549327Y263585D01*
X549349Y263485D01*
X549366Y263384D01*
X549380Y263282D01*
X549389Y263180D01*
X549395Y263078D01*
X549397Y262975D01*
X549397Y260265D01*
X549395Y260162D01*
X549389Y260060D01*
X549380Y259958D01*
X549366Y259856D01*
X549349Y259755D01*
X549327Y259655D01*
X549302Y259556D01*
X549274Y259457D01*
X549241Y259360D01*
X549205Y259264D01*
X549166Y259169D01*
X549122Y259076D01*
X549076Y258985D01*
X549025Y258896D01*
X548972Y258808D01*
X548915Y258723D01*
X548855Y258640D01*
X548792Y258559D01*
X548726Y258480D01*
X548657Y258405D01*
X548585Y258331D01*
X548511Y258261D01*
X548434Y258193D01*
X548354Y258129D01*
X548272Y258067D01*
X548188Y258009D01*
X548101Y257954D01*
X548013Y257902D01*
X547922Y257854D01*
X547830Y257809D01*
X547737Y257767D01*
X547641Y257729D01*
X547545Y257695D01*
X547447Y257664D01*
X547348Y257638D01*
X547248Y257614D01*
X547147Y257595D01*
X547046Y257580D01*
X546944Y257568D01*
X546842Y257560D01*
X546739Y257556D01*
X546637Y257556D01*
X546534Y257560D01*
X546432Y257568D01*
X546330Y257580D01*
X546229Y257595D01*
X546128Y257614D01*
X546028Y257638D01*
X545929Y257664D01*
X545831Y257695D01*
X545735Y257729D01*
X545639Y257767D01*
X545546Y257809D01*
X545454Y257854D01*
X545363Y257902D01*
X545275Y257954D01*
X545188Y258009D01*
X545104Y258067D01*
X545022Y258129D01*
X544942Y258193D01*
X544865Y258261D01*
X544791Y258331D01*
X544719Y258405D01*
X544650Y258480D01*
X544584Y258559D01*
X544521Y258640D01*
X544461Y258723D01*
X544404Y258808D01*
X544351Y258896D01*
X544300Y258985D01*
X544254Y259076D01*
X544210Y259169D01*
X544171Y259264D01*
X544135Y259360D01*
X544102Y259457D01*
X544074Y259556D01*
X544049Y259655D01*
X544027Y259755D01*
X544010Y259856D01*
X543996Y259958D01*
X543987Y260060D01*
X543981Y260162D01*
X543979Y260265D01*
X555592Y265684D02*
X555592Y253492D01*
X555592Y265684D02*
X558978Y265684D01*
X559067Y265682D01*
X559155Y265676D01*
X559243Y265667D01*
X559331Y265653D01*
X559418Y265636D01*
X559504Y265615D01*
X559589Y265590D01*
X559673Y265561D01*
X559756Y265529D01*
X559837Y265494D01*
X559916Y265454D01*
X559994Y265412D01*
X560070Y265366D01*
X560144Y265317D01*
X560215Y265264D01*
X560284Y265209D01*
X560351Y265150D01*
X560415Y265089D01*
X560476Y265025D01*
X560535Y264958D01*
X560590Y264889D01*
X560643Y264818D01*
X560692Y264744D01*
X560738Y264668D01*
X560780Y264590D01*
X560820Y264511D01*
X560855Y264430D01*
X560887Y264347D01*
X560916Y264263D01*
X560941Y264178D01*
X560962Y264092D01*
X560979Y264005D01*
X560993Y263917D01*
X561002Y263829D01*
X561008Y263741D01*
X561010Y263652D01*
X561010Y259588D01*
X561008Y259499D01*
X561002Y259411D01*
X560993Y259323D01*
X560979Y259235D01*
X560962Y259148D01*
X560941Y259062D01*
X560916Y258977D01*
X560887Y258893D01*
X560855Y258810D01*
X560820Y258729D01*
X560780Y258650D01*
X560738Y258572D01*
X560692Y258496D01*
X560643Y258422D01*
X560590Y258351D01*
X560535Y258282D01*
X560476Y258215D01*
X560415Y258151D01*
X560351Y258090D01*
X560284Y258031D01*
X560215Y257976D01*
X560144Y257923D01*
X560070Y257874D01*
X559994Y257828D01*
X559916Y257786D01*
X559837Y257746D01*
X559756Y257711D01*
X559673Y257679D01*
X559589Y257650D01*
X559504Y257625D01*
X559418Y257604D01*
X559331Y257587D01*
X559243Y257573D01*
X559155Y257564D01*
X559067Y257558D01*
X558978Y257556D01*
X555592Y257556D01*
D11*
X436400Y242062D02*
X434481Y242062D01*
X434395Y242064D01*
X434309Y242070D01*
X434223Y242079D01*
X434138Y242093D01*
X434054Y242110D01*
X433970Y242131D01*
X433888Y242156D01*
X433807Y242184D01*
X433727Y242216D01*
X433648Y242252D01*
X433572Y242291D01*
X433497Y242334D01*
X433424Y242379D01*
X433353Y242428D01*
X433285Y242481D01*
X433218Y242536D01*
X433155Y242594D01*
X433094Y242655D01*
X433036Y242718D01*
X432981Y242785D01*
X432928Y242853D01*
X432879Y242924D01*
X432834Y242997D01*
X432791Y243072D01*
X432752Y243148D01*
X432716Y243227D01*
X432684Y243307D01*
X432656Y243388D01*
X432631Y243470D01*
X432610Y243554D01*
X432593Y243638D01*
X432579Y243723D01*
X432570Y243809D01*
X432564Y243895D01*
X432562Y243981D01*
X432562Y248779D01*
X432564Y248865D01*
X432570Y248951D01*
X432579Y249037D01*
X432593Y249122D01*
X432610Y249206D01*
X432631Y249290D01*
X432656Y249372D01*
X432684Y249453D01*
X432716Y249533D01*
X432752Y249612D01*
X432791Y249688D01*
X432834Y249763D01*
X432879Y249836D01*
X432928Y249907D01*
X432981Y249975D01*
X433036Y250042D01*
X433094Y250105D01*
X433155Y250166D01*
X433218Y250224D01*
X433285Y250279D01*
X433353Y250331D01*
X433424Y250381D01*
X433497Y250426D01*
X433572Y250469D01*
X433648Y250508D01*
X433727Y250544D01*
X433807Y250576D01*
X433888Y250604D01*
X433970Y250629D01*
X434054Y250650D01*
X434138Y250667D01*
X434223Y250681D01*
X434309Y250690D01*
X434395Y250696D01*
X434481Y250698D01*
X436400Y250698D01*
X440129Y250698D02*
X440129Y243501D01*
X440131Y243426D01*
X440137Y243351D01*
X440147Y243276D01*
X440160Y243202D01*
X440178Y243129D01*
X440199Y243056D01*
X440225Y242985D01*
X440253Y242916D01*
X440286Y242848D01*
X440322Y242782D01*
X440361Y242717D01*
X440404Y242655D01*
X440450Y242595D01*
X440499Y242538D01*
X440550Y242483D01*
X440605Y242432D01*
X440662Y242383D01*
X440722Y242337D01*
X440784Y242294D01*
X440849Y242255D01*
X440915Y242219D01*
X440983Y242186D01*
X441052Y242158D01*
X441123Y242132D01*
X441196Y242111D01*
X441269Y242093D01*
X441343Y242080D01*
X441418Y242070D01*
X441493Y242064D01*
X441568Y242062D01*
X444967Y243981D02*
X444967Y245900D01*
X444969Y245986D01*
X444975Y246072D01*
X444984Y246158D01*
X444998Y246243D01*
X445015Y246327D01*
X445036Y246411D01*
X445061Y246493D01*
X445089Y246574D01*
X445121Y246654D01*
X445157Y246733D01*
X445196Y246809D01*
X445239Y246884D01*
X445284Y246957D01*
X445333Y247028D01*
X445386Y247096D01*
X445441Y247163D01*
X445499Y247226D01*
X445560Y247287D01*
X445623Y247345D01*
X445690Y247400D01*
X445758Y247453D01*
X445829Y247502D01*
X445902Y247547D01*
X445977Y247590D01*
X446053Y247629D01*
X446132Y247665D01*
X446212Y247697D01*
X446293Y247725D01*
X446375Y247750D01*
X446459Y247771D01*
X446543Y247788D01*
X446628Y247802D01*
X446714Y247811D01*
X446800Y247817D01*
X446886Y247819D01*
X446972Y247817D01*
X447058Y247811D01*
X447144Y247802D01*
X447229Y247788D01*
X447313Y247771D01*
X447397Y247750D01*
X447479Y247725D01*
X447560Y247697D01*
X447640Y247665D01*
X447719Y247629D01*
X447795Y247590D01*
X447870Y247547D01*
X447943Y247502D01*
X448014Y247453D01*
X448082Y247400D01*
X448149Y247345D01*
X448212Y247287D01*
X448273Y247226D01*
X448331Y247163D01*
X448386Y247096D01*
X448439Y247028D01*
X448488Y246957D01*
X448533Y246884D01*
X448576Y246809D01*
X448615Y246733D01*
X448651Y246654D01*
X448683Y246574D01*
X448711Y246493D01*
X448736Y246411D01*
X448757Y246327D01*
X448774Y246243D01*
X448788Y246158D01*
X448797Y246072D01*
X448803Y245986D01*
X448805Y245900D01*
X448805Y243981D01*
X448803Y243895D01*
X448797Y243809D01*
X448788Y243723D01*
X448774Y243638D01*
X448757Y243554D01*
X448736Y243470D01*
X448711Y243388D01*
X448683Y243307D01*
X448651Y243227D01*
X448615Y243148D01*
X448576Y243072D01*
X448533Y242997D01*
X448488Y242924D01*
X448439Y242853D01*
X448386Y242785D01*
X448331Y242718D01*
X448273Y242655D01*
X448212Y242594D01*
X448149Y242536D01*
X448082Y242481D01*
X448014Y242428D01*
X447943Y242379D01*
X447870Y242334D01*
X447795Y242291D01*
X447719Y242252D01*
X447640Y242216D01*
X447560Y242184D01*
X447479Y242156D01*
X447397Y242131D01*
X447313Y242110D01*
X447229Y242093D01*
X447144Y242079D01*
X447058Y242070D01*
X446972Y242064D01*
X446886Y242062D01*
X446800Y242064D01*
X446714Y242070D01*
X446628Y242079D01*
X446543Y242093D01*
X446459Y242110D01*
X446375Y242131D01*
X446293Y242156D01*
X446212Y242184D01*
X446132Y242216D01*
X446053Y242252D01*
X445977Y242291D01*
X445902Y242334D01*
X445829Y242379D01*
X445758Y242428D01*
X445690Y242481D01*
X445623Y242536D01*
X445560Y242594D01*
X445499Y242655D01*
X445441Y242718D01*
X445386Y242785D01*
X445333Y242853D01*
X445284Y242924D01*
X445239Y242997D01*
X445196Y243072D01*
X445157Y243148D01*
X445121Y243227D01*
X445089Y243307D01*
X445061Y243388D01*
X445036Y243470D01*
X445015Y243554D01*
X444998Y243638D01*
X444984Y243723D01*
X444975Y243809D01*
X444969Y243895D01*
X444967Y243981D01*
X454346Y242062D02*
X456266Y242062D01*
X454346Y242062D02*
X454271Y242064D01*
X454196Y242070D01*
X454121Y242080D01*
X454047Y242093D01*
X453974Y242111D01*
X453901Y242132D01*
X453830Y242158D01*
X453761Y242186D01*
X453693Y242219D01*
X453627Y242255D01*
X453562Y242294D01*
X453500Y242337D01*
X453440Y242383D01*
X453383Y242432D01*
X453328Y242483D01*
X453277Y242538D01*
X453228Y242595D01*
X453182Y242655D01*
X453139Y242717D01*
X453100Y242782D01*
X453064Y242848D01*
X453031Y242916D01*
X453003Y242985D01*
X452977Y243056D01*
X452956Y243129D01*
X452938Y243202D01*
X452925Y243276D01*
X452915Y243351D01*
X452909Y243426D01*
X452907Y243501D01*
X452907Y246380D01*
X452909Y246455D01*
X452915Y246530D01*
X452925Y246605D01*
X452938Y246679D01*
X452956Y246752D01*
X452977Y246825D01*
X453003Y246896D01*
X453031Y246965D01*
X453064Y247033D01*
X453100Y247100D01*
X453139Y247164D01*
X453182Y247226D01*
X453228Y247286D01*
X453277Y247343D01*
X453328Y247398D01*
X453383Y247449D01*
X453440Y247498D01*
X453500Y247544D01*
X453562Y247587D01*
X453627Y247626D01*
X453693Y247662D01*
X453761Y247695D01*
X453830Y247723D01*
X453901Y247749D01*
X453974Y247770D01*
X454047Y247788D01*
X454121Y247801D01*
X454196Y247811D01*
X454271Y247817D01*
X454346Y247819D01*
X456266Y247819D01*
X460363Y250698D02*
X460363Y242062D01*
X460363Y244941D02*
X464201Y247819D01*
X462042Y246140D02*
X464201Y242062D01*
X473138Y242062D02*
X473138Y250698D01*
X475537Y250698D01*
X475634Y250696D01*
X475730Y250690D01*
X475826Y250681D01*
X475922Y250667D01*
X476017Y250650D01*
X476111Y250628D01*
X476204Y250603D01*
X476297Y250575D01*
X476388Y250542D01*
X476477Y250506D01*
X476565Y250466D01*
X476652Y250423D01*
X476737Y250377D01*
X476819Y250327D01*
X476900Y250273D01*
X476978Y250217D01*
X477054Y250157D01*
X477128Y250095D01*
X477199Y250029D01*
X477267Y249961D01*
X477333Y249890D01*
X477395Y249816D01*
X477455Y249740D01*
X477511Y249662D01*
X477565Y249581D01*
X477615Y249499D01*
X477661Y249414D01*
X477704Y249327D01*
X477744Y249239D01*
X477780Y249150D01*
X477813Y249059D01*
X477841Y248966D01*
X477866Y248873D01*
X477888Y248779D01*
X477905Y248684D01*
X477919Y248588D01*
X477928Y248492D01*
X477934Y248396D01*
X477936Y248299D01*
X477936Y244461D01*
X477934Y244364D01*
X477928Y244268D01*
X477919Y244172D01*
X477905Y244076D01*
X477888Y243981D01*
X477866Y243887D01*
X477841Y243794D01*
X477813Y243701D01*
X477780Y243610D01*
X477744Y243521D01*
X477704Y243433D01*
X477661Y243346D01*
X477615Y243262D01*
X477565Y243179D01*
X477511Y243098D01*
X477455Y243020D01*
X477395Y242944D01*
X477333Y242870D01*
X477267Y242799D01*
X477199Y242731D01*
X477128Y242665D01*
X477054Y242603D01*
X476978Y242543D01*
X476900Y242487D01*
X476819Y242433D01*
X476737Y242383D01*
X476652Y242337D01*
X476565Y242294D01*
X476477Y242254D01*
X476388Y242218D01*
X476297Y242185D01*
X476204Y242157D01*
X476111Y242132D01*
X476017Y242110D01*
X475922Y242093D01*
X475826Y242079D01*
X475730Y242070D01*
X475634Y242064D01*
X475537Y242062D01*
X473138Y242062D01*
X482838Y242062D02*
X482838Y247819D01*
X485717Y247819D01*
X485717Y246860D01*
X488644Y247819D02*
X488644Y242062D01*
X488404Y250218D02*
X488404Y250698D01*
X488883Y250698D01*
X488883Y250218D01*
X488404Y250218D01*
X492211Y247819D02*
X494130Y242062D01*
X496049Y247819D01*
X501270Y242062D02*
X503669Y242062D01*
X501270Y242062D02*
X501195Y242064D01*
X501120Y242070D01*
X501045Y242080D01*
X500971Y242093D01*
X500898Y242111D01*
X500825Y242132D01*
X500754Y242158D01*
X500685Y242186D01*
X500617Y242219D01*
X500551Y242255D01*
X500486Y242294D01*
X500424Y242337D01*
X500364Y242383D01*
X500307Y242432D01*
X500252Y242483D01*
X500201Y242538D01*
X500152Y242595D01*
X500106Y242655D01*
X500063Y242717D01*
X500024Y242782D01*
X499988Y242848D01*
X499955Y242916D01*
X499927Y242985D01*
X499901Y243056D01*
X499880Y243129D01*
X499862Y243202D01*
X499849Y243276D01*
X499839Y243351D01*
X499833Y243426D01*
X499831Y243501D01*
X499831Y245900D01*
X499833Y245986D01*
X499839Y246072D01*
X499848Y246158D01*
X499862Y246243D01*
X499879Y246327D01*
X499900Y246411D01*
X499925Y246493D01*
X499953Y246574D01*
X499985Y246654D01*
X500021Y246733D01*
X500060Y246809D01*
X500103Y246884D01*
X500148Y246957D01*
X500197Y247028D01*
X500250Y247096D01*
X500305Y247163D01*
X500363Y247226D01*
X500424Y247287D01*
X500487Y247345D01*
X500554Y247400D01*
X500622Y247453D01*
X500693Y247502D01*
X500766Y247547D01*
X500841Y247590D01*
X500917Y247629D01*
X500996Y247665D01*
X501076Y247697D01*
X501157Y247725D01*
X501239Y247750D01*
X501323Y247771D01*
X501407Y247788D01*
X501492Y247802D01*
X501578Y247811D01*
X501664Y247817D01*
X501750Y247819D01*
X501836Y247817D01*
X501922Y247811D01*
X502008Y247802D01*
X502093Y247788D01*
X502177Y247771D01*
X502261Y247750D01*
X502343Y247725D01*
X502424Y247697D01*
X502504Y247665D01*
X502583Y247629D01*
X502659Y247590D01*
X502734Y247547D01*
X502807Y247502D01*
X502878Y247453D01*
X502946Y247400D01*
X503013Y247345D01*
X503076Y247287D01*
X503137Y247226D01*
X503195Y247163D01*
X503250Y247096D01*
X503303Y247028D01*
X503352Y246957D01*
X503397Y246884D01*
X503440Y246809D01*
X503479Y246733D01*
X503515Y246654D01*
X503547Y246574D01*
X503575Y246493D01*
X503600Y246411D01*
X503621Y246327D01*
X503638Y246243D01*
X503652Y246158D01*
X503661Y246072D01*
X503667Y245986D01*
X503669Y245900D01*
X503669Y244941D01*
X499831Y244941D01*
X508137Y242062D02*
X508137Y247819D01*
X511015Y247819D01*
X511015Y246860D01*
X519552Y250698D02*
X519552Y242062D01*
X519552Y250698D02*
X521951Y250698D01*
X522048Y250696D01*
X522144Y250690D01*
X522240Y250681D01*
X522336Y250667D01*
X522431Y250650D01*
X522525Y250628D01*
X522618Y250603D01*
X522711Y250575D01*
X522802Y250542D01*
X522891Y250506D01*
X522979Y250466D01*
X523066Y250423D01*
X523151Y250377D01*
X523233Y250327D01*
X523314Y250273D01*
X523392Y250217D01*
X523468Y250157D01*
X523542Y250095D01*
X523613Y250029D01*
X523681Y249961D01*
X523747Y249890D01*
X523809Y249816D01*
X523869Y249740D01*
X523925Y249662D01*
X523979Y249581D01*
X524029Y249498D01*
X524075Y249414D01*
X524118Y249327D01*
X524158Y249239D01*
X524194Y249150D01*
X524227Y249059D01*
X524255Y248966D01*
X524280Y248873D01*
X524302Y248779D01*
X524319Y248684D01*
X524333Y248588D01*
X524342Y248492D01*
X524348Y248396D01*
X524350Y248299D01*
X524348Y248202D01*
X524342Y248106D01*
X524333Y248010D01*
X524319Y247914D01*
X524302Y247819D01*
X524280Y247725D01*
X524255Y247632D01*
X524227Y247539D01*
X524194Y247448D01*
X524158Y247359D01*
X524118Y247271D01*
X524075Y247184D01*
X524029Y247100D01*
X523979Y247017D01*
X523925Y246936D01*
X523869Y246858D01*
X523809Y246782D01*
X523747Y246708D01*
X523681Y246637D01*
X523613Y246569D01*
X523542Y246503D01*
X523468Y246441D01*
X523392Y246381D01*
X523314Y246325D01*
X523233Y246271D01*
X523151Y246221D01*
X523066Y246175D01*
X522979Y246132D01*
X522891Y246092D01*
X522802Y246056D01*
X522711Y246023D01*
X522618Y245995D01*
X522525Y245970D01*
X522431Y245948D01*
X522336Y245931D01*
X522240Y245917D01*
X522144Y245908D01*
X522048Y245902D01*
X521951Y245900D01*
X519552Y245900D01*
X522431Y245900D02*
X524350Y242062D01*
X528612Y242062D02*
X531011Y242062D01*
X531108Y242064D01*
X531204Y242070D01*
X531300Y242079D01*
X531396Y242093D01*
X531491Y242110D01*
X531585Y242132D01*
X531678Y242157D01*
X531771Y242185D01*
X531862Y242218D01*
X531951Y242254D01*
X532039Y242294D01*
X532126Y242337D01*
X532211Y242383D01*
X532293Y242433D01*
X532374Y242487D01*
X532452Y242543D01*
X532528Y242603D01*
X532602Y242665D01*
X532673Y242731D01*
X532741Y242799D01*
X532807Y242870D01*
X532869Y242944D01*
X532929Y243020D01*
X532985Y243098D01*
X533039Y243179D01*
X533089Y243262D01*
X533135Y243346D01*
X533178Y243433D01*
X533218Y243521D01*
X533254Y243610D01*
X533287Y243701D01*
X533315Y243794D01*
X533340Y243887D01*
X533362Y243981D01*
X533379Y244076D01*
X533393Y244172D01*
X533402Y244268D01*
X533408Y244364D01*
X533410Y244461D01*
X533408Y244558D01*
X533402Y244654D01*
X533393Y244750D01*
X533379Y244846D01*
X533362Y244941D01*
X533340Y245035D01*
X533315Y245128D01*
X533287Y245221D01*
X533254Y245312D01*
X533218Y245401D01*
X533178Y245489D01*
X533135Y245576D01*
X533089Y245660D01*
X533039Y245743D01*
X532985Y245824D01*
X532929Y245902D01*
X532869Y245978D01*
X532807Y246052D01*
X532741Y246123D01*
X532673Y246191D01*
X532602Y246257D01*
X532528Y246319D01*
X532452Y246379D01*
X532374Y246435D01*
X532293Y246489D01*
X532211Y246539D01*
X532126Y246585D01*
X532039Y246628D01*
X531951Y246668D01*
X531862Y246704D01*
X531771Y246737D01*
X531678Y246765D01*
X531585Y246790D01*
X531491Y246812D01*
X531396Y246829D01*
X531300Y246843D01*
X531204Y246852D01*
X531108Y246858D01*
X531011Y246860D01*
X531490Y250698D02*
X528612Y250698D01*
X531490Y250698D02*
X531576Y250696D01*
X531662Y250690D01*
X531748Y250681D01*
X531833Y250667D01*
X531917Y250650D01*
X532001Y250629D01*
X532083Y250604D01*
X532164Y250576D01*
X532244Y250544D01*
X532323Y250508D01*
X532399Y250469D01*
X532474Y250426D01*
X532547Y250381D01*
X532618Y250332D01*
X532686Y250279D01*
X532753Y250224D01*
X532816Y250166D01*
X532877Y250105D01*
X532935Y250042D01*
X532990Y249975D01*
X533043Y249907D01*
X533092Y249836D01*
X533137Y249763D01*
X533180Y249688D01*
X533219Y249612D01*
X533255Y249533D01*
X533287Y249453D01*
X533315Y249372D01*
X533340Y249290D01*
X533361Y249206D01*
X533378Y249122D01*
X533392Y249037D01*
X533401Y248951D01*
X533407Y248865D01*
X533409Y248779D01*
X533407Y248693D01*
X533401Y248607D01*
X533392Y248521D01*
X533378Y248436D01*
X533361Y248352D01*
X533340Y248268D01*
X533315Y248186D01*
X533287Y248105D01*
X533255Y248025D01*
X533219Y247946D01*
X533180Y247870D01*
X533137Y247795D01*
X533092Y247722D01*
X533043Y247651D01*
X532990Y247583D01*
X532935Y247516D01*
X532877Y247453D01*
X532816Y247392D01*
X532753Y247334D01*
X532686Y247279D01*
X532618Y247226D01*
X532547Y247177D01*
X532474Y247132D01*
X532399Y247089D01*
X532323Y247050D01*
X532244Y247014D01*
X532164Y246982D01*
X532083Y246954D01*
X532001Y246929D01*
X531917Y246908D01*
X531833Y246891D01*
X531748Y246877D01*
X531662Y246868D01*
X531576Y246862D01*
X531490Y246860D01*
X529571Y246860D01*
D12*
X427990Y181229D02*
X426085Y179705D01*
X427990Y181229D02*
X427990Y174371D01*
X426085Y174371D02*
X429895Y174371D01*
X433507Y177038D02*
X438079Y177038D01*
X435793Y174752D02*
X435793Y179324D01*
X427990Y155829D02*
X426085Y154305D01*
X427990Y155829D02*
X427990Y148971D01*
X426085Y148971D02*
X429895Y148971D01*
X433667Y151638D02*
X439382Y151638D01*
X428181Y130430D02*
X428263Y130428D01*
X428344Y130422D01*
X428425Y130413D01*
X428506Y130399D01*
X428585Y130382D01*
X428664Y130361D01*
X428742Y130336D01*
X428818Y130307D01*
X428893Y130275D01*
X428967Y130239D01*
X429039Y130200D01*
X429108Y130158D01*
X429176Y130112D01*
X429241Y130063D01*
X429304Y130011D01*
X429364Y129956D01*
X429422Y129898D01*
X429477Y129838D01*
X429529Y129775D01*
X429578Y129710D01*
X429624Y129642D01*
X429666Y129573D01*
X429705Y129501D01*
X429741Y129427D01*
X429773Y129352D01*
X429802Y129276D01*
X429827Y129198D01*
X429848Y129119D01*
X429865Y129040D01*
X429879Y128959D01*
X429888Y128878D01*
X429894Y128797D01*
X429896Y128715D01*
X428181Y130429D02*
X428089Y130427D01*
X427997Y130421D01*
X427905Y130412D01*
X427813Y130398D01*
X427723Y130381D01*
X427633Y130360D01*
X427544Y130335D01*
X427456Y130306D01*
X427369Y130274D01*
X427284Y130238D01*
X427201Y130199D01*
X427119Y130156D01*
X427039Y130110D01*
X426961Y130060D01*
X426885Y130008D01*
X426812Y129952D01*
X426741Y129893D01*
X426672Y129831D01*
X426606Y129766D01*
X426543Y129699D01*
X426483Y129629D01*
X426425Y129557D01*
X426371Y129482D01*
X426320Y129405D01*
X426272Y129326D01*
X426228Y129245D01*
X426187Y129162D01*
X426149Y129078D01*
X426115Y128992D01*
X426085Y128905D01*
X429324Y127381D02*
X429383Y127440D01*
X429439Y127501D01*
X429492Y127564D01*
X429543Y127630D01*
X429590Y127698D01*
X429634Y127768D01*
X429675Y127840D01*
X429713Y127914D01*
X429747Y127989D01*
X429778Y128066D01*
X429805Y128144D01*
X429829Y128224D01*
X429850Y128304D01*
X429866Y128385D01*
X429879Y128467D01*
X429889Y128549D01*
X429894Y128632D01*
X429896Y128715D01*
X429324Y127381D02*
X426085Y123571D01*
X429895Y123571D01*
X433507Y126238D02*
X438079Y126238D01*
X435793Y123952D02*
X435793Y128524D01*
X428181Y105030D02*
X428263Y105028D01*
X428344Y105022D01*
X428425Y105013D01*
X428506Y104999D01*
X428585Y104982D01*
X428664Y104961D01*
X428742Y104936D01*
X428818Y104907D01*
X428893Y104875D01*
X428967Y104839D01*
X429039Y104800D01*
X429108Y104758D01*
X429176Y104712D01*
X429241Y104663D01*
X429304Y104611D01*
X429364Y104556D01*
X429422Y104498D01*
X429477Y104438D01*
X429529Y104375D01*
X429578Y104310D01*
X429624Y104242D01*
X429666Y104173D01*
X429705Y104101D01*
X429741Y104027D01*
X429773Y103952D01*
X429802Y103876D01*
X429827Y103798D01*
X429848Y103719D01*
X429865Y103640D01*
X429879Y103559D01*
X429888Y103478D01*
X429894Y103397D01*
X429896Y103315D01*
X428181Y105029D02*
X428089Y105027D01*
X427997Y105021D01*
X427905Y105012D01*
X427813Y104998D01*
X427723Y104981D01*
X427633Y104960D01*
X427544Y104935D01*
X427456Y104906D01*
X427369Y104874D01*
X427284Y104838D01*
X427201Y104799D01*
X427119Y104756D01*
X427039Y104710D01*
X426961Y104660D01*
X426885Y104608D01*
X426812Y104552D01*
X426741Y104493D01*
X426672Y104431D01*
X426606Y104366D01*
X426543Y104299D01*
X426483Y104229D01*
X426425Y104157D01*
X426371Y104082D01*
X426320Y104005D01*
X426272Y103926D01*
X426228Y103845D01*
X426187Y103762D01*
X426149Y103678D01*
X426115Y103592D01*
X426085Y103505D01*
X429324Y101981D02*
X429383Y102040D01*
X429439Y102101D01*
X429492Y102164D01*
X429543Y102230D01*
X429590Y102298D01*
X429634Y102368D01*
X429675Y102440D01*
X429713Y102514D01*
X429747Y102589D01*
X429778Y102666D01*
X429805Y102744D01*
X429829Y102824D01*
X429850Y102904D01*
X429866Y102985D01*
X429879Y103067D01*
X429889Y103149D01*
X429894Y103232D01*
X429896Y103315D01*
X429324Y101981D02*
X426085Y98171D01*
X429895Y98171D01*
X433667Y100838D02*
X439382Y100838D01*
D11*
X215900Y6858D02*
X38100Y6858D01*
X38100Y235458D01*
X215900Y235458D01*
X215900Y6858D01*
D10*
X225383Y126556D02*
X225383Y129519D01*
X225382Y126556D02*
X225380Y126449D01*
X225374Y126342D01*
X225365Y126236D01*
X225351Y126130D01*
X225334Y126024D01*
X225313Y125919D01*
X225288Y125815D01*
X225259Y125712D01*
X225227Y125610D01*
X225191Y125509D01*
X225151Y125410D01*
X225108Y125312D01*
X225061Y125216D01*
X225011Y125121D01*
X224958Y125028D01*
X224901Y124938D01*
X224841Y124849D01*
X224778Y124763D01*
X224712Y124679D01*
X224642Y124597D01*
X224570Y124518D01*
X224495Y124442D01*
X224417Y124368D01*
X224337Y124298D01*
X224254Y124230D01*
X224169Y124165D01*
X224082Y124104D01*
X223992Y124045D01*
X223900Y123990D01*
X223807Y123938D01*
X223711Y123890D01*
X223614Y123845D01*
X223516Y123803D01*
X223416Y123766D01*
X223314Y123731D01*
X223212Y123701D01*
X223108Y123674D01*
X223004Y123651D01*
X222898Y123632D01*
X222792Y123617D01*
X222686Y123605D01*
X222579Y123597D01*
X222472Y123593D01*
X222366Y123593D01*
X222259Y123597D01*
X222152Y123605D01*
X222046Y123617D01*
X221940Y123632D01*
X221834Y123651D01*
X221730Y123674D01*
X221626Y123701D01*
X221524Y123731D01*
X221422Y123766D01*
X221322Y123803D01*
X221224Y123845D01*
X221127Y123890D01*
X221031Y123938D01*
X220938Y123990D01*
X220846Y124045D01*
X220756Y124104D01*
X220669Y124165D01*
X220584Y124230D01*
X220501Y124298D01*
X220421Y124368D01*
X220343Y124442D01*
X220268Y124518D01*
X220196Y124597D01*
X220126Y124679D01*
X220060Y124763D01*
X219997Y124849D01*
X219937Y124938D01*
X219880Y125028D01*
X219827Y125121D01*
X219777Y125216D01*
X219730Y125312D01*
X219687Y125410D01*
X219647Y125509D01*
X219611Y125610D01*
X219579Y125712D01*
X219550Y125815D01*
X219525Y125919D01*
X219504Y126024D01*
X219487Y126130D01*
X219473Y126236D01*
X219464Y126342D01*
X219458Y126449D01*
X219456Y126556D01*
X219456Y129519D01*
X230124Y129519D01*
X230124Y126556D01*
X230122Y126459D01*
X230116Y126363D01*
X230106Y126267D01*
X230092Y126171D01*
X230075Y126076D01*
X230053Y125981D01*
X230028Y125888D01*
X229999Y125796D01*
X229966Y125705D01*
X229929Y125615D01*
X229889Y125527D01*
X229845Y125441D01*
X229798Y125357D01*
X229748Y125274D01*
X229694Y125194D01*
X229636Y125116D01*
X229576Y125040D01*
X229513Y124967D01*
X229447Y124897D01*
X229377Y124829D01*
X229306Y124764D01*
X229231Y124702D01*
X229154Y124644D01*
X229075Y124588D01*
X228994Y124536D01*
X228910Y124487D01*
X228825Y124441D01*
X228738Y124399D01*
X228649Y124361D01*
X228559Y124326D01*
X228467Y124295D01*
X228374Y124268D01*
X228281Y124244D01*
X228186Y124225D01*
X228090Y124209D01*
X227994Y124197D01*
X227898Y124189D01*
X227801Y124185D01*
X227705Y124185D01*
X227608Y124189D01*
X227512Y124197D01*
X227416Y124209D01*
X227320Y124225D01*
X227225Y124244D01*
X227132Y124268D01*
X227039Y124295D01*
X226947Y124326D01*
X226857Y124361D01*
X226768Y124399D01*
X226681Y124441D01*
X226596Y124487D01*
X226512Y124536D01*
X226431Y124588D01*
X226352Y124644D01*
X226275Y124702D01*
X226200Y124764D01*
X226129Y124829D01*
X226059Y124897D01*
X225993Y124967D01*
X225930Y125040D01*
X225870Y125116D01*
X225812Y125194D01*
X225758Y125274D01*
X225708Y125357D01*
X225661Y125441D01*
X225617Y125527D01*
X225577Y125615D01*
X225540Y125705D01*
X225507Y125796D01*
X225478Y125888D01*
X225453Y125981D01*
X225431Y126076D01*
X225414Y126171D01*
X225400Y126267D01*
X225390Y126363D01*
X225384Y126459D01*
X225382Y126556D01*
X227753Y118724D02*
X230124Y115761D01*
X219456Y115761D01*
X219456Y118724D02*
X219456Y112797D01*
X34544Y177596D02*
X23876Y177596D01*
X34544Y177596D02*
X34544Y174633D01*
X34542Y174526D01*
X34536Y174419D01*
X34527Y174313D01*
X34513Y174207D01*
X34496Y174101D01*
X34475Y173996D01*
X34450Y173892D01*
X34421Y173789D01*
X34389Y173687D01*
X34353Y173586D01*
X34313Y173487D01*
X34270Y173389D01*
X34223Y173293D01*
X34173Y173198D01*
X34120Y173105D01*
X34063Y173015D01*
X34003Y172926D01*
X33940Y172840D01*
X33874Y172756D01*
X33804Y172674D01*
X33732Y172595D01*
X33657Y172519D01*
X33579Y172445D01*
X33499Y172375D01*
X33416Y172307D01*
X33331Y172242D01*
X33244Y172181D01*
X33154Y172122D01*
X33062Y172067D01*
X32969Y172015D01*
X32873Y171967D01*
X32776Y171922D01*
X32678Y171880D01*
X32578Y171843D01*
X32476Y171808D01*
X32374Y171778D01*
X32270Y171751D01*
X32166Y171728D01*
X32060Y171709D01*
X31954Y171694D01*
X31848Y171682D01*
X31741Y171674D01*
X31634Y171670D01*
X31528Y171670D01*
X31421Y171674D01*
X31314Y171682D01*
X31208Y171694D01*
X31102Y171709D01*
X30996Y171728D01*
X30892Y171751D01*
X30788Y171778D01*
X30686Y171808D01*
X30584Y171843D01*
X30484Y171880D01*
X30386Y171922D01*
X30289Y171967D01*
X30193Y172015D01*
X30099Y172067D01*
X30008Y172122D01*
X29918Y172181D01*
X29831Y172242D01*
X29746Y172307D01*
X29663Y172375D01*
X29583Y172445D01*
X29505Y172519D01*
X29430Y172595D01*
X29358Y172674D01*
X29288Y172756D01*
X29222Y172840D01*
X29159Y172926D01*
X29099Y173015D01*
X29042Y173105D01*
X28989Y173198D01*
X28939Y173293D01*
X28892Y173389D01*
X28849Y173487D01*
X28809Y173586D01*
X28773Y173687D01*
X28741Y173789D01*
X28712Y173892D01*
X28687Y173996D01*
X28666Y174101D01*
X28649Y174207D01*
X28635Y174313D01*
X28626Y174419D01*
X28620Y174526D01*
X28618Y174633D01*
X28617Y174633D02*
X28617Y177596D01*
X28617Y174040D02*
X23876Y171670D01*
X23876Y165642D02*
X34544Y165642D01*
X34544Y162679D01*
X34542Y162572D01*
X34536Y162465D01*
X34527Y162359D01*
X34513Y162253D01*
X34496Y162147D01*
X34475Y162042D01*
X34450Y161938D01*
X34421Y161835D01*
X34389Y161733D01*
X34353Y161632D01*
X34313Y161533D01*
X34270Y161435D01*
X34223Y161339D01*
X34173Y161244D01*
X34120Y161151D01*
X34063Y161061D01*
X34003Y160972D01*
X33940Y160886D01*
X33874Y160802D01*
X33804Y160720D01*
X33732Y160641D01*
X33657Y160565D01*
X33579Y160491D01*
X33499Y160421D01*
X33416Y160353D01*
X33331Y160288D01*
X33244Y160227D01*
X33154Y160168D01*
X33062Y160113D01*
X32969Y160061D01*
X32873Y160013D01*
X32776Y159968D01*
X32678Y159926D01*
X32578Y159889D01*
X32476Y159854D01*
X32374Y159824D01*
X32270Y159797D01*
X32166Y159774D01*
X32060Y159755D01*
X31954Y159740D01*
X31848Y159728D01*
X31741Y159720D01*
X31634Y159716D01*
X31528Y159716D01*
X31421Y159720D01*
X31314Y159728D01*
X31208Y159740D01*
X31102Y159755D01*
X30996Y159774D01*
X30892Y159797D01*
X30788Y159824D01*
X30686Y159854D01*
X30584Y159889D01*
X30484Y159926D01*
X30386Y159968D01*
X30289Y160013D01*
X30193Y160061D01*
X30099Y160113D01*
X30008Y160168D01*
X29918Y160227D01*
X29831Y160288D01*
X29746Y160353D01*
X29663Y160421D01*
X29583Y160491D01*
X29505Y160565D01*
X29430Y160641D01*
X29358Y160720D01*
X29288Y160802D01*
X29222Y160886D01*
X29159Y160972D01*
X29099Y161061D01*
X29042Y161151D01*
X28989Y161244D01*
X28939Y161339D01*
X28892Y161435D01*
X28849Y161533D01*
X28809Y161632D01*
X28773Y161733D01*
X28741Y161835D01*
X28712Y161938D01*
X28687Y162042D01*
X28666Y162147D01*
X28649Y162253D01*
X28635Y162359D01*
X28626Y162465D01*
X28620Y162572D01*
X28618Y162679D01*
X28617Y162679D02*
X28617Y165642D01*
X34544Y151587D02*
X34542Y151485D01*
X34536Y151383D01*
X34526Y151281D01*
X34513Y151180D01*
X34495Y151079D01*
X34474Y150979D01*
X34449Y150880D01*
X34420Y150782D01*
X34387Y150685D01*
X34351Y150590D01*
X34311Y150496D01*
X34267Y150404D01*
X34220Y150313D01*
X34169Y150224D01*
X34116Y150137D01*
X34058Y150053D01*
X33998Y149970D01*
X33935Y149890D01*
X33868Y149813D01*
X33799Y149738D01*
X33726Y149665D01*
X33651Y149596D01*
X33574Y149529D01*
X33494Y149466D01*
X33411Y149406D01*
X33327Y149348D01*
X33240Y149295D01*
X33151Y149244D01*
X33060Y149197D01*
X32968Y149153D01*
X32874Y149113D01*
X32778Y149077D01*
X32682Y149044D01*
X32584Y149015D01*
X32485Y148990D01*
X32385Y148969D01*
X32284Y148951D01*
X32183Y148938D01*
X32081Y148928D01*
X31979Y148922D01*
X31877Y148920D01*
X34544Y151587D02*
X34542Y151703D01*
X34536Y151820D01*
X34526Y151936D01*
X34512Y152051D01*
X34495Y152166D01*
X34473Y152281D01*
X34447Y152394D01*
X34418Y152507D01*
X34385Y152619D01*
X34348Y152729D01*
X34307Y152838D01*
X34263Y152946D01*
X34215Y153052D01*
X34163Y153156D01*
X34108Y153259D01*
X34050Y153360D01*
X33988Y153458D01*
X33923Y153555D01*
X33854Y153649D01*
X33782Y153741D01*
X33708Y153830D01*
X33630Y153917D01*
X33549Y154001D01*
X33466Y154082D01*
X33380Y154160D01*
X33291Y154236D01*
X33200Y154308D01*
X33106Y154377D01*
X33010Y154443D01*
X32912Y154506D01*
X32812Y154565D01*
X32710Y154621D01*
X32606Y154673D01*
X32500Y154722D01*
X32392Y154767D01*
X32284Y154809D01*
X32173Y154846D01*
X29802Y149809D02*
X29876Y149734D01*
X29953Y149662D01*
X30033Y149593D01*
X30115Y149526D01*
X30199Y149463D01*
X30286Y149403D01*
X30374Y149346D01*
X30465Y149292D01*
X30558Y149242D01*
X30652Y149195D01*
X30748Y149152D01*
X30846Y149112D01*
X30945Y149076D01*
X31045Y149043D01*
X31147Y149015D01*
X31249Y148990D01*
X31353Y148968D01*
X31457Y148951D01*
X31561Y148937D01*
X31666Y148928D01*
X31772Y148922D01*
X31877Y148920D01*
X29803Y149809D02*
X23876Y154847D01*
X23876Y148920D01*
X29210Y143417D02*
X29420Y143414D01*
X29630Y143407D01*
X29839Y143394D01*
X30048Y143377D01*
X30257Y143354D01*
X30465Y143327D01*
X30672Y143295D01*
X30879Y143257D01*
X31084Y143215D01*
X31289Y143168D01*
X31492Y143116D01*
X31694Y143059D01*
X31895Y142997D01*
X32094Y142931D01*
X32291Y142859D01*
X32487Y142783D01*
X32681Y142703D01*
X32873Y142618D01*
X33062Y142528D01*
X33147Y142497D01*
X33231Y142463D01*
X33313Y142425D01*
X33394Y142383D01*
X33473Y142338D01*
X33550Y142290D01*
X33625Y142239D01*
X33697Y142185D01*
X33768Y142128D01*
X33836Y142068D01*
X33901Y142005D01*
X33964Y141940D01*
X34024Y141872D01*
X34081Y141801D01*
X34135Y141729D01*
X34187Y141654D01*
X34235Y141577D01*
X34280Y141498D01*
X34321Y141417D01*
X34359Y141335D01*
X34394Y141251D01*
X34425Y141166D01*
X34453Y141080D01*
X34477Y140993D01*
X34497Y140904D01*
X34514Y140815D01*
X34527Y140725D01*
X34537Y140635D01*
X34542Y140545D01*
X34544Y140454D01*
X34542Y140363D01*
X34537Y140273D01*
X34527Y140183D01*
X34514Y140093D01*
X34497Y140004D01*
X34477Y139915D01*
X34453Y139828D01*
X34425Y139742D01*
X34394Y139657D01*
X34359Y139573D01*
X34321Y139491D01*
X34280Y139410D01*
X34235Y139331D01*
X34187Y139254D01*
X34136Y139179D01*
X34081Y139107D01*
X34024Y139036D01*
X33964Y138968D01*
X33901Y138903D01*
X33836Y138840D01*
X33768Y138780D01*
X33697Y138723D01*
X33625Y138669D01*
X33550Y138618D01*
X33473Y138570D01*
X33394Y138525D01*
X33313Y138483D01*
X33231Y138445D01*
X33147Y138411D01*
X33062Y138380D01*
X33062Y138379D02*
X32873Y138289D01*
X32681Y138204D01*
X32487Y138124D01*
X32291Y138048D01*
X32094Y137976D01*
X31895Y137910D01*
X31694Y137848D01*
X31492Y137791D01*
X31289Y137739D01*
X31084Y137692D01*
X30879Y137650D01*
X30672Y137612D01*
X30465Y137580D01*
X30257Y137553D01*
X30048Y137530D01*
X29839Y137513D01*
X29630Y137500D01*
X29420Y137493D01*
X29210Y137490D01*
X29210Y143417D02*
X29000Y143414D01*
X28790Y143407D01*
X28581Y143394D01*
X28372Y143377D01*
X28163Y143354D01*
X27955Y143327D01*
X27748Y143295D01*
X27541Y143257D01*
X27336Y143215D01*
X27131Y143168D01*
X26928Y143116D01*
X26726Y143059D01*
X26525Y142997D01*
X26326Y142931D01*
X26129Y142859D01*
X25933Y142783D01*
X25739Y142703D01*
X25548Y142618D01*
X25358Y142528D01*
X25273Y142497D01*
X25189Y142463D01*
X25107Y142425D01*
X25026Y142383D01*
X24947Y142338D01*
X24870Y142290D01*
X24795Y142239D01*
X24723Y142185D01*
X24652Y142128D01*
X24584Y142068D01*
X24519Y142005D01*
X24456Y141940D01*
X24396Y141872D01*
X24339Y141801D01*
X24284Y141729D01*
X24233Y141654D01*
X24185Y141577D01*
X24140Y141498D01*
X24099Y141417D01*
X24061Y141335D01*
X24026Y141251D01*
X23995Y141166D01*
X23967Y141080D01*
X23943Y140993D01*
X23923Y140904D01*
X23906Y140815D01*
X23893Y140725D01*
X23883Y140635D01*
X23878Y140545D01*
X23876Y140454D01*
X25358Y138380D02*
X25548Y138290D01*
X25739Y138205D01*
X25933Y138125D01*
X26129Y138049D01*
X26326Y137977D01*
X26525Y137911D01*
X26726Y137849D01*
X26928Y137792D01*
X27131Y137740D01*
X27336Y137693D01*
X27541Y137651D01*
X27748Y137613D01*
X27955Y137581D01*
X28163Y137554D01*
X28372Y137531D01*
X28581Y137514D01*
X28790Y137501D01*
X29000Y137494D01*
X29210Y137491D01*
X25358Y138380D02*
X25273Y138411D01*
X25189Y138445D01*
X25107Y138484D01*
X25026Y138525D01*
X24947Y138570D01*
X24870Y138618D01*
X24795Y138669D01*
X24723Y138723D01*
X24652Y138780D01*
X24584Y138840D01*
X24519Y138903D01*
X24456Y138968D01*
X24396Y139036D01*
X24339Y139107D01*
X24284Y139179D01*
X24233Y139254D01*
X24185Y139331D01*
X24140Y139410D01*
X24099Y139491D01*
X24061Y139573D01*
X24026Y139657D01*
X23995Y139742D01*
X23967Y139828D01*
X23943Y139915D01*
X23923Y140004D01*
X23906Y140093D01*
X23893Y140183D01*
X23883Y140273D01*
X23878Y140363D01*
X23876Y140454D01*
X26247Y142824D02*
X32173Y138083D01*
X26247Y131987D02*
X34544Y129616D01*
X26247Y131987D02*
X26247Y126060D01*
X28617Y127838D02*
X23876Y127838D01*
X29210Y120557D02*
X29420Y120554D01*
X29630Y120547D01*
X29839Y120534D01*
X30048Y120517D01*
X30257Y120494D01*
X30465Y120467D01*
X30672Y120435D01*
X30879Y120397D01*
X31084Y120355D01*
X31289Y120308D01*
X31492Y120256D01*
X31694Y120199D01*
X31895Y120137D01*
X32094Y120071D01*
X32291Y119999D01*
X32487Y119923D01*
X32681Y119843D01*
X32873Y119758D01*
X33062Y119668D01*
X33147Y119637D01*
X33231Y119603D01*
X33313Y119565D01*
X33394Y119523D01*
X33473Y119478D01*
X33550Y119430D01*
X33625Y119379D01*
X33697Y119325D01*
X33768Y119268D01*
X33836Y119208D01*
X33901Y119145D01*
X33964Y119080D01*
X34024Y119012D01*
X34081Y118941D01*
X34135Y118869D01*
X34187Y118794D01*
X34235Y118717D01*
X34280Y118638D01*
X34321Y118557D01*
X34359Y118475D01*
X34394Y118391D01*
X34425Y118306D01*
X34453Y118220D01*
X34477Y118133D01*
X34497Y118044D01*
X34514Y117955D01*
X34527Y117865D01*
X34537Y117775D01*
X34542Y117685D01*
X34544Y117594D01*
X34542Y117503D01*
X34537Y117413D01*
X34527Y117323D01*
X34514Y117233D01*
X34497Y117144D01*
X34477Y117055D01*
X34453Y116968D01*
X34425Y116882D01*
X34394Y116797D01*
X34359Y116713D01*
X34321Y116631D01*
X34280Y116550D01*
X34235Y116471D01*
X34187Y116394D01*
X34136Y116319D01*
X34081Y116247D01*
X34024Y116176D01*
X33964Y116108D01*
X33901Y116043D01*
X33836Y115980D01*
X33768Y115920D01*
X33697Y115863D01*
X33625Y115809D01*
X33550Y115758D01*
X33473Y115710D01*
X33394Y115665D01*
X33313Y115623D01*
X33231Y115585D01*
X33147Y115551D01*
X33062Y115520D01*
X32873Y115430D01*
X32681Y115345D01*
X32487Y115265D01*
X32291Y115189D01*
X32094Y115117D01*
X31895Y115051D01*
X31694Y114989D01*
X31492Y114932D01*
X31289Y114880D01*
X31084Y114833D01*
X30879Y114791D01*
X30672Y114753D01*
X30465Y114721D01*
X30257Y114694D01*
X30048Y114671D01*
X29839Y114654D01*
X29630Y114641D01*
X29420Y114634D01*
X29210Y114631D01*
X29210Y120557D02*
X29000Y120554D01*
X28790Y120547D01*
X28581Y120534D01*
X28372Y120517D01*
X28163Y120494D01*
X27955Y120467D01*
X27748Y120435D01*
X27541Y120397D01*
X27336Y120355D01*
X27131Y120308D01*
X26928Y120256D01*
X26726Y120199D01*
X26525Y120137D01*
X26326Y120071D01*
X26129Y119999D01*
X25933Y119923D01*
X25739Y119843D01*
X25548Y119758D01*
X25358Y119668D01*
X25273Y119637D01*
X25189Y119603D01*
X25107Y119565D01*
X25026Y119523D01*
X24947Y119478D01*
X24870Y119430D01*
X24795Y119379D01*
X24723Y119325D01*
X24652Y119268D01*
X24584Y119208D01*
X24519Y119145D01*
X24456Y119080D01*
X24396Y119012D01*
X24339Y118941D01*
X24284Y118869D01*
X24233Y118794D01*
X24185Y118717D01*
X24140Y118638D01*
X24099Y118557D01*
X24061Y118475D01*
X24026Y118391D01*
X23995Y118306D01*
X23967Y118220D01*
X23943Y118133D01*
X23923Y118044D01*
X23906Y117955D01*
X23893Y117865D01*
X23883Y117775D01*
X23878Y117685D01*
X23876Y117594D01*
X25358Y115520D02*
X25548Y115430D01*
X25739Y115345D01*
X25933Y115265D01*
X26129Y115189D01*
X26326Y115117D01*
X26525Y115051D01*
X26726Y114989D01*
X26928Y114932D01*
X27131Y114880D01*
X27336Y114833D01*
X27541Y114791D01*
X27748Y114753D01*
X27955Y114721D01*
X28163Y114694D01*
X28372Y114671D01*
X28581Y114654D01*
X28790Y114641D01*
X29000Y114634D01*
X29210Y114631D01*
X25358Y115520D02*
X25273Y115551D01*
X25189Y115585D01*
X25107Y115624D01*
X25026Y115665D01*
X24947Y115710D01*
X24870Y115758D01*
X24795Y115809D01*
X24723Y115863D01*
X24652Y115920D01*
X24584Y115980D01*
X24519Y116043D01*
X24456Y116108D01*
X24396Y116176D01*
X24339Y116247D01*
X24284Y116319D01*
X24233Y116394D01*
X24185Y116471D01*
X24140Y116550D01*
X24099Y116631D01*
X24061Y116713D01*
X24026Y116797D01*
X23995Y116882D01*
X23967Y116968D01*
X23943Y117055D01*
X23923Y117144D01*
X23906Y117233D01*
X23893Y117323D01*
X23883Y117413D01*
X23878Y117503D01*
X23876Y117594D01*
X26247Y119964D02*
X32173Y115223D01*
X34544Y103412D02*
X34544Y97485D01*
X23876Y103412D01*
X23876Y97485D01*
X23876Y91948D02*
X23876Y87207D01*
X23876Y91948D02*
X34544Y91948D01*
X34544Y87207D01*
X29803Y88392D02*
X29803Y91948D01*
X34544Y81966D02*
X23876Y81966D01*
X34544Y81966D02*
X34544Y79002D01*
X34542Y78895D01*
X34536Y78788D01*
X34527Y78682D01*
X34513Y78576D01*
X34496Y78470D01*
X34475Y78365D01*
X34450Y78261D01*
X34421Y78158D01*
X34389Y78056D01*
X34353Y77955D01*
X34313Y77856D01*
X34270Y77758D01*
X34223Y77662D01*
X34173Y77567D01*
X34120Y77474D01*
X34063Y77384D01*
X34003Y77295D01*
X33940Y77209D01*
X33874Y77125D01*
X33804Y77043D01*
X33732Y76964D01*
X33657Y76888D01*
X33579Y76814D01*
X33499Y76744D01*
X33416Y76676D01*
X33331Y76611D01*
X33244Y76550D01*
X33154Y76491D01*
X33062Y76436D01*
X32969Y76384D01*
X32873Y76336D01*
X32776Y76291D01*
X32678Y76249D01*
X32578Y76212D01*
X32476Y76177D01*
X32374Y76147D01*
X32270Y76120D01*
X32166Y76097D01*
X32060Y76078D01*
X31954Y76063D01*
X31848Y76051D01*
X31741Y76043D01*
X31634Y76039D01*
X31528Y76039D01*
X31421Y76043D01*
X31314Y76051D01*
X31208Y76063D01*
X31102Y76078D01*
X30996Y76097D01*
X30892Y76120D01*
X30788Y76147D01*
X30686Y76177D01*
X30584Y76212D01*
X30484Y76249D01*
X30386Y76291D01*
X30289Y76336D01*
X30193Y76384D01*
X30099Y76436D01*
X30008Y76491D01*
X29918Y76550D01*
X29831Y76611D01*
X29746Y76676D01*
X29663Y76744D01*
X29583Y76814D01*
X29505Y76888D01*
X29430Y76964D01*
X29358Y77043D01*
X29288Y77125D01*
X29222Y77209D01*
X29159Y77295D01*
X29099Y77384D01*
X29042Y77474D01*
X28989Y77567D01*
X28939Y77662D01*
X28892Y77758D01*
X28849Y77856D01*
X28809Y77955D01*
X28773Y78056D01*
X28741Y78158D01*
X28712Y78261D01*
X28687Y78365D01*
X28666Y78470D01*
X28649Y78576D01*
X28635Y78682D01*
X28626Y78788D01*
X28620Y78895D01*
X28618Y79002D01*
X28617Y79002D02*
X28617Y81966D01*
X28617Y78410D02*
X23876Y76039D01*
X26839Y70646D02*
X31581Y70646D01*
X31688Y70644D01*
X31795Y70638D01*
X31901Y70629D01*
X32007Y70615D01*
X32113Y70598D01*
X32218Y70577D01*
X32322Y70552D01*
X32425Y70523D01*
X32527Y70491D01*
X32628Y70455D01*
X32727Y70415D01*
X32825Y70372D01*
X32921Y70325D01*
X33016Y70275D01*
X33109Y70222D01*
X33199Y70165D01*
X33288Y70105D01*
X33374Y70042D01*
X33458Y69976D01*
X33540Y69906D01*
X33619Y69834D01*
X33695Y69759D01*
X33769Y69681D01*
X33839Y69601D01*
X33907Y69518D01*
X33972Y69433D01*
X34033Y69346D01*
X34092Y69256D01*
X34147Y69164D01*
X34199Y69071D01*
X34247Y68975D01*
X34292Y68878D01*
X34334Y68780D01*
X34371Y68680D01*
X34406Y68578D01*
X34436Y68476D01*
X34463Y68372D01*
X34486Y68268D01*
X34505Y68162D01*
X34520Y68056D01*
X34532Y67950D01*
X34540Y67843D01*
X34544Y67736D01*
X34544Y67630D01*
X34540Y67523D01*
X34532Y67416D01*
X34520Y67310D01*
X34505Y67204D01*
X34486Y67098D01*
X34463Y66994D01*
X34436Y66890D01*
X34406Y66788D01*
X34371Y66686D01*
X34334Y66586D01*
X34292Y66488D01*
X34247Y66391D01*
X34199Y66295D01*
X34147Y66201D01*
X34092Y66110D01*
X34033Y66020D01*
X33972Y65933D01*
X33907Y65848D01*
X33839Y65765D01*
X33769Y65685D01*
X33695Y65607D01*
X33619Y65532D01*
X33540Y65460D01*
X33458Y65390D01*
X33374Y65324D01*
X33288Y65261D01*
X33199Y65201D01*
X33109Y65144D01*
X33016Y65091D01*
X32921Y65041D01*
X32825Y64994D01*
X32727Y64951D01*
X32628Y64911D01*
X32527Y64875D01*
X32425Y64843D01*
X32322Y64814D01*
X32218Y64789D01*
X32113Y64768D01*
X32007Y64751D01*
X31901Y64737D01*
X31795Y64728D01*
X31688Y64722D01*
X31581Y64720D01*
X26839Y64720D01*
X26732Y64722D01*
X26625Y64728D01*
X26519Y64737D01*
X26413Y64751D01*
X26307Y64768D01*
X26202Y64789D01*
X26098Y64814D01*
X25995Y64843D01*
X25893Y64875D01*
X25792Y64911D01*
X25693Y64951D01*
X25595Y64994D01*
X25499Y65041D01*
X25404Y65091D01*
X25311Y65144D01*
X25221Y65201D01*
X25132Y65261D01*
X25046Y65324D01*
X24962Y65390D01*
X24880Y65460D01*
X24801Y65532D01*
X24725Y65607D01*
X24651Y65685D01*
X24581Y65765D01*
X24513Y65848D01*
X24448Y65933D01*
X24387Y66020D01*
X24328Y66110D01*
X24273Y66202D01*
X24221Y66295D01*
X24173Y66391D01*
X24128Y66488D01*
X24086Y66586D01*
X24049Y66686D01*
X24014Y66788D01*
X23984Y66890D01*
X23957Y66994D01*
X23934Y67098D01*
X23915Y67204D01*
X23900Y67310D01*
X23888Y67416D01*
X23880Y67523D01*
X23876Y67630D01*
X23876Y67736D01*
X23880Y67843D01*
X23888Y67950D01*
X23900Y68056D01*
X23915Y68162D01*
X23934Y68268D01*
X23957Y68372D01*
X23984Y68476D01*
X24014Y68578D01*
X24049Y68680D01*
X24086Y68780D01*
X24128Y68878D01*
X24173Y68975D01*
X24221Y69071D01*
X24273Y69165D01*
X24328Y69256D01*
X24387Y69346D01*
X24448Y69433D01*
X24513Y69518D01*
X24581Y69601D01*
X24651Y69681D01*
X24725Y69759D01*
X24801Y69834D01*
X24880Y69906D01*
X24962Y69976D01*
X25046Y70042D01*
X25132Y70105D01*
X25221Y70165D01*
X25311Y70222D01*
X25404Y70275D01*
X25499Y70325D01*
X25595Y70372D01*
X25693Y70415D01*
X25792Y70455D01*
X25893Y70491D01*
X25995Y70523D01*
X26098Y70552D01*
X26202Y70577D01*
X26307Y70598D01*
X26413Y70615D01*
X26519Y70629D01*
X26625Y70638D01*
X26732Y70644D01*
X26839Y70646D01*
D11*
X411892Y32258D02*
X411892Y235458D01*
X411892Y32258D02*
X259492Y32258D01*
X259492Y235458D01*
X411892Y235458D01*
D10*
X330295Y244941D02*
X327331Y244941D01*
X330295Y244940D02*
X330402Y244938D01*
X330509Y244932D01*
X330615Y244923D01*
X330721Y244909D01*
X330827Y244892D01*
X330932Y244871D01*
X331036Y244846D01*
X331139Y244817D01*
X331241Y244785D01*
X331342Y244749D01*
X331441Y244709D01*
X331539Y244666D01*
X331635Y244619D01*
X331730Y244569D01*
X331823Y244516D01*
X331913Y244459D01*
X332002Y244399D01*
X332088Y244336D01*
X332172Y244270D01*
X332254Y244200D01*
X332333Y244128D01*
X332409Y244053D01*
X332483Y243975D01*
X332553Y243895D01*
X332621Y243812D01*
X332686Y243727D01*
X332747Y243640D01*
X332806Y243550D01*
X332861Y243458D01*
X332913Y243365D01*
X332961Y243269D01*
X333006Y243172D01*
X333048Y243074D01*
X333085Y242974D01*
X333120Y242872D01*
X333150Y242770D01*
X333177Y242666D01*
X333200Y242562D01*
X333219Y242456D01*
X333234Y242350D01*
X333246Y242244D01*
X333254Y242137D01*
X333258Y242030D01*
X333258Y241924D01*
X333254Y241817D01*
X333246Y241710D01*
X333234Y241604D01*
X333219Y241498D01*
X333200Y241392D01*
X333177Y241288D01*
X333150Y241184D01*
X333120Y241082D01*
X333085Y240980D01*
X333048Y240880D01*
X333006Y240782D01*
X332961Y240685D01*
X332913Y240589D01*
X332861Y240496D01*
X332806Y240404D01*
X332747Y240314D01*
X332686Y240227D01*
X332621Y240142D01*
X332553Y240059D01*
X332483Y239979D01*
X332409Y239901D01*
X332333Y239826D01*
X332254Y239754D01*
X332172Y239684D01*
X332088Y239618D01*
X332002Y239555D01*
X331913Y239495D01*
X331823Y239438D01*
X331730Y239385D01*
X331635Y239335D01*
X331539Y239288D01*
X331441Y239245D01*
X331342Y239205D01*
X331241Y239169D01*
X331139Y239137D01*
X331036Y239108D01*
X330932Y239083D01*
X330827Y239062D01*
X330721Y239045D01*
X330615Y239031D01*
X330509Y239022D01*
X330402Y239016D01*
X330295Y239014D01*
X327331Y239014D01*
X327331Y249682D01*
X330295Y249682D01*
X330392Y249680D01*
X330488Y249674D01*
X330584Y249664D01*
X330680Y249650D01*
X330775Y249633D01*
X330870Y249611D01*
X330963Y249586D01*
X331055Y249557D01*
X331146Y249524D01*
X331236Y249487D01*
X331324Y249447D01*
X331410Y249403D01*
X331494Y249356D01*
X331577Y249306D01*
X331657Y249252D01*
X331735Y249194D01*
X331811Y249134D01*
X331884Y249071D01*
X331954Y249005D01*
X332022Y248935D01*
X332087Y248864D01*
X332149Y248789D01*
X332207Y248712D01*
X332263Y248633D01*
X332315Y248552D01*
X332364Y248468D01*
X332410Y248383D01*
X332452Y248296D01*
X332490Y248207D01*
X332525Y248117D01*
X332556Y248025D01*
X332583Y247932D01*
X332607Y247839D01*
X332626Y247744D01*
X332642Y247648D01*
X332654Y247552D01*
X332662Y247456D01*
X332666Y247359D01*
X332666Y247263D01*
X332662Y247166D01*
X332654Y247070D01*
X332642Y246974D01*
X332626Y246878D01*
X332607Y246783D01*
X332583Y246690D01*
X332556Y246597D01*
X332525Y246505D01*
X332490Y246415D01*
X332452Y246326D01*
X332410Y246239D01*
X332364Y246154D01*
X332315Y246070D01*
X332263Y245989D01*
X332207Y245910D01*
X332149Y245833D01*
X332087Y245758D01*
X332022Y245687D01*
X331954Y245617D01*
X331884Y245551D01*
X331811Y245488D01*
X331735Y245428D01*
X331657Y245370D01*
X331577Y245316D01*
X331494Y245266D01*
X331410Y245219D01*
X331324Y245175D01*
X331236Y245135D01*
X331146Y245098D01*
X331055Y245065D01*
X330963Y245036D01*
X330870Y245011D01*
X330775Y244989D01*
X330680Y244972D01*
X330584Y244958D01*
X330488Y244948D01*
X330392Y244942D01*
X330295Y244940D01*
X341386Y249682D02*
X341488Y249680D01*
X341590Y249674D01*
X341692Y249664D01*
X341793Y249651D01*
X341894Y249633D01*
X341994Y249612D01*
X342093Y249587D01*
X342191Y249558D01*
X342287Y249525D01*
X342383Y249489D01*
X342477Y249449D01*
X342569Y249405D01*
X342660Y249358D01*
X342749Y249307D01*
X342836Y249254D01*
X342920Y249196D01*
X343003Y249136D01*
X343083Y249073D01*
X343160Y249006D01*
X343235Y248937D01*
X343308Y248864D01*
X343377Y248789D01*
X343444Y248712D01*
X343507Y248632D01*
X343567Y248549D01*
X343625Y248465D01*
X343678Y248378D01*
X343729Y248289D01*
X343776Y248198D01*
X343820Y248106D01*
X343860Y248012D01*
X343896Y247916D01*
X343929Y247820D01*
X343958Y247722D01*
X343983Y247623D01*
X344004Y247523D01*
X344022Y247422D01*
X344035Y247321D01*
X344045Y247219D01*
X344051Y247117D01*
X344053Y247015D01*
X341386Y249682D02*
X341270Y249680D01*
X341153Y249674D01*
X341037Y249664D01*
X340922Y249650D01*
X340807Y249633D01*
X340692Y249611D01*
X340579Y249585D01*
X340466Y249556D01*
X340354Y249523D01*
X340244Y249486D01*
X340135Y249445D01*
X340027Y249401D01*
X339921Y249353D01*
X339817Y249301D01*
X339714Y249246D01*
X339613Y249188D01*
X339515Y249126D01*
X339418Y249061D01*
X339324Y248992D01*
X339232Y248920D01*
X339143Y248846D01*
X339056Y248768D01*
X338972Y248687D01*
X338891Y248604D01*
X338813Y248518D01*
X338737Y248429D01*
X338665Y248338D01*
X338596Y248244D01*
X338530Y248148D01*
X338467Y248050D01*
X338408Y247950D01*
X338352Y247848D01*
X338300Y247744D01*
X338251Y247638D01*
X338206Y247531D01*
X338164Y247422D01*
X338127Y247312D01*
X343164Y244940D02*
X343239Y245014D01*
X343311Y245091D01*
X343380Y245171D01*
X343447Y245253D01*
X343510Y245337D01*
X343570Y245424D01*
X343627Y245512D01*
X343681Y245603D01*
X343731Y245696D01*
X343778Y245790D01*
X343821Y245886D01*
X343861Y245984D01*
X343897Y246083D01*
X343930Y246183D01*
X343958Y246285D01*
X343983Y246387D01*
X344005Y246491D01*
X344022Y246595D01*
X344036Y246699D01*
X344045Y246804D01*
X344051Y246910D01*
X344053Y247015D01*
X343164Y244941D02*
X338126Y239014D01*
X344053Y239014D01*
X268996Y20405D02*
X268994Y20310D01*
X268988Y20214D01*
X268979Y20119D01*
X268965Y20025D01*
X268948Y19931D01*
X268927Y19838D01*
X268902Y19745D01*
X268874Y19654D01*
X268842Y19564D01*
X268806Y19476D01*
X268767Y19389D01*
X268724Y19303D01*
X268678Y19220D01*
X268629Y19138D01*
X268576Y19058D01*
X268520Y18981D01*
X268462Y18905D01*
X268400Y18833D01*
X268335Y18763D01*
X268267Y18695D01*
X268197Y18630D01*
X268125Y18568D01*
X268049Y18510D01*
X267972Y18454D01*
X267892Y18401D01*
X267811Y18352D01*
X267727Y18306D01*
X267641Y18263D01*
X267554Y18224D01*
X267466Y18188D01*
X267376Y18156D01*
X267285Y18128D01*
X267192Y18103D01*
X267099Y18082D01*
X267005Y18065D01*
X266911Y18051D01*
X266816Y18042D01*
X266721Y18036D01*
X266625Y18034D01*
X266489Y18036D01*
X266352Y18041D01*
X266216Y18051D01*
X266081Y18064D01*
X265945Y18080D01*
X265811Y18101D01*
X265676Y18125D01*
X265543Y18152D01*
X265410Y18184D01*
X265278Y18218D01*
X265147Y18257D01*
X265018Y18299D01*
X264889Y18344D01*
X264762Y18393D01*
X264636Y18446D01*
X264512Y18502D01*
X264389Y18561D01*
X264268Y18623D01*
X264148Y18689D01*
X264031Y18758D01*
X263915Y18831D01*
X263801Y18906D01*
X263690Y18984D01*
X263580Y19066D01*
X263473Y19150D01*
X263369Y19237D01*
X263266Y19327D01*
X263166Y19420D01*
X263069Y19516D01*
X263366Y26331D02*
X263368Y26426D01*
X263374Y26522D01*
X263383Y26617D01*
X263397Y26711D01*
X263414Y26805D01*
X263435Y26898D01*
X263460Y26991D01*
X263488Y27082D01*
X263520Y27172D01*
X263556Y27260D01*
X263595Y27347D01*
X263638Y27433D01*
X263684Y27517D01*
X263733Y27598D01*
X263786Y27678D01*
X263842Y27755D01*
X263900Y27831D01*
X263962Y27903D01*
X264027Y27973D01*
X264095Y28041D01*
X264165Y28106D01*
X264237Y28168D01*
X264313Y28226D01*
X264390Y28282D01*
X264470Y28335D01*
X264552Y28384D01*
X264635Y28430D01*
X264721Y28473D01*
X264808Y28512D01*
X264896Y28548D01*
X264986Y28580D01*
X265077Y28608D01*
X265170Y28633D01*
X265263Y28654D01*
X265357Y28671D01*
X265451Y28685D01*
X265546Y28694D01*
X265642Y28700D01*
X265737Y28702D01*
X265867Y28700D01*
X265997Y28694D01*
X266127Y28685D01*
X266256Y28672D01*
X266385Y28655D01*
X266513Y28634D01*
X266641Y28609D01*
X266768Y28581D01*
X266894Y28549D01*
X267019Y28513D01*
X267143Y28474D01*
X267265Y28431D01*
X267387Y28385D01*
X267507Y28334D01*
X267625Y28281D01*
X267742Y28224D01*
X267857Y28164D01*
X267971Y28100D01*
X268082Y28033D01*
X268192Y27963D01*
X268299Y27889D01*
X268404Y27813D01*
X264551Y24256D02*
X264469Y24307D01*
X264389Y24361D01*
X264311Y24417D01*
X264236Y24477D01*
X264163Y24540D01*
X264093Y24606D01*
X264026Y24674D01*
X263961Y24745D01*
X263899Y24819D01*
X263840Y24895D01*
X263784Y24973D01*
X263732Y25054D01*
X263682Y25136D01*
X263636Y25221D01*
X263594Y25307D01*
X263554Y25395D01*
X263519Y25484D01*
X263487Y25575D01*
X263458Y25667D01*
X263434Y25760D01*
X263413Y25853D01*
X263396Y25948D01*
X263382Y26043D01*
X263373Y26139D01*
X263367Y26235D01*
X263365Y26331D01*
X267811Y22480D02*
X267892Y22429D01*
X267972Y22375D01*
X268050Y22319D01*
X268125Y22259D01*
X268198Y22196D01*
X268268Y22130D01*
X268335Y22062D01*
X268400Y21991D01*
X268462Y21917D01*
X268521Y21841D01*
X268577Y21763D01*
X268629Y21682D01*
X268679Y21600D01*
X268725Y21515D01*
X268767Y21429D01*
X268807Y21341D01*
X268842Y21252D01*
X268874Y21161D01*
X268903Y21069D01*
X268927Y20976D01*
X268948Y20883D01*
X268965Y20788D01*
X268979Y20693D01*
X268988Y20597D01*
X268994Y20501D01*
X268996Y20405D01*
X267811Y22479D02*
X264551Y24257D01*
X274796Y28702D02*
X274796Y18034D01*
X275981Y18034D02*
X273610Y18034D01*
X273610Y28702D02*
X275981Y28702D01*
X281391Y28702D02*
X281391Y18034D01*
X286133Y18034D01*
X291297Y18034D02*
X296039Y18034D01*
X291297Y18034D02*
X291297Y28702D01*
X296039Y28702D01*
X294853Y23961D02*
X291297Y23961D01*
X301169Y28702D02*
X301169Y18034D01*
X307096Y18034D02*
X301169Y28702D01*
X307096Y28702D02*
X307096Y18034D01*
X315182Y18034D02*
X315182Y28702D01*
X318145Y28702D02*
X312218Y28702D01*
X326061Y18034D02*
X326157Y18036D01*
X326252Y18042D01*
X326347Y18051D01*
X326441Y18065D01*
X326535Y18082D01*
X326628Y18103D01*
X326721Y18128D01*
X326812Y18156D01*
X326902Y18188D01*
X326990Y18224D01*
X327077Y18263D01*
X327163Y18306D01*
X327247Y18352D01*
X327328Y18401D01*
X327408Y18454D01*
X327485Y18510D01*
X327561Y18568D01*
X327633Y18630D01*
X327703Y18695D01*
X327771Y18763D01*
X327836Y18833D01*
X327898Y18905D01*
X327956Y18981D01*
X328012Y19058D01*
X328065Y19138D01*
X328114Y19220D01*
X328160Y19303D01*
X328203Y19389D01*
X328242Y19476D01*
X328278Y19564D01*
X328310Y19654D01*
X328338Y19745D01*
X328363Y19838D01*
X328384Y19931D01*
X328401Y20025D01*
X328415Y20119D01*
X328424Y20214D01*
X328430Y20310D01*
X328432Y20405D01*
X326061Y18034D02*
X325925Y18036D01*
X325788Y18041D01*
X325652Y18051D01*
X325517Y18064D01*
X325381Y18080D01*
X325247Y18101D01*
X325112Y18125D01*
X324979Y18152D01*
X324846Y18184D01*
X324714Y18218D01*
X324583Y18257D01*
X324454Y18299D01*
X324325Y18344D01*
X324198Y18393D01*
X324072Y18446D01*
X323948Y18502D01*
X323825Y18561D01*
X323704Y18623D01*
X323584Y18689D01*
X323467Y18758D01*
X323351Y18831D01*
X323237Y18906D01*
X323126Y18984D01*
X323016Y19066D01*
X322909Y19150D01*
X322805Y19237D01*
X322702Y19327D01*
X322602Y19420D01*
X322505Y19516D01*
X322801Y26331D02*
X322803Y26426D01*
X322809Y26522D01*
X322818Y26617D01*
X322832Y26711D01*
X322849Y26805D01*
X322870Y26898D01*
X322895Y26991D01*
X322923Y27082D01*
X322955Y27172D01*
X322991Y27260D01*
X323030Y27347D01*
X323073Y27433D01*
X323119Y27517D01*
X323168Y27598D01*
X323221Y27678D01*
X323277Y27755D01*
X323335Y27831D01*
X323397Y27903D01*
X323462Y27973D01*
X323530Y28041D01*
X323600Y28106D01*
X323672Y28168D01*
X323748Y28226D01*
X323825Y28282D01*
X323905Y28335D01*
X323987Y28384D01*
X324070Y28430D01*
X324156Y28473D01*
X324243Y28512D01*
X324331Y28548D01*
X324421Y28580D01*
X324512Y28608D01*
X324605Y28633D01*
X324698Y28654D01*
X324792Y28671D01*
X324886Y28685D01*
X324981Y28694D01*
X325077Y28700D01*
X325172Y28702D01*
X325302Y28700D01*
X325432Y28694D01*
X325562Y28685D01*
X325691Y28672D01*
X325820Y28655D01*
X325948Y28634D01*
X326076Y28609D01*
X326203Y28581D01*
X326329Y28549D01*
X326454Y28513D01*
X326578Y28474D01*
X326700Y28431D01*
X326822Y28385D01*
X326942Y28334D01*
X327060Y28281D01*
X327177Y28224D01*
X327292Y28164D01*
X327406Y28100D01*
X327517Y28033D01*
X327627Y27963D01*
X327734Y27889D01*
X327839Y27813D01*
X323987Y24256D02*
X323905Y24307D01*
X323825Y24361D01*
X323747Y24417D01*
X323672Y24477D01*
X323599Y24540D01*
X323529Y24606D01*
X323462Y24674D01*
X323397Y24745D01*
X323335Y24819D01*
X323276Y24895D01*
X323220Y24973D01*
X323168Y25054D01*
X323118Y25136D01*
X323072Y25221D01*
X323030Y25307D01*
X322990Y25395D01*
X322955Y25484D01*
X322923Y25575D01*
X322894Y25667D01*
X322870Y25760D01*
X322849Y25853D01*
X322832Y25948D01*
X322818Y26043D01*
X322809Y26139D01*
X322803Y26235D01*
X322801Y26331D01*
X327247Y22480D02*
X327328Y22429D01*
X327408Y22375D01*
X327486Y22319D01*
X327561Y22259D01*
X327634Y22196D01*
X327704Y22130D01*
X327771Y22062D01*
X327836Y21991D01*
X327898Y21917D01*
X327957Y21841D01*
X328013Y21763D01*
X328065Y21682D01*
X328115Y21600D01*
X328161Y21515D01*
X328203Y21429D01*
X328243Y21341D01*
X328278Y21252D01*
X328310Y21161D01*
X328339Y21069D01*
X328363Y20976D01*
X328384Y20883D01*
X328401Y20788D01*
X328415Y20693D01*
X328424Y20597D01*
X328430Y20501D01*
X328432Y20405D01*
X327247Y22479D02*
X323987Y24257D01*
X335756Y28702D02*
X335756Y18034D01*
X338719Y28702D02*
X332792Y28702D01*
X343875Y18034D02*
X348616Y18034D01*
X343875Y18034D02*
X343875Y28702D01*
X348616Y28702D01*
X347431Y23961D02*
X343875Y23961D01*
X354001Y28702D02*
X354001Y18034D01*
X354001Y28702D02*
X356965Y28702D01*
X357072Y28700D01*
X357179Y28694D01*
X357285Y28685D01*
X357391Y28671D01*
X357497Y28654D01*
X357602Y28633D01*
X357706Y28608D01*
X357809Y28579D01*
X357911Y28547D01*
X358012Y28511D01*
X358111Y28471D01*
X358209Y28428D01*
X358305Y28381D01*
X358400Y28331D01*
X358493Y28278D01*
X358583Y28221D01*
X358672Y28161D01*
X358758Y28098D01*
X358842Y28032D01*
X358924Y27962D01*
X359003Y27890D01*
X359079Y27815D01*
X359153Y27737D01*
X359223Y27657D01*
X359291Y27574D01*
X359356Y27489D01*
X359417Y27402D01*
X359476Y27312D01*
X359531Y27220D01*
X359583Y27127D01*
X359631Y27031D01*
X359676Y26934D01*
X359718Y26836D01*
X359755Y26736D01*
X359790Y26634D01*
X359820Y26532D01*
X359847Y26428D01*
X359870Y26324D01*
X359889Y26218D01*
X359904Y26112D01*
X359916Y26006D01*
X359924Y25899D01*
X359928Y25792D01*
X359928Y25686D01*
X359924Y25579D01*
X359916Y25472D01*
X359904Y25366D01*
X359889Y25260D01*
X359870Y25154D01*
X359847Y25050D01*
X359820Y24946D01*
X359790Y24844D01*
X359755Y24742D01*
X359718Y24642D01*
X359676Y24544D01*
X359631Y24447D01*
X359583Y24351D01*
X359531Y24257D01*
X359476Y24166D01*
X359417Y24076D01*
X359356Y23989D01*
X359291Y23904D01*
X359223Y23821D01*
X359153Y23741D01*
X359079Y23663D01*
X359003Y23588D01*
X358924Y23516D01*
X358842Y23446D01*
X358758Y23380D01*
X358672Y23317D01*
X358583Y23257D01*
X358493Y23200D01*
X358400Y23147D01*
X358305Y23097D01*
X358209Y23050D01*
X358111Y23007D01*
X358012Y22967D01*
X357911Y22931D01*
X357809Y22899D01*
X357706Y22870D01*
X357602Y22845D01*
X357497Y22824D01*
X357391Y22807D01*
X357285Y22793D01*
X357179Y22784D01*
X357072Y22778D01*
X356965Y22776D01*
X356965Y22775D02*
X354001Y22775D01*
X367971Y18034D02*
X368067Y18036D01*
X368162Y18042D01*
X368257Y18051D01*
X368351Y18065D01*
X368445Y18082D01*
X368538Y18103D01*
X368631Y18128D01*
X368722Y18156D01*
X368812Y18188D01*
X368900Y18224D01*
X368987Y18263D01*
X369073Y18306D01*
X369157Y18352D01*
X369238Y18401D01*
X369318Y18454D01*
X369395Y18510D01*
X369471Y18568D01*
X369543Y18630D01*
X369613Y18695D01*
X369681Y18763D01*
X369746Y18833D01*
X369808Y18905D01*
X369866Y18981D01*
X369922Y19058D01*
X369975Y19138D01*
X370024Y19220D01*
X370070Y19303D01*
X370113Y19389D01*
X370152Y19476D01*
X370188Y19564D01*
X370220Y19654D01*
X370248Y19745D01*
X370273Y19838D01*
X370294Y19931D01*
X370311Y20025D01*
X370325Y20119D01*
X370334Y20214D01*
X370340Y20310D01*
X370342Y20405D01*
X367971Y18034D02*
X367835Y18036D01*
X367698Y18041D01*
X367562Y18051D01*
X367427Y18064D01*
X367291Y18080D01*
X367157Y18101D01*
X367022Y18125D01*
X366889Y18152D01*
X366756Y18184D01*
X366624Y18218D01*
X366493Y18257D01*
X366364Y18299D01*
X366235Y18344D01*
X366108Y18393D01*
X365982Y18446D01*
X365858Y18502D01*
X365735Y18561D01*
X365614Y18623D01*
X365494Y18689D01*
X365377Y18758D01*
X365261Y18831D01*
X365147Y18906D01*
X365036Y18984D01*
X364926Y19066D01*
X364819Y19150D01*
X364715Y19237D01*
X364612Y19327D01*
X364512Y19420D01*
X364415Y19516D01*
X364711Y26331D02*
X364713Y26426D01*
X364719Y26522D01*
X364728Y26617D01*
X364742Y26711D01*
X364759Y26805D01*
X364780Y26898D01*
X364805Y26991D01*
X364833Y27082D01*
X364865Y27172D01*
X364901Y27260D01*
X364940Y27347D01*
X364983Y27433D01*
X365029Y27517D01*
X365078Y27598D01*
X365131Y27678D01*
X365187Y27755D01*
X365245Y27831D01*
X365307Y27903D01*
X365372Y27973D01*
X365440Y28041D01*
X365510Y28106D01*
X365582Y28168D01*
X365658Y28226D01*
X365735Y28282D01*
X365815Y28335D01*
X365897Y28384D01*
X365980Y28430D01*
X366066Y28473D01*
X366153Y28512D01*
X366241Y28548D01*
X366331Y28580D01*
X366422Y28608D01*
X366515Y28633D01*
X366608Y28654D01*
X366702Y28671D01*
X366796Y28685D01*
X366891Y28694D01*
X366987Y28700D01*
X367082Y28702D01*
X367212Y28700D01*
X367342Y28694D01*
X367472Y28685D01*
X367601Y28672D01*
X367730Y28655D01*
X367858Y28634D01*
X367986Y28609D01*
X368113Y28581D01*
X368239Y28549D01*
X368364Y28513D01*
X368488Y28474D01*
X368610Y28431D01*
X368732Y28385D01*
X368852Y28334D01*
X368970Y28281D01*
X369087Y28224D01*
X369202Y28164D01*
X369316Y28100D01*
X369427Y28033D01*
X369537Y27963D01*
X369644Y27889D01*
X369749Y27813D01*
X365897Y24256D02*
X365815Y24307D01*
X365735Y24361D01*
X365657Y24417D01*
X365582Y24477D01*
X365509Y24540D01*
X365439Y24606D01*
X365372Y24674D01*
X365307Y24745D01*
X365245Y24819D01*
X365186Y24895D01*
X365130Y24973D01*
X365078Y25054D01*
X365028Y25136D01*
X364982Y25221D01*
X364940Y25307D01*
X364900Y25395D01*
X364865Y25484D01*
X364833Y25575D01*
X364804Y25667D01*
X364780Y25760D01*
X364759Y25853D01*
X364742Y25948D01*
X364728Y26043D01*
X364719Y26139D01*
X364713Y26235D01*
X364711Y26331D01*
X369157Y22480D02*
X369238Y22429D01*
X369318Y22375D01*
X369396Y22319D01*
X369471Y22259D01*
X369544Y22196D01*
X369614Y22130D01*
X369681Y22062D01*
X369746Y21991D01*
X369808Y21917D01*
X369867Y21841D01*
X369923Y21763D01*
X369975Y21682D01*
X370025Y21600D01*
X370071Y21515D01*
X370113Y21429D01*
X370153Y21341D01*
X370188Y21252D01*
X370220Y21161D01*
X370249Y21069D01*
X370273Y20976D01*
X370294Y20883D01*
X370311Y20788D01*
X370325Y20693D01*
X370334Y20597D01*
X370340Y20501D01*
X370342Y20405D01*
X369157Y22479D02*
X365897Y24257D01*
X377665Y28702D02*
X377665Y18034D01*
X374702Y28702D02*
X380629Y28702D01*
X386047Y28702D02*
X386047Y18034D01*
X384862Y18034D02*
X387233Y18034D01*
X387233Y28702D02*
X384862Y28702D01*
X394549Y18034D02*
X396920Y18034D01*
X394549Y18034D02*
X394454Y18036D01*
X394358Y18042D01*
X394263Y18051D01*
X394169Y18065D01*
X394075Y18082D01*
X393982Y18103D01*
X393889Y18128D01*
X393798Y18156D01*
X393708Y18188D01*
X393620Y18224D01*
X393533Y18263D01*
X393447Y18306D01*
X393364Y18352D01*
X393282Y18401D01*
X393202Y18454D01*
X393125Y18510D01*
X393049Y18568D01*
X392977Y18630D01*
X392907Y18695D01*
X392839Y18763D01*
X392774Y18833D01*
X392712Y18905D01*
X392654Y18981D01*
X392598Y19058D01*
X392545Y19138D01*
X392496Y19220D01*
X392450Y19303D01*
X392407Y19389D01*
X392368Y19476D01*
X392332Y19564D01*
X392300Y19654D01*
X392272Y19745D01*
X392247Y19838D01*
X392226Y19931D01*
X392209Y20025D01*
X392195Y20119D01*
X392186Y20214D01*
X392180Y20310D01*
X392178Y20405D01*
X392178Y26331D01*
X392180Y26426D01*
X392186Y26522D01*
X392195Y26617D01*
X392209Y26711D01*
X392226Y26805D01*
X392247Y26898D01*
X392272Y26991D01*
X392300Y27082D01*
X392332Y27172D01*
X392368Y27260D01*
X392407Y27347D01*
X392450Y27433D01*
X392496Y27516D01*
X392545Y27598D01*
X392598Y27678D01*
X392654Y27755D01*
X392712Y27831D01*
X392774Y27903D01*
X392839Y27973D01*
X392907Y28041D01*
X392977Y28106D01*
X393049Y28168D01*
X393125Y28226D01*
X393202Y28282D01*
X393282Y28335D01*
X393363Y28384D01*
X393447Y28430D01*
X393533Y28473D01*
X393620Y28512D01*
X393708Y28548D01*
X393798Y28580D01*
X393889Y28608D01*
X393982Y28633D01*
X394075Y28654D01*
X394169Y28671D01*
X394263Y28685D01*
X394358Y28694D01*
X394453Y28700D01*
X394549Y28702D01*
X396920Y28702D01*
X402388Y28702D02*
X402388Y18034D01*
X402388Y22183D02*
X408315Y28702D01*
X404759Y24553D02*
X408315Y18034D01*
X245014Y165100D02*
X232314Y165100D01*
D12*
X249459Y167021D02*
X249459Y168545D01*
X249461Y168622D01*
X249467Y168699D01*
X249477Y168776D01*
X249490Y168852D01*
X249508Y168927D01*
X249529Y169001D01*
X249554Y169074D01*
X249583Y169146D01*
X249615Y169216D01*
X249650Y169285D01*
X249690Y169351D01*
X249732Y169416D01*
X249778Y169478D01*
X249827Y169538D01*
X249878Y169595D01*
X249933Y169650D01*
X249990Y169701D01*
X250050Y169750D01*
X250112Y169796D01*
X250177Y169838D01*
X250243Y169878D01*
X250312Y169913D01*
X250382Y169945D01*
X250454Y169974D01*
X250527Y169999D01*
X250601Y170020D01*
X250676Y170038D01*
X250752Y170051D01*
X250829Y170061D01*
X250906Y170067D01*
X250983Y170069D01*
X254793Y170069D01*
X254870Y170067D01*
X254947Y170061D01*
X255024Y170051D01*
X255100Y170038D01*
X255175Y170020D01*
X255249Y169999D01*
X255322Y169974D01*
X255394Y169945D01*
X255464Y169913D01*
X255533Y169878D01*
X255599Y169838D01*
X255664Y169796D01*
X255726Y169750D01*
X255786Y169701D01*
X255843Y169650D01*
X255898Y169595D01*
X255949Y169538D01*
X255998Y169478D01*
X256044Y169416D01*
X256086Y169351D01*
X256126Y169285D01*
X256161Y169216D01*
X256193Y169146D01*
X256222Y169074D01*
X256247Y169001D01*
X256268Y168927D01*
X256286Y168852D01*
X256299Y168776D01*
X256309Y168699D01*
X256315Y168622D01*
X256317Y168545D01*
X256317Y167021D01*
X254793Y163941D02*
X256317Y162036D01*
X249459Y162036D01*
X249459Y163941D02*
X249459Y160131D01*
X226917Y178499D02*
X226788Y178560D01*
X226658Y178618D01*
X226526Y178672D01*
X226393Y178723D01*
X226259Y178770D01*
X226123Y178815D01*
X225987Y178855D01*
X225849Y178892D01*
X225711Y178926D01*
X225572Y178957D01*
X225432Y178983D01*
X225291Y179007D01*
X225150Y179026D01*
X225009Y179042D01*
X224867Y179055D01*
X224725Y179064D01*
X224582Y179069D01*
X224440Y179071D01*
X226916Y178499D02*
X226985Y178473D01*
X227051Y178444D01*
X227117Y178412D01*
X227180Y178377D01*
X227242Y178338D01*
X227302Y178296D01*
X227359Y178251D01*
X227414Y178203D01*
X227466Y178152D01*
X227516Y178099D01*
X227562Y178043D01*
X227606Y177985D01*
X227647Y177924D01*
X227685Y177862D01*
X227719Y177798D01*
X227750Y177732D01*
X227778Y177664D01*
X227802Y177595D01*
X227822Y177525D01*
X227839Y177454D01*
X227852Y177383D01*
X227861Y177311D01*
X227867Y177238D01*
X227869Y177165D01*
X227867Y177092D01*
X227861Y177019D01*
X227852Y176947D01*
X227839Y176876D01*
X227822Y176805D01*
X227802Y176735D01*
X227778Y176666D01*
X227750Y176598D01*
X227719Y176532D01*
X227685Y176468D01*
X227647Y176406D01*
X227606Y176345D01*
X227562Y176287D01*
X227516Y176231D01*
X227466Y176178D01*
X227414Y176127D01*
X227359Y176079D01*
X227302Y176034D01*
X227242Y175992D01*
X227180Y175953D01*
X227117Y175918D01*
X227051Y175886D01*
X226985Y175857D01*
X226916Y175831D01*
X226917Y175832D02*
X226788Y175771D01*
X226658Y175713D01*
X226526Y175659D01*
X226393Y175608D01*
X226259Y175561D01*
X226123Y175516D01*
X225987Y175476D01*
X225849Y175439D01*
X225711Y175405D01*
X225572Y175374D01*
X225432Y175348D01*
X225291Y175324D01*
X225150Y175305D01*
X225009Y175289D01*
X224867Y175276D01*
X224725Y175267D01*
X224582Y175262D01*
X224440Y175260D01*
X224440Y179071D02*
X224298Y179069D01*
X224155Y179064D01*
X224013Y179055D01*
X223871Y179042D01*
X223730Y179026D01*
X223589Y179007D01*
X223448Y178983D01*
X223308Y178957D01*
X223169Y178926D01*
X223031Y178892D01*
X222893Y178855D01*
X222757Y178815D01*
X222621Y178770D01*
X222487Y178723D01*
X222354Y178672D01*
X222222Y178618D01*
X222092Y178560D01*
X221963Y178499D01*
X221964Y178499D02*
X221895Y178473D01*
X221829Y178444D01*
X221763Y178412D01*
X221700Y178377D01*
X221638Y178338D01*
X221578Y178296D01*
X221521Y178251D01*
X221466Y178203D01*
X221414Y178152D01*
X221364Y178099D01*
X221318Y178043D01*
X221274Y177985D01*
X221233Y177924D01*
X221195Y177862D01*
X221161Y177798D01*
X221130Y177732D01*
X221102Y177664D01*
X221078Y177595D01*
X221058Y177525D01*
X221041Y177454D01*
X221028Y177383D01*
X221019Y177311D01*
X221013Y177238D01*
X221011Y177165D01*
X221963Y175832D02*
X222092Y175771D01*
X222222Y175713D01*
X222354Y175659D01*
X222487Y175608D01*
X222621Y175561D01*
X222757Y175516D01*
X222893Y175476D01*
X223031Y175439D01*
X223169Y175405D01*
X223308Y175374D01*
X223448Y175348D01*
X223589Y175324D01*
X223730Y175305D01*
X223871Y175289D01*
X224013Y175276D01*
X224155Y175267D01*
X224298Y175262D01*
X224440Y175260D01*
X221964Y175831D02*
X221895Y175857D01*
X221829Y175886D01*
X221763Y175918D01*
X221700Y175953D01*
X221638Y175992D01*
X221578Y176034D01*
X221521Y176079D01*
X221466Y176127D01*
X221414Y176178D01*
X221364Y176231D01*
X221318Y176287D01*
X221274Y176345D01*
X221233Y176406D01*
X221195Y176468D01*
X221161Y176532D01*
X221130Y176598D01*
X221102Y176666D01*
X221078Y176735D01*
X221058Y176805D01*
X221041Y176876D01*
X221028Y176947D01*
X221019Y177019D01*
X221013Y177092D01*
X221011Y177165D01*
X222535Y178689D02*
X226345Y175641D01*
X221392Y172235D02*
X221011Y172235D01*
X221392Y172235D02*
X221392Y171854D01*
X221011Y171854D01*
X221011Y172235D01*
X226345Y168829D02*
X227869Y166924D01*
X221011Y166924D01*
X221011Y168829D02*
X221011Y165019D01*
X218725Y160988D02*
X225583Y160988D01*
X225583Y157940D02*
X222535Y157940D01*
X222458Y157942D01*
X222381Y157948D01*
X222304Y157958D01*
X222228Y157971D01*
X222153Y157989D01*
X222079Y158010D01*
X222006Y158035D01*
X221934Y158064D01*
X221864Y158096D01*
X221795Y158131D01*
X221729Y158171D01*
X221664Y158213D01*
X221602Y158259D01*
X221542Y158308D01*
X221485Y158359D01*
X221430Y158414D01*
X221379Y158471D01*
X221330Y158531D01*
X221284Y158593D01*
X221242Y158658D01*
X221202Y158724D01*
X221167Y158793D01*
X221135Y158863D01*
X221106Y158935D01*
X221081Y159008D01*
X221060Y159082D01*
X221042Y159157D01*
X221029Y159233D01*
X221019Y159310D01*
X221013Y159387D01*
X221011Y159464D01*
X221013Y159541D01*
X221019Y159618D01*
X221029Y159695D01*
X221042Y159771D01*
X221060Y159846D01*
X221081Y159920D01*
X221106Y159993D01*
X221135Y160065D01*
X221167Y160135D01*
X221202Y160204D01*
X221242Y160270D01*
X221284Y160335D01*
X221330Y160397D01*
X221379Y160457D01*
X221430Y160514D01*
X221485Y160569D01*
X221542Y160620D01*
X221602Y160669D01*
X221664Y160715D01*
X221729Y160757D01*
X221795Y160797D01*
X221864Y160832D01*
X221934Y160864D01*
X222006Y160893D01*
X222079Y160918D01*
X222153Y160939D01*
X222228Y160957D01*
X222304Y160970D01*
X222381Y160980D01*
X222458Y160986D01*
X222535Y160988D01*
X222535Y157940D02*
X221773Y157940D01*
X221719Y157938D01*
X221665Y157932D01*
X221611Y157923D01*
X221558Y157909D01*
X221507Y157892D01*
X221456Y157871D01*
X221408Y157847D01*
X221361Y157819D01*
X221316Y157788D01*
X221274Y157754D01*
X221234Y157717D01*
X221197Y157677D01*
X221163Y157635D01*
X221132Y157590D01*
X221104Y157543D01*
X221080Y157495D01*
X221059Y157444D01*
X221042Y157393D01*
X221028Y157340D01*
X221019Y157286D01*
X221013Y157232D01*
X221011Y157178D01*
X221011Y154178D02*
X227869Y154178D01*
X227869Y151130D01*
X224821Y151130D02*
X224821Y154178D01*
D11*
X495300Y111760D02*
X495308Y112383D01*
X495331Y113006D01*
X495369Y113629D01*
X495422Y114250D01*
X495491Y114869D01*
X495575Y115487D01*
X495674Y116102D01*
X495788Y116715D01*
X495917Y117325D01*
X496061Y117932D01*
X496220Y118535D01*
X496394Y119133D01*
X496582Y119728D01*
X496785Y120317D01*
X497002Y120901D01*
X497233Y121480D01*
X497479Y122053D01*
X497739Y122620D01*
X498012Y123180D01*
X498299Y123733D01*
X498600Y124280D01*
X498914Y124818D01*
X499241Y125349D01*
X499581Y125871D01*
X499933Y126386D01*
X500299Y126891D01*
X500676Y127387D01*
X501066Y127874D01*
X501467Y128351D01*
X501880Y128818D01*
X502304Y129274D01*
X502739Y129721D01*
X503186Y130156D01*
X503642Y130580D01*
X504109Y130993D01*
X504586Y131394D01*
X505073Y131784D01*
X505569Y132161D01*
X506074Y132527D01*
X506589Y132879D01*
X507111Y133219D01*
X507642Y133546D01*
X508180Y133860D01*
X508727Y134161D01*
X509280Y134448D01*
X509840Y134721D01*
X510407Y134981D01*
X510980Y135227D01*
X511559Y135458D01*
X512143Y135675D01*
X512732Y135878D01*
X513327Y136066D01*
X513925Y136240D01*
X514528Y136399D01*
X515135Y136543D01*
X515745Y136672D01*
X516358Y136786D01*
X516973Y136885D01*
X517591Y136969D01*
X518210Y137038D01*
X518831Y137091D01*
X519454Y137129D01*
X520077Y137152D01*
X520700Y137160D01*
X521323Y137152D01*
X521946Y137129D01*
X522569Y137091D01*
X523190Y137038D01*
X523809Y136969D01*
X524427Y136885D01*
X525042Y136786D01*
X525655Y136672D01*
X526265Y136543D01*
X526872Y136399D01*
X527475Y136240D01*
X528073Y136066D01*
X528668Y135878D01*
X529257Y135675D01*
X529841Y135458D01*
X530420Y135227D01*
X530993Y134981D01*
X531560Y134721D01*
X532120Y134448D01*
X532673Y134161D01*
X533220Y133860D01*
X533758Y133546D01*
X534289Y133219D01*
X534811Y132879D01*
X535326Y132527D01*
X535831Y132161D01*
X536327Y131784D01*
X536814Y131394D01*
X537291Y130993D01*
X537758Y130580D01*
X538214Y130156D01*
X538661Y129721D01*
X539096Y129274D01*
X539520Y128818D01*
X539933Y128351D01*
X540334Y127874D01*
X540724Y127387D01*
X541101Y126891D01*
X541467Y126386D01*
X541819Y125871D01*
X542159Y125349D01*
X542486Y124818D01*
X542800Y124280D01*
X543101Y123733D01*
X543388Y123180D01*
X543661Y122620D01*
X543921Y122053D01*
X544167Y121480D01*
X544398Y120901D01*
X544615Y120317D01*
X544818Y119728D01*
X545006Y119133D01*
X545180Y118535D01*
X545339Y117932D01*
X545483Y117325D01*
X545612Y116715D01*
X545726Y116102D01*
X545825Y115487D01*
X545909Y114869D01*
X545978Y114250D01*
X546031Y113629D01*
X546069Y113006D01*
X546092Y112383D01*
X546100Y111760D01*
X546092Y111137D01*
X546069Y110514D01*
X546031Y109891D01*
X545978Y109270D01*
X545909Y108651D01*
X545825Y108033D01*
X545726Y107418D01*
X545612Y106805D01*
X545483Y106195D01*
X545339Y105588D01*
X545180Y104985D01*
X545006Y104387D01*
X544818Y103792D01*
X544615Y103203D01*
X544398Y102619D01*
X544167Y102040D01*
X543921Y101467D01*
X543661Y100900D01*
X543388Y100340D01*
X543101Y99787D01*
X542800Y99240D01*
X542486Y98702D01*
X542159Y98171D01*
X541819Y97649D01*
X541467Y97134D01*
X541101Y96629D01*
X540724Y96133D01*
X540334Y95646D01*
X539933Y95169D01*
X539520Y94702D01*
X539096Y94246D01*
X538661Y93799D01*
X538214Y93364D01*
X537758Y92940D01*
X537291Y92527D01*
X536814Y92126D01*
X536327Y91736D01*
X535831Y91359D01*
X535326Y90993D01*
X534811Y90641D01*
X534289Y90301D01*
X533758Y89974D01*
X533220Y89660D01*
X532673Y89359D01*
X532120Y89072D01*
X531560Y88799D01*
X530993Y88539D01*
X530420Y88293D01*
X529841Y88062D01*
X529257Y87845D01*
X528668Y87642D01*
X528073Y87454D01*
X527475Y87280D01*
X526872Y87121D01*
X526265Y86977D01*
X525655Y86848D01*
X525042Y86734D01*
X524427Y86635D01*
X523809Y86551D01*
X523190Y86482D01*
X522569Y86429D01*
X521946Y86391D01*
X521323Y86368D01*
X520700Y86360D01*
X520077Y86368D01*
X519454Y86391D01*
X518831Y86429D01*
X518210Y86482D01*
X517591Y86551D01*
X516973Y86635D01*
X516358Y86734D01*
X515745Y86848D01*
X515135Y86977D01*
X514528Y87121D01*
X513925Y87280D01*
X513327Y87454D01*
X512732Y87642D01*
X512143Y87845D01*
X511559Y88062D01*
X510980Y88293D01*
X510407Y88539D01*
X509840Y88799D01*
X509280Y89072D01*
X508727Y89359D01*
X508180Y89660D01*
X507642Y89974D01*
X507111Y90301D01*
X506589Y90641D01*
X506074Y90993D01*
X505569Y91359D01*
X505073Y91736D01*
X504586Y92126D01*
X504109Y92527D01*
X503642Y92940D01*
X503186Y93364D01*
X502739Y93799D01*
X502304Y94246D01*
X501880Y94702D01*
X501467Y95169D01*
X501066Y95646D01*
X500676Y96133D01*
X500299Y96629D01*
X499933Y97134D01*
X499581Y97649D01*
X499241Y98171D01*
X498914Y98702D01*
X498600Y99240D01*
X498299Y99787D01*
X498012Y100340D01*
X497739Y100900D01*
X497479Y101467D01*
X497233Y102040D01*
X497002Y102619D01*
X496785Y103203D01*
X496582Y103792D01*
X496394Y104387D01*
X496220Y104985D01*
X496061Y105588D01*
X495917Y106195D01*
X495788Y106805D01*
X495674Y107418D01*
X495575Y108033D01*
X495491Y108651D01*
X495422Y109270D01*
X495369Y109891D01*
X495331Y110514D01*
X495308Y111137D01*
X495300Y111760D01*
D13*
X497840Y129540D02*
X497840Y134620D01*
X500380Y132080D02*
X495300Y132080D01*
D12*
X517255Y140335D02*
X518779Y140335D01*
X517255Y140335D02*
X517178Y140337D01*
X517101Y140343D01*
X517024Y140353D01*
X516948Y140366D01*
X516873Y140384D01*
X516799Y140405D01*
X516726Y140430D01*
X516654Y140459D01*
X516584Y140491D01*
X516515Y140526D01*
X516449Y140566D01*
X516384Y140608D01*
X516322Y140654D01*
X516262Y140703D01*
X516205Y140754D01*
X516150Y140809D01*
X516099Y140866D01*
X516050Y140926D01*
X516004Y140988D01*
X515962Y141053D01*
X515922Y141119D01*
X515887Y141188D01*
X515855Y141258D01*
X515826Y141330D01*
X515801Y141403D01*
X515780Y141477D01*
X515762Y141552D01*
X515749Y141628D01*
X515739Y141705D01*
X515733Y141782D01*
X515731Y141859D01*
X515731Y145669D01*
X515733Y145746D01*
X515739Y145823D01*
X515749Y145900D01*
X515762Y145976D01*
X515780Y146051D01*
X515801Y146125D01*
X515826Y146198D01*
X515855Y146270D01*
X515887Y146340D01*
X515922Y146409D01*
X515962Y146475D01*
X516004Y146540D01*
X516050Y146602D01*
X516099Y146662D01*
X516150Y146719D01*
X516205Y146774D01*
X516262Y146825D01*
X516322Y146874D01*
X516384Y146920D01*
X516449Y146962D01*
X516515Y147002D01*
X516584Y147037D01*
X516654Y147069D01*
X516726Y147098D01*
X516799Y147123D01*
X516873Y147144D01*
X516948Y147162D01*
X517024Y147175D01*
X517101Y147185D01*
X517178Y147191D01*
X517255Y147193D01*
X518779Y147193D01*
X523954Y147194D02*
X524036Y147192D01*
X524117Y147186D01*
X524198Y147177D01*
X524279Y147163D01*
X524358Y147146D01*
X524437Y147125D01*
X524515Y147100D01*
X524591Y147071D01*
X524666Y147039D01*
X524740Y147003D01*
X524812Y146964D01*
X524881Y146922D01*
X524949Y146876D01*
X525014Y146827D01*
X525077Y146775D01*
X525137Y146720D01*
X525195Y146662D01*
X525250Y146602D01*
X525302Y146539D01*
X525351Y146474D01*
X525397Y146406D01*
X525439Y146337D01*
X525478Y146265D01*
X525514Y146191D01*
X525546Y146116D01*
X525575Y146040D01*
X525600Y145962D01*
X525621Y145883D01*
X525638Y145804D01*
X525652Y145723D01*
X525661Y145642D01*
X525667Y145561D01*
X525669Y145479D01*
X523954Y147193D02*
X523862Y147191D01*
X523770Y147185D01*
X523678Y147176D01*
X523586Y147162D01*
X523496Y147145D01*
X523406Y147124D01*
X523317Y147099D01*
X523229Y147070D01*
X523142Y147038D01*
X523057Y147002D01*
X522974Y146963D01*
X522892Y146920D01*
X522812Y146874D01*
X522734Y146824D01*
X522658Y146772D01*
X522585Y146716D01*
X522514Y146657D01*
X522445Y146595D01*
X522379Y146530D01*
X522316Y146463D01*
X522256Y146393D01*
X522198Y146321D01*
X522144Y146246D01*
X522093Y146169D01*
X522045Y146090D01*
X522001Y146009D01*
X521960Y145926D01*
X521922Y145842D01*
X521888Y145756D01*
X521858Y145669D01*
X525097Y144145D02*
X525156Y144204D01*
X525212Y144265D01*
X525265Y144328D01*
X525316Y144394D01*
X525363Y144462D01*
X525407Y144532D01*
X525448Y144604D01*
X525486Y144678D01*
X525520Y144753D01*
X525551Y144830D01*
X525578Y144908D01*
X525602Y144988D01*
X525623Y145068D01*
X525639Y145149D01*
X525652Y145231D01*
X525662Y145313D01*
X525667Y145396D01*
X525669Y145479D01*
X525097Y144145D02*
X521859Y140335D01*
X525669Y140335D01*
X510098Y76327D02*
X508193Y76327D01*
X510098Y76327D02*
X510183Y76329D01*
X510269Y76335D01*
X510354Y76344D01*
X510438Y76358D01*
X510522Y76375D01*
X510605Y76396D01*
X510687Y76420D01*
X510767Y76448D01*
X510847Y76480D01*
X510925Y76516D01*
X511001Y76554D01*
X511075Y76597D01*
X511147Y76642D01*
X511218Y76691D01*
X511286Y76743D01*
X511351Y76797D01*
X511414Y76855D01*
X511475Y76916D01*
X511533Y76979D01*
X511587Y77044D01*
X511639Y77112D01*
X511688Y77183D01*
X511733Y77255D01*
X511776Y77329D01*
X511814Y77405D01*
X511850Y77483D01*
X511882Y77563D01*
X511910Y77643D01*
X511934Y77725D01*
X511955Y77808D01*
X511972Y77892D01*
X511986Y77976D01*
X511995Y78061D01*
X512001Y78147D01*
X512003Y78232D01*
X512001Y78317D01*
X511995Y78403D01*
X511986Y78488D01*
X511972Y78572D01*
X511955Y78656D01*
X511934Y78739D01*
X511910Y78821D01*
X511882Y78901D01*
X511850Y78981D01*
X511814Y79059D01*
X511776Y79135D01*
X511733Y79209D01*
X511688Y79281D01*
X511639Y79352D01*
X511587Y79420D01*
X511533Y79485D01*
X511475Y79548D01*
X511414Y79609D01*
X511351Y79667D01*
X511286Y79721D01*
X511218Y79773D01*
X511147Y79822D01*
X511075Y79867D01*
X511001Y79910D01*
X510925Y79948D01*
X510847Y79984D01*
X510767Y80016D01*
X510687Y80044D01*
X510605Y80068D01*
X510522Y80089D01*
X510438Y80106D01*
X510354Y80120D01*
X510269Y80129D01*
X510183Y80135D01*
X510098Y80137D01*
X510479Y83185D02*
X508193Y83185D01*
X510479Y83185D02*
X510556Y83183D01*
X510633Y83177D01*
X510710Y83167D01*
X510786Y83154D01*
X510861Y83136D01*
X510935Y83115D01*
X511008Y83090D01*
X511080Y83061D01*
X511150Y83029D01*
X511219Y82994D01*
X511285Y82954D01*
X511350Y82912D01*
X511412Y82866D01*
X511472Y82817D01*
X511529Y82766D01*
X511584Y82711D01*
X511635Y82654D01*
X511684Y82594D01*
X511730Y82532D01*
X511772Y82467D01*
X511812Y82401D01*
X511847Y82332D01*
X511879Y82262D01*
X511908Y82190D01*
X511933Y82117D01*
X511954Y82043D01*
X511972Y81968D01*
X511985Y81892D01*
X511995Y81815D01*
X512001Y81738D01*
X512003Y81661D01*
X512001Y81584D01*
X511995Y81507D01*
X511985Y81430D01*
X511972Y81354D01*
X511954Y81279D01*
X511933Y81205D01*
X511908Y81132D01*
X511879Y81060D01*
X511847Y80990D01*
X511812Y80921D01*
X511772Y80855D01*
X511730Y80790D01*
X511684Y80728D01*
X511635Y80668D01*
X511584Y80611D01*
X511529Y80556D01*
X511472Y80505D01*
X511412Y80456D01*
X511350Y80410D01*
X511285Y80368D01*
X511219Y80328D01*
X511150Y80293D01*
X511080Y80261D01*
X511008Y80232D01*
X510935Y80207D01*
X510861Y80186D01*
X510786Y80168D01*
X510710Y80155D01*
X510633Y80145D01*
X510556Y80139D01*
X510479Y80137D01*
X508955Y80137D01*
X515508Y76327D02*
X517413Y76327D01*
X517498Y76329D01*
X517584Y76335D01*
X517669Y76344D01*
X517753Y76358D01*
X517837Y76375D01*
X517920Y76396D01*
X518002Y76420D01*
X518082Y76448D01*
X518162Y76480D01*
X518240Y76516D01*
X518316Y76554D01*
X518390Y76597D01*
X518462Y76642D01*
X518533Y76691D01*
X518601Y76743D01*
X518666Y76797D01*
X518729Y76855D01*
X518790Y76916D01*
X518848Y76979D01*
X518902Y77044D01*
X518954Y77112D01*
X519003Y77183D01*
X519048Y77255D01*
X519091Y77329D01*
X519129Y77405D01*
X519165Y77483D01*
X519197Y77563D01*
X519225Y77643D01*
X519249Y77725D01*
X519270Y77808D01*
X519287Y77892D01*
X519301Y77976D01*
X519310Y78061D01*
X519316Y78147D01*
X519318Y78232D01*
X519316Y78317D01*
X519310Y78403D01*
X519301Y78488D01*
X519287Y78572D01*
X519270Y78656D01*
X519249Y78739D01*
X519225Y78821D01*
X519197Y78901D01*
X519165Y78981D01*
X519129Y79059D01*
X519091Y79135D01*
X519048Y79209D01*
X519003Y79281D01*
X518954Y79352D01*
X518902Y79420D01*
X518848Y79485D01*
X518790Y79548D01*
X518729Y79609D01*
X518666Y79667D01*
X518601Y79721D01*
X518533Y79773D01*
X518462Y79822D01*
X518390Y79867D01*
X518316Y79910D01*
X518240Y79948D01*
X518162Y79984D01*
X518082Y80016D01*
X518002Y80044D01*
X517920Y80068D01*
X517837Y80089D01*
X517753Y80106D01*
X517669Y80120D01*
X517584Y80129D01*
X517498Y80135D01*
X517413Y80137D01*
X517794Y83185D02*
X515508Y83185D01*
X517794Y83185D02*
X517871Y83183D01*
X517948Y83177D01*
X518025Y83167D01*
X518101Y83154D01*
X518176Y83136D01*
X518250Y83115D01*
X518323Y83090D01*
X518395Y83061D01*
X518465Y83029D01*
X518534Y82994D01*
X518600Y82954D01*
X518665Y82912D01*
X518727Y82866D01*
X518787Y82817D01*
X518844Y82766D01*
X518899Y82711D01*
X518950Y82654D01*
X518999Y82594D01*
X519045Y82532D01*
X519087Y82467D01*
X519127Y82401D01*
X519162Y82332D01*
X519194Y82262D01*
X519223Y82190D01*
X519248Y82117D01*
X519269Y82043D01*
X519287Y81968D01*
X519300Y81892D01*
X519310Y81815D01*
X519316Y81738D01*
X519318Y81661D01*
X519316Y81584D01*
X519310Y81507D01*
X519300Y81430D01*
X519287Y81354D01*
X519269Y81279D01*
X519248Y81205D01*
X519223Y81132D01*
X519194Y81060D01*
X519162Y80990D01*
X519127Y80921D01*
X519087Y80855D01*
X519045Y80790D01*
X518999Y80728D01*
X518950Y80668D01*
X518899Y80611D01*
X518844Y80556D01*
X518787Y80505D01*
X518727Y80456D01*
X518665Y80410D01*
X518600Y80368D01*
X518534Y80328D01*
X518465Y80293D01*
X518395Y80261D01*
X518323Y80232D01*
X518250Y80207D01*
X518176Y80186D01*
X518101Y80168D01*
X518025Y80155D01*
X517948Y80145D01*
X517871Y80139D01*
X517794Y80137D01*
X516270Y80137D01*
X523349Y80899D02*
X523349Y74041D01*
X526397Y77851D02*
X526397Y80899D01*
X526397Y77851D02*
X526395Y77774D01*
X526389Y77697D01*
X526379Y77620D01*
X526366Y77544D01*
X526348Y77469D01*
X526327Y77395D01*
X526302Y77322D01*
X526273Y77250D01*
X526241Y77180D01*
X526206Y77111D01*
X526166Y77045D01*
X526124Y76980D01*
X526078Y76918D01*
X526029Y76858D01*
X525978Y76801D01*
X525923Y76746D01*
X525866Y76695D01*
X525806Y76646D01*
X525744Y76600D01*
X525679Y76558D01*
X525613Y76518D01*
X525544Y76483D01*
X525474Y76451D01*
X525402Y76422D01*
X525329Y76397D01*
X525255Y76376D01*
X525180Y76358D01*
X525104Y76345D01*
X525027Y76335D01*
X524950Y76329D01*
X524873Y76327D01*
X524796Y76329D01*
X524719Y76335D01*
X524642Y76345D01*
X524566Y76358D01*
X524491Y76376D01*
X524417Y76397D01*
X524344Y76422D01*
X524272Y76451D01*
X524202Y76483D01*
X524133Y76518D01*
X524067Y76558D01*
X524002Y76600D01*
X523940Y76646D01*
X523880Y76695D01*
X523823Y76746D01*
X523768Y76801D01*
X523717Y76858D01*
X523668Y76918D01*
X523622Y76980D01*
X523580Y77045D01*
X523540Y77111D01*
X523505Y77180D01*
X523473Y77250D01*
X523444Y77322D01*
X523419Y77395D01*
X523398Y77469D01*
X523380Y77544D01*
X523367Y77620D01*
X523357Y77697D01*
X523351Y77774D01*
X523349Y77851D01*
X526397Y77851D02*
X526397Y77089D01*
X526399Y77035D01*
X526405Y76981D01*
X526414Y76927D01*
X526428Y76874D01*
X526445Y76823D01*
X526466Y76772D01*
X526490Y76724D01*
X526518Y76677D01*
X526549Y76632D01*
X526583Y76590D01*
X526620Y76550D01*
X526660Y76513D01*
X526702Y76479D01*
X526747Y76448D01*
X526794Y76420D01*
X526842Y76396D01*
X526893Y76375D01*
X526944Y76358D01*
X526997Y76344D01*
X527051Y76335D01*
X527105Y76329D01*
X527159Y76327D01*
X530159Y76327D02*
X530159Y83185D01*
X533207Y83185D01*
X533207Y80137D02*
X530159Y80137D01*
D10*
X469900Y95250D02*
X469900Y107950D01*
X469900Y95250D02*
X463550Y88900D01*
X450850Y88900D02*
X444500Y95250D01*
X469900Y133350D02*
X463550Y139700D01*
X469900Y133350D02*
X469900Y120650D01*
X463550Y114300D01*
X450850Y114300D02*
X444500Y120650D01*
X444500Y133350D01*
X450850Y139700D01*
X463550Y114300D02*
X469900Y107950D01*
X450850Y114300D02*
X444500Y107950D01*
X444500Y95250D01*
X469900Y171450D02*
X469900Y184150D01*
X469900Y171450D02*
X463550Y165100D01*
X450850Y165100D02*
X444500Y171450D01*
X463550Y165100D02*
X469900Y158750D01*
X469900Y146050D01*
X463550Y139700D01*
X450850Y139700D02*
X444500Y146050D01*
X444500Y158750D01*
X450850Y165100D01*
X450850Y190500D02*
X463550Y190500D01*
X469900Y184150D01*
X450850Y190500D02*
X444500Y184150D01*
X444500Y171450D01*
X450850Y88900D02*
X463550Y88900D01*
D11*
X475121Y186859D02*
X481838Y186859D01*
X475121Y186859D02*
X475035Y186861D01*
X474949Y186867D01*
X474863Y186876D01*
X474778Y186890D01*
X474694Y186907D01*
X474610Y186928D01*
X474528Y186953D01*
X474447Y186981D01*
X474367Y187013D01*
X474288Y187049D01*
X474212Y187088D01*
X474137Y187131D01*
X474064Y187176D01*
X473993Y187225D01*
X473925Y187278D01*
X473858Y187333D01*
X473795Y187391D01*
X473734Y187452D01*
X473676Y187515D01*
X473621Y187582D01*
X473568Y187650D01*
X473519Y187721D01*
X473474Y187794D01*
X473431Y187869D01*
X473392Y187945D01*
X473356Y188024D01*
X473324Y188104D01*
X473296Y188185D01*
X473271Y188267D01*
X473250Y188351D01*
X473233Y188435D01*
X473219Y188520D01*
X473210Y188606D01*
X473204Y188692D01*
X473202Y188778D01*
X473202Y189738D01*
X479919Y182262D02*
X481838Y179863D01*
X473202Y179863D01*
X473202Y182262D02*
X473202Y177464D01*
X473202Y131600D02*
X481838Y131600D01*
X477040Y128721D01*
X481838Y125843D01*
X473202Y125843D01*
X475601Y121062D02*
X479439Y121062D01*
X479536Y121060D01*
X479632Y121054D01*
X479728Y121045D01*
X479824Y121031D01*
X479919Y121014D01*
X480013Y120992D01*
X480106Y120967D01*
X480199Y120939D01*
X480290Y120906D01*
X480379Y120870D01*
X480467Y120830D01*
X480554Y120787D01*
X480639Y120741D01*
X480721Y120691D01*
X480802Y120637D01*
X480880Y120581D01*
X480956Y120521D01*
X481030Y120459D01*
X481101Y120393D01*
X481169Y120325D01*
X481235Y120254D01*
X481297Y120180D01*
X481357Y120104D01*
X481413Y120026D01*
X481467Y119945D01*
X481517Y119862D01*
X481563Y119778D01*
X481606Y119691D01*
X481646Y119603D01*
X481682Y119514D01*
X481715Y119423D01*
X481743Y119330D01*
X481768Y119237D01*
X481790Y119143D01*
X481807Y119048D01*
X481821Y118952D01*
X481830Y118856D01*
X481836Y118760D01*
X481838Y118663D01*
X481836Y118566D01*
X481830Y118470D01*
X481821Y118374D01*
X481807Y118278D01*
X481790Y118183D01*
X481768Y118089D01*
X481743Y117996D01*
X481715Y117903D01*
X481682Y117812D01*
X481646Y117723D01*
X481606Y117635D01*
X481563Y117548D01*
X481517Y117463D01*
X481467Y117381D01*
X481413Y117300D01*
X481357Y117222D01*
X481297Y117146D01*
X481235Y117072D01*
X481169Y117001D01*
X481101Y116933D01*
X481030Y116867D01*
X480956Y116805D01*
X480880Y116745D01*
X480802Y116689D01*
X480721Y116635D01*
X480639Y116585D01*
X480554Y116539D01*
X480467Y116496D01*
X480379Y116456D01*
X480290Y116420D01*
X480199Y116387D01*
X480106Y116359D01*
X480013Y116334D01*
X479919Y116312D01*
X479824Y116295D01*
X479728Y116281D01*
X479632Y116272D01*
X479536Y116266D01*
X479439Y116264D01*
X475601Y116264D01*
X475504Y116266D01*
X475408Y116272D01*
X475312Y116281D01*
X475216Y116295D01*
X475121Y116312D01*
X475027Y116334D01*
X474934Y116359D01*
X474841Y116387D01*
X474750Y116420D01*
X474661Y116456D01*
X474573Y116496D01*
X474486Y116539D01*
X474402Y116585D01*
X474319Y116635D01*
X474238Y116689D01*
X474160Y116745D01*
X474084Y116805D01*
X474010Y116867D01*
X473939Y116933D01*
X473871Y117001D01*
X473805Y117072D01*
X473743Y117146D01*
X473683Y117222D01*
X473627Y117300D01*
X473573Y117381D01*
X473523Y117464D01*
X473477Y117548D01*
X473434Y117635D01*
X473394Y117723D01*
X473358Y117812D01*
X473325Y117903D01*
X473297Y117996D01*
X473272Y118089D01*
X473250Y118183D01*
X473233Y118278D01*
X473219Y118374D01*
X473210Y118470D01*
X473204Y118566D01*
X473202Y118663D01*
X473204Y118760D01*
X473210Y118856D01*
X473219Y118952D01*
X473233Y119048D01*
X473250Y119143D01*
X473272Y119237D01*
X473297Y119330D01*
X473325Y119423D01*
X473358Y119514D01*
X473394Y119603D01*
X473434Y119691D01*
X473477Y119778D01*
X473523Y119863D01*
X473573Y119945D01*
X473627Y120026D01*
X473683Y120104D01*
X473743Y120180D01*
X473805Y120254D01*
X473871Y120325D01*
X473939Y120393D01*
X474010Y120459D01*
X474084Y120521D01*
X474160Y120581D01*
X474238Y120637D01*
X474319Y120691D01*
X474402Y120741D01*
X474486Y120787D01*
X474573Y120830D01*
X474661Y120870D01*
X474750Y120906D01*
X474841Y120939D01*
X474934Y120967D01*
X475027Y120992D01*
X475121Y121014D01*
X475216Y121031D01*
X475312Y121045D01*
X475408Y121054D01*
X475504Y121060D01*
X475601Y121062D01*
X473202Y110129D02*
X481838Y110129D01*
X481838Y112528D02*
X481838Y107730D01*
X479439Y103993D02*
X475601Y103993D01*
X479439Y103993D02*
X479536Y103991D01*
X479632Y103985D01*
X479728Y103976D01*
X479824Y103962D01*
X479919Y103945D01*
X480013Y103923D01*
X480106Y103898D01*
X480199Y103870D01*
X480290Y103837D01*
X480379Y103801D01*
X480467Y103761D01*
X480554Y103718D01*
X480639Y103672D01*
X480721Y103622D01*
X480802Y103568D01*
X480880Y103512D01*
X480956Y103452D01*
X481030Y103390D01*
X481101Y103324D01*
X481169Y103256D01*
X481235Y103185D01*
X481297Y103111D01*
X481357Y103035D01*
X481413Y102957D01*
X481467Y102876D01*
X481517Y102793D01*
X481563Y102709D01*
X481606Y102622D01*
X481646Y102534D01*
X481682Y102445D01*
X481715Y102354D01*
X481743Y102261D01*
X481768Y102168D01*
X481790Y102074D01*
X481807Y101979D01*
X481821Y101883D01*
X481830Y101787D01*
X481836Y101691D01*
X481838Y101594D01*
X481836Y101497D01*
X481830Y101401D01*
X481821Y101305D01*
X481807Y101209D01*
X481790Y101114D01*
X481768Y101020D01*
X481743Y100927D01*
X481715Y100834D01*
X481682Y100743D01*
X481646Y100654D01*
X481606Y100566D01*
X481563Y100479D01*
X481517Y100394D01*
X481467Y100312D01*
X481413Y100231D01*
X481357Y100153D01*
X481297Y100077D01*
X481235Y100003D01*
X481169Y99932D01*
X481101Y99864D01*
X481030Y99798D01*
X480956Y99736D01*
X480880Y99676D01*
X480802Y99620D01*
X480721Y99566D01*
X480639Y99516D01*
X480554Y99470D01*
X480467Y99427D01*
X480379Y99387D01*
X480290Y99351D01*
X480199Y99318D01*
X480106Y99290D01*
X480013Y99265D01*
X479919Y99243D01*
X479824Y99226D01*
X479728Y99212D01*
X479632Y99203D01*
X479536Y99197D01*
X479439Y99195D01*
X475601Y99195D01*
X475504Y99197D01*
X475408Y99203D01*
X475312Y99212D01*
X475216Y99226D01*
X475121Y99243D01*
X475027Y99265D01*
X474934Y99290D01*
X474841Y99318D01*
X474750Y99351D01*
X474661Y99387D01*
X474573Y99427D01*
X474486Y99470D01*
X474402Y99516D01*
X474319Y99566D01*
X474238Y99620D01*
X474160Y99676D01*
X474084Y99736D01*
X474010Y99798D01*
X473939Y99864D01*
X473871Y99932D01*
X473805Y100003D01*
X473743Y100077D01*
X473683Y100153D01*
X473627Y100231D01*
X473573Y100312D01*
X473523Y100395D01*
X473477Y100479D01*
X473434Y100566D01*
X473394Y100654D01*
X473358Y100743D01*
X473325Y100834D01*
X473297Y100927D01*
X473272Y101020D01*
X473250Y101114D01*
X473233Y101209D01*
X473219Y101305D01*
X473210Y101401D01*
X473204Y101497D01*
X473202Y101594D01*
X473204Y101691D01*
X473210Y101787D01*
X473219Y101883D01*
X473233Y101979D01*
X473250Y102074D01*
X473272Y102168D01*
X473297Y102261D01*
X473325Y102354D01*
X473358Y102445D01*
X473394Y102534D01*
X473434Y102622D01*
X473477Y102709D01*
X473523Y102794D01*
X473573Y102876D01*
X473627Y102957D01*
X473683Y103035D01*
X473743Y103111D01*
X473805Y103185D01*
X473871Y103256D01*
X473939Y103324D01*
X474010Y103390D01*
X474084Y103452D01*
X474160Y103512D01*
X474238Y103568D01*
X474319Y103622D01*
X474402Y103672D01*
X474486Y103718D01*
X474573Y103761D01*
X474661Y103801D01*
X474750Y103837D01*
X474841Y103870D01*
X474934Y103898D01*
X475027Y103923D01*
X475121Y103945D01*
X475216Y103962D01*
X475312Y103976D01*
X475408Y103985D01*
X475504Y103991D01*
X475601Y103993D01*
X473202Y94460D02*
X481838Y94460D01*
X481838Y92061D01*
X481836Y91964D01*
X481830Y91868D01*
X481821Y91772D01*
X481807Y91676D01*
X481790Y91581D01*
X481768Y91487D01*
X481743Y91394D01*
X481715Y91301D01*
X481682Y91210D01*
X481646Y91121D01*
X481606Y91033D01*
X481563Y90946D01*
X481517Y90861D01*
X481467Y90779D01*
X481413Y90698D01*
X481357Y90620D01*
X481297Y90544D01*
X481235Y90470D01*
X481169Y90399D01*
X481101Y90331D01*
X481030Y90265D01*
X480956Y90203D01*
X480880Y90143D01*
X480802Y90087D01*
X480721Y90033D01*
X480639Y89983D01*
X480554Y89937D01*
X480467Y89894D01*
X480379Y89854D01*
X480290Y89818D01*
X480199Y89785D01*
X480106Y89757D01*
X480013Y89732D01*
X479919Y89710D01*
X479824Y89693D01*
X479728Y89679D01*
X479632Y89670D01*
X479536Y89664D01*
X479439Y89662D01*
X479342Y89664D01*
X479246Y89670D01*
X479150Y89679D01*
X479054Y89693D01*
X478959Y89710D01*
X478865Y89732D01*
X478772Y89757D01*
X478679Y89785D01*
X478588Y89818D01*
X478499Y89854D01*
X478411Y89894D01*
X478324Y89937D01*
X478240Y89983D01*
X478157Y90033D01*
X478076Y90087D01*
X477998Y90143D01*
X477922Y90203D01*
X477848Y90265D01*
X477777Y90331D01*
X477709Y90399D01*
X477643Y90470D01*
X477581Y90544D01*
X477521Y90620D01*
X477465Y90698D01*
X477411Y90779D01*
X477361Y90862D01*
X477315Y90946D01*
X477272Y91033D01*
X477232Y91121D01*
X477196Y91210D01*
X477163Y91301D01*
X477135Y91394D01*
X477110Y91487D01*
X477088Y91581D01*
X477071Y91676D01*
X477057Y91772D01*
X477048Y91868D01*
X477042Y91964D01*
X477040Y92061D01*
X477040Y94460D01*
X477040Y91581D02*
X473202Y89662D01*
X246284Y88900D02*
X246284Y38100D01*
X238664Y38100D01*
X231044Y38100D01*
X231044Y88900D01*
X238664Y88900D01*
X246284Y88900D01*
X238664Y38100D02*
X238664Y35560D01*
X238664Y88900D02*
X238664Y91440D01*
D12*
X249459Y69028D02*
X256317Y69028D01*
X256317Y67123D01*
X256315Y67038D01*
X256309Y66952D01*
X256300Y66867D01*
X256286Y66783D01*
X256269Y66699D01*
X256248Y66616D01*
X256224Y66534D01*
X256196Y66454D01*
X256164Y66374D01*
X256128Y66296D01*
X256090Y66220D01*
X256047Y66146D01*
X256002Y66074D01*
X255953Y66003D01*
X255901Y65935D01*
X255847Y65870D01*
X255789Y65807D01*
X255728Y65746D01*
X255665Y65688D01*
X255600Y65634D01*
X255532Y65582D01*
X255461Y65533D01*
X255389Y65488D01*
X255315Y65445D01*
X255239Y65407D01*
X255161Y65371D01*
X255081Y65339D01*
X255001Y65311D01*
X254919Y65287D01*
X254836Y65266D01*
X254752Y65249D01*
X254668Y65235D01*
X254583Y65226D01*
X254497Y65220D01*
X254412Y65218D01*
X254327Y65220D01*
X254241Y65226D01*
X254156Y65235D01*
X254072Y65249D01*
X253988Y65266D01*
X253905Y65287D01*
X253823Y65311D01*
X253743Y65339D01*
X253663Y65371D01*
X253585Y65407D01*
X253509Y65445D01*
X253435Y65488D01*
X253363Y65533D01*
X253292Y65582D01*
X253224Y65634D01*
X253159Y65688D01*
X253096Y65746D01*
X253035Y65807D01*
X252977Y65870D01*
X252923Y65935D01*
X252871Y66003D01*
X252822Y66074D01*
X252777Y66146D01*
X252734Y66220D01*
X252696Y66296D01*
X252660Y66374D01*
X252628Y66454D01*
X252600Y66534D01*
X252576Y66616D01*
X252555Y66699D01*
X252538Y66783D01*
X252524Y66867D01*
X252515Y66952D01*
X252509Y67038D01*
X252507Y67123D01*
X252507Y69028D01*
X252507Y66742D02*
X249459Y65218D01*
X254793Y61782D02*
X256317Y59877D01*
X249459Y59877D01*
X249459Y61782D02*
X249459Y57972D01*
X227869Y66909D02*
X226345Y68814D01*
X227869Y66909D02*
X221011Y66909D01*
X221011Y68814D02*
X221011Y65004D01*
X221011Y61234D02*
X227869Y61234D01*
X225583Y58186D02*
X223297Y61234D01*
X224250Y59900D02*
X221011Y58186D01*
D11*
X432400Y1900D02*
X507400Y1900D01*
X432400Y1900D02*
X432400Y36900D01*
X507400Y36900D02*
X507400Y1900D01*
X432400Y63400D02*
X432400Y69400D01*
X507400Y69400D02*
X507400Y63400D01*
X467879Y72531D02*
X467877Y72445D01*
X467871Y72359D01*
X467862Y72273D01*
X467848Y72188D01*
X467831Y72104D01*
X467810Y72020D01*
X467785Y71938D01*
X467757Y71857D01*
X467725Y71777D01*
X467689Y71698D01*
X467650Y71622D01*
X467607Y71547D01*
X467562Y71474D01*
X467513Y71403D01*
X467460Y71335D01*
X467405Y71268D01*
X467347Y71205D01*
X467286Y71144D01*
X467223Y71086D01*
X467156Y71031D01*
X467088Y70979D01*
X467017Y70929D01*
X466944Y70884D01*
X466869Y70841D01*
X466793Y70802D01*
X466714Y70766D01*
X466634Y70734D01*
X466553Y70706D01*
X466471Y70681D01*
X466387Y70660D01*
X466303Y70643D01*
X466218Y70629D01*
X466132Y70620D01*
X466046Y70614D01*
X465960Y70612D01*
X465837Y70614D01*
X465714Y70619D01*
X465591Y70629D01*
X465469Y70642D01*
X465347Y70659D01*
X465225Y70679D01*
X465105Y70703D01*
X464985Y70731D01*
X464866Y70762D01*
X464748Y70797D01*
X464631Y70836D01*
X464515Y70878D01*
X464401Y70924D01*
X464288Y70973D01*
X464177Y71025D01*
X464067Y71081D01*
X463959Y71140D01*
X463853Y71203D01*
X463748Y71268D01*
X463646Y71337D01*
X463546Y71409D01*
X463449Y71484D01*
X463353Y71561D01*
X463260Y71642D01*
X463169Y71725D01*
X463081Y71811D01*
X463322Y77329D02*
X463324Y77415D01*
X463330Y77501D01*
X463339Y77587D01*
X463353Y77672D01*
X463370Y77756D01*
X463391Y77840D01*
X463416Y77922D01*
X463444Y78003D01*
X463476Y78083D01*
X463512Y78162D01*
X463551Y78238D01*
X463594Y78313D01*
X463639Y78386D01*
X463688Y78457D01*
X463741Y78525D01*
X463796Y78592D01*
X463854Y78655D01*
X463915Y78716D01*
X463978Y78774D01*
X464045Y78829D01*
X464113Y78882D01*
X464184Y78931D01*
X464257Y78976D01*
X464332Y79019D01*
X464408Y79058D01*
X464487Y79094D01*
X464567Y79126D01*
X464648Y79154D01*
X464730Y79179D01*
X464814Y79200D01*
X464898Y79217D01*
X464983Y79231D01*
X465069Y79240D01*
X465155Y79246D01*
X465241Y79248D01*
X465357Y79246D01*
X465472Y79241D01*
X465588Y79231D01*
X465703Y79218D01*
X465817Y79202D01*
X465931Y79181D01*
X466045Y79157D01*
X466157Y79129D01*
X466268Y79098D01*
X466379Y79063D01*
X466488Y79025D01*
X466596Y78983D01*
X466702Y78938D01*
X466808Y78889D01*
X466911Y78837D01*
X467013Y78782D01*
X467112Y78723D01*
X467210Y78661D01*
X467306Y78596D01*
X467400Y78528D01*
X464281Y75650D02*
X464207Y75696D01*
X464134Y75746D01*
X464064Y75799D01*
X463996Y75855D01*
X463931Y75914D01*
X463868Y75976D01*
X463809Y76041D01*
X463752Y76108D01*
X463698Y76178D01*
X463648Y76250D01*
X463601Y76324D01*
X463557Y76400D01*
X463517Y76479D01*
X463481Y76559D01*
X463448Y76640D01*
X463419Y76723D01*
X463393Y76808D01*
X463371Y76893D01*
X463354Y76979D01*
X463340Y77066D01*
X463330Y77153D01*
X463324Y77241D01*
X463322Y77329D01*
X466920Y74210D02*
X466994Y74164D01*
X467067Y74114D01*
X467137Y74061D01*
X467205Y74005D01*
X467270Y73946D01*
X467333Y73884D01*
X467392Y73819D01*
X467449Y73752D01*
X467503Y73682D01*
X467553Y73610D01*
X467600Y73536D01*
X467644Y73460D01*
X467684Y73381D01*
X467720Y73301D01*
X467753Y73220D01*
X467782Y73137D01*
X467808Y73052D01*
X467830Y72967D01*
X467847Y72881D01*
X467861Y72794D01*
X467871Y72707D01*
X467877Y72619D01*
X467879Y72531D01*
X466920Y74210D02*
X464281Y75650D01*
X471921Y77329D02*
X474320Y79248D01*
X474320Y70612D01*
X476718Y70612D02*
X471921Y70612D01*
X462371Y56642D02*
X460452Y56642D01*
X460366Y56644D01*
X460280Y56650D01*
X460194Y56659D01*
X460109Y56673D01*
X460025Y56690D01*
X459941Y56711D01*
X459859Y56736D01*
X459778Y56764D01*
X459698Y56796D01*
X459619Y56832D01*
X459543Y56871D01*
X459468Y56914D01*
X459395Y56959D01*
X459324Y57008D01*
X459256Y57061D01*
X459189Y57116D01*
X459126Y57174D01*
X459065Y57235D01*
X459007Y57298D01*
X458952Y57365D01*
X458899Y57433D01*
X458850Y57504D01*
X458805Y57577D01*
X458762Y57652D01*
X458723Y57728D01*
X458687Y57807D01*
X458655Y57887D01*
X458627Y57968D01*
X458602Y58050D01*
X458581Y58134D01*
X458564Y58218D01*
X458550Y58303D01*
X458541Y58389D01*
X458535Y58475D01*
X458533Y58561D01*
X458533Y63359D01*
X458535Y63445D01*
X458541Y63531D01*
X458550Y63617D01*
X458564Y63702D01*
X458581Y63786D01*
X458602Y63870D01*
X458627Y63952D01*
X458655Y64033D01*
X458687Y64113D01*
X458723Y64192D01*
X458762Y64268D01*
X458805Y64343D01*
X458850Y64416D01*
X458899Y64487D01*
X458952Y64555D01*
X459007Y64622D01*
X459065Y64685D01*
X459126Y64746D01*
X459189Y64804D01*
X459256Y64859D01*
X459324Y64911D01*
X459395Y64961D01*
X459468Y65006D01*
X459543Y65049D01*
X459619Y65088D01*
X459698Y65124D01*
X459778Y65156D01*
X459859Y65184D01*
X459941Y65209D01*
X460025Y65230D01*
X460109Y65247D01*
X460194Y65261D01*
X460280Y65270D01*
X460366Y65276D01*
X460452Y65278D01*
X462371Y65278D01*
X468072Y56642D02*
X469991Y56642D01*
X468072Y56642D02*
X467986Y56644D01*
X467900Y56650D01*
X467814Y56659D01*
X467729Y56673D01*
X467645Y56690D01*
X467561Y56711D01*
X467479Y56736D01*
X467398Y56764D01*
X467318Y56796D01*
X467239Y56832D01*
X467163Y56871D01*
X467088Y56914D01*
X467015Y56959D01*
X466944Y57008D01*
X466876Y57061D01*
X466809Y57116D01*
X466746Y57174D01*
X466685Y57235D01*
X466627Y57298D01*
X466572Y57365D01*
X466519Y57433D01*
X466470Y57504D01*
X466425Y57577D01*
X466382Y57652D01*
X466343Y57728D01*
X466307Y57807D01*
X466275Y57887D01*
X466247Y57968D01*
X466222Y58050D01*
X466201Y58134D01*
X466184Y58218D01*
X466170Y58303D01*
X466161Y58389D01*
X466155Y58475D01*
X466153Y58561D01*
X466153Y63359D01*
X466155Y63445D01*
X466161Y63531D01*
X466170Y63617D01*
X466184Y63702D01*
X466201Y63786D01*
X466222Y63870D01*
X466247Y63952D01*
X466275Y64033D01*
X466307Y64113D01*
X466343Y64192D01*
X466382Y64268D01*
X466425Y64343D01*
X466470Y64416D01*
X466519Y64487D01*
X466572Y64555D01*
X466627Y64622D01*
X466685Y64685D01*
X466746Y64746D01*
X466809Y64804D01*
X466876Y64859D01*
X466944Y64911D01*
X467015Y64961D01*
X467088Y65006D01*
X467163Y65049D01*
X467239Y65088D01*
X467318Y65124D01*
X467398Y65156D01*
X467479Y65184D01*
X467561Y65209D01*
X467645Y65230D01*
X467729Y65247D01*
X467814Y65261D01*
X467900Y65270D01*
X467986Y65276D01*
X468072Y65278D01*
X469991Y65278D01*
X473591Y65278D02*
X475510Y56642D01*
X477429Y62399D01*
X479348Y56642D01*
X481267Y65278D01*
X534000Y1900D02*
X609000Y1900D01*
X534000Y1900D02*
X534000Y36900D01*
X609000Y36900D02*
X609000Y1900D01*
X534000Y63400D02*
X534000Y69400D01*
X609000Y69400D02*
X609000Y63400D01*
X569479Y72531D02*
X569477Y72445D01*
X569471Y72359D01*
X569462Y72273D01*
X569448Y72188D01*
X569431Y72104D01*
X569410Y72020D01*
X569385Y71938D01*
X569357Y71857D01*
X569325Y71777D01*
X569289Y71698D01*
X569250Y71622D01*
X569207Y71547D01*
X569162Y71474D01*
X569113Y71403D01*
X569060Y71335D01*
X569005Y71268D01*
X568947Y71205D01*
X568886Y71144D01*
X568823Y71086D01*
X568756Y71031D01*
X568688Y70979D01*
X568617Y70929D01*
X568544Y70884D01*
X568469Y70841D01*
X568393Y70802D01*
X568314Y70766D01*
X568234Y70734D01*
X568153Y70706D01*
X568071Y70681D01*
X567987Y70660D01*
X567903Y70643D01*
X567818Y70629D01*
X567732Y70620D01*
X567646Y70614D01*
X567560Y70612D01*
X567437Y70614D01*
X567314Y70619D01*
X567191Y70629D01*
X567069Y70642D01*
X566947Y70659D01*
X566825Y70679D01*
X566705Y70703D01*
X566585Y70731D01*
X566466Y70762D01*
X566348Y70797D01*
X566231Y70836D01*
X566115Y70878D01*
X566001Y70924D01*
X565888Y70973D01*
X565777Y71025D01*
X565667Y71081D01*
X565559Y71140D01*
X565453Y71203D01*
X565348Y71268D01*
X565246Y71337D01*
X565146Y71409D01*
X565049Y71484D01*
X564953Y71561D01*
X564860Y71642D01*
X564769Y71725D01*
X564681Y71811D01*
X564922Y77329D02*
X564924Y77415D01*
X564930Y77501D01*
X564939Y77587D01*
X564953Y77672D01*
X564970Y77756D01*
X564991Y77840D01*
X565016Y77922D01*
X565044Y78003D01*
X565076Y78083D01*
X565112Y78162D01*
X565151Y78238D01*
X565194Y78313D01*
X565239Y78386D01*
X565288Y78457D01*
X565341Y78525D01*
X565396Y78592D01*
X565454Y78655D01*
X565515Y78716D01*
X565578Y78774D01*
X565645Y78829D01*
X565713Y78882D01*
X565784Y78931D01*
X565857Y78976D01*
X565932Y79019D01*
X566008Y79058D01*
X566087Y79094D01*
X566167Y79126D01*
X566248Y79154D01*
X566330Y79179D01*
X566414Y79200D01*
X566498Y79217D01*
X566583Y79231D01*
X566669Y79240D01*
X566755Y79246D01*
X566841Y79248D01*
X566957Y79246D01*
X567072Y79241D01*
X567188Y79231D01*
X567303Y79218D01*
X567417Y79202D01*
X567531Y79181D01*
X567645Y79157D01*
X567757Y79129D01*
X567868Y79098D01*
X567979Y79063D01*
X568088Y79025D01*
X568196Y78983D01*
X568302Y78938D01*
X568408Y78889D01*
X568511Y78837D01*
X568613Y78782D01*
X568712Y78723D01*
X568810Y78661D01*
X568906Y78596D01*
X569000Y78528D01*
X565881Y75650D02*
X565807Y75696D01*
X565734Y75746D01*
X565664Y75799D01*
X565596Y75855D01*
X565531Y75914D01*
X565468Y75976D01*
X565409Y76041D01*
X565352Y76108D01*
X565298Y76178D01*
X565248Y76250D01*
X565201Y76324D01*
X565157Y76400D01*
X565117Y76479D01*
X565081Y76559D01*
X565048Y76640D01*
X565019Y76723D01*
X564993Y76808D01*
X564971Y76893D01*
X564954Y76979D01*
X564940Y77066D01*
X564930Y77153D01*
X564924Y77241D01*
X564922Y77329D01*
X568520Y74210D02*
X568594Y74164D01*
X568667Y74114D01*
X568737Y74061D01*
X568805Y74005D01*
X568870Y73946D01*
X568933Y73884D01*
X568992Y73819D01*
X569049Y73752D01*
X569103Y73682D01*
X569153Y73610D01*
X569200Y73536D01*
X569244Y73460D01*
X569284Y73381D01*
X569320Y73301D01*
X569353Y73220D01*
X569382Y73137D01*
X569408Y73052D01*
X569430Y72967D01*
X569447Y72881D01*
X569461Y72794D01*
X569471Y72707D01*
X569477Y72619D01*
X569479Y72531D01*
X568520Y74210D02*
X565881Y75650D01*
X576159Y79248D02*
X576251Y79246D01*
X576342Y79240D01*
X576433Y79231D01*
X576524Y79217D01*
X576614Y79200D01*
X576703Y79178D01*
X576791Y79153D01*
X576878Y79125D01*
X576964Y79092D01*
X577048Y79056D01*
X577131Y79017D01*
X577212Y78974D01*
X577291Y78927D01*
X577368Y78878D01*
X577443Y78825D01*
X577515Y78769D01*
X577585Y78710D01*
X577653Y78648D01*
X577718Y78583D01*
X577780Y78515D01*
X577839Y78445D01*
X577895Y78373D01*
X577948Y78298D01*
X577997Y78221D01*
X578044Y78142D01*
X578087Y78061D01*
X578126Y77978D01*
X578162Y77894D01*
X578195Y77808D01*
X578223Y77721D01*
X578248Y77633D01*
X578270Y77544D01*
X578287Y77454D01*
X578301Y77363D01*
X578310Y77272D01*
X578316Y77181D01*
X578318Y77089D01*
X576159Y79248D02*
X576056Y79246D01*
X575954Y79240D01*
X575852Y79231D01*
X575750Y79218D01*
X575649Y79201D01*
X575548Y79180D01*
X575449Y79156D01*
X575350Y79127D01*
X575253Y79096D01*
X575156Y79060D01*
X575061Y79022D01*
X574968Y78979D01*
X574876Y78933D01*
X574786Y78884D01*
X574698Y78832D01*
X574611Y78776D01*
X574527Y78717D01*
X574446Y78656D01*
X574366Y78591D01*
X574289Y78523D01*
X574214Y78452D01*
X574143Y78379D01*
X574074Y78303D01*
X574007Y78225D01*
X573944Y78144D01*
X573884Y78061D01*
X573827Y77976D01*
X573773Y77889D01*
X573722Y77799D01*
X573675Y77708D01*
X573631Y77616D01*
X573590Y77521D01*
X573553Y77426D01*
X573520Y77329D01*
X577598Y75410D02*
X577665Y75476D01*
X577729Y75545D01*
X577790Y75616D01*
X577848Y75690D01*
X577903Y75766D01*
X577955Y75844D01*
X578004Y75924D01*
X578050Y76006D01*
X578092Y76090D01*
X578131Y76176D01*
X578166Y76263D01*
X578197Y76351D01*
X578225Y76441D01*
X578250Y76531D01*
X578271Y76623D01*
X578288Y76715D01*
X578301Y76808D01*
X578310Y76901D01*
X578316Y76995D01*
X578318Y77089D01*
X577599Y75410D02*
X573521Y70612D01*
X578318Y70612D01*
X567781Y56642D02*
X565862Y56642D01*
X565776Y56644D01*
X565690Y56650D01*
X565604Y56659D01*
X565519Y56673D01*
X565435Y56690D01*
X565351Y56711D01*
X565269Y56736D01*
X565188Y56764D01*
X565108Y56796D01*
X565029Y56832D01*
X564953Y56871D01*
X564878Y56914D01*
X564805Y56959D01*
X564734Y57008D01*
X564666Y57061D01*
X564599Y57116D01*
X564536Y57174D01*
X564475Y57235D01*
X564417Y57298D01*
X564362Y57365D01*
X564309Y57433D01*
X564260Y57504D01*
X564215Y57577D01*
X564172Y57652D01*
X564133Y57728D01*
X564097Y57807D01*
X564065Y57887D01*
X564037Y57968D01*
X564012Y58050D01*
X563991Y58134D01*
X563974Y58218D01*
X563960Y58303D01*
X563951Y58389D01*
X563945Y58475D01*
X563943Y58561D01*
X563943Y63359D01*
X563945Y63445D01*
X563951Y63531D01*
X563960Y63617D01*
X563974Y63702D01*
X563991Y63786D01*
X564012Y63870D01*
X564037Y63952D01*
X564065Y64033D01*
X564097Y64113D01*
X564133Y64192D01*
X564172Y64268D01*
X564215Y64343D01*
X564260Y64416D01*
X564309Y64487D01*
X564362Y64555D01*
X564417Y64622D01*
X564475Y64685D01*
X564536Y64746D01*
X564599Y64804D01*
X564666Y64859D01*
X564734Y64911D01*
X564805Y64961D01*
X564878Y65006D01*
X564953Y65049D01*
X565029Y65088D01*
X565108Y65124D01*
X565188Y65156D01*
X565269Y65184D01*
X565351Y65209D01*
X565435Y65230D01*
X565519Y65247D01*
X565604Y65261D01*
X565690Y65270D01*
X565776Y65276D01*
X565862Y65278D01*
X567781Y65278D01*
X571381Y65278D02*
X573300Y56642D01*
X575219Y62399D01*
X577138Y56642D01*
X579057Y65278D01*
X609600Y228600D02*
X495300Y228600D01*
X609600Y228600D02*
X609600Y152400D01*
X495300Y152400D01*
X495300Y228600D01*
D12*
X563880Y196185D02*
X568833Y196185D01*
X563880Y196185D02*
X563795Y196183D01*
X563709Y196177D01*
X563624Y196168D01*
X563540Y196154D01*
X563456Y196137D01*
X563373Y196116D01*
X563291Y196092D01*
X563211Y196064D01*
X563131Y196032D01*
X563053Y195996D01*
X562977Y195958D01*
X562903Y195915D01*
X562831Y195870D01*
X562760Y195821D01*
X562692Y195769D01*
X562627Y195715D01*
X562564Y195657D01*
X562503Y195596D01*
X562445Y195533D01*
X562391Y195468D01*
X562339Y195400D01*
X562290Y195329D01*
X562245Y195257D01*
X562202Y195183D01*
X562164Y195107D01*
X562128Y195029D01*
X562096Y194949D01*
X562068Y194869D01*
X562044Y194787D01*
X562023Y194704D01*
X562006Y194620D01*
X561992Y194536D01*
X561983Y194451D01*
X561977Y194365D01*
X561975Y194280D01*
X561977Y194195D01*
X561983Y194109D01*
X561992Y194024D01*
X562006Y193940D01*
X562023Y193856D01*
X562044Y193773D01*
X562068Y193691D01*
X562096Y193611D01*
X562128Y193531D01*
X562164Y193453D01*
X562202Y193377D01*
X562245Y193303D01*
X562290Y193231D01*
X562339Y193160D01*
X562391Y193092D01*
X562445Y193027D01*
X562503Y192964D01*
X562564Y192903D01*
X562627Y192845D01*
X562692Y192791D01*
X562760Y192739D01*
X562831Y192690D01*
X562903Y192645D01*
X562977Y192602D01*
X563053Y192564D01*
X563131Y192528D01*
X563211Y192496D01*
X563291Y192468D01*
X563373Y192444D01*
X563456Y192423D01*
X563540Y192406D01*
X563624Y192392D01*
X563709Y192383D01*
X563795Y192377D01*
X563880Y192375D01*
X568833Y192375D01*
X568834Y186530D02*
X568832Y186448D01*
X568826Y186367D01*
X568817Y186286D01*
X568803Y186205D01*
X568786Y186126D01*
X568765Y186047D01*
X568740Y185969D01*
X568711Y185893D01*
X568679Y185818D01*
X568643Y185744D01*
X568604Y185673D01*
X568562Y185603D01*
X568516Y185535D01*
X568467Y185470D01*
X568415Y185407D01*
X568360Y185347D01*
X568302Y185289D01*
X568242Y185234D01*
X568179Y185182D01*
X568114Y185133D01*
X568046Y185087D01*
X567977Y185045D01*
X567905Y185006D01*
X567831Y184970D01*
X567756Y184938D01*
X567680Y184909D01*
X567602Y184884D01*
X567523Y184863D01*
X567444Y184846D01*
X567363Y184832D01*
X567282Y184823D01*
X567201Y184817D01*
X567119Y184815D01*
X568833Y186530D02*
X568831Y186622D01*
X568825Y186714D01*
X568816Y186806D01*
X568802Y186898D01*
X568785Y186988D01*
X568764Y187078D01*
X568739Y187167D01*
X568710Y187255D01*
X568678Y187342D01*
X568642Y187427D01*
X568603Y187510D01*
X568560Y187592D01*
X568514Y187672D01*
X568464Y187750D01*
X568412Y187826D01*
X568356Y187899D01*
X568297Y187970D01*
X568235Y188039D01*
X568170Y188105D01*
X568103Y188168D01*
X568033Y188228D01*
X567961Y188286D01*
X567886Y188340D01*
X567809Y188391D01*
X567730Y188439D01*
X567649Y188483D01*
X567566Y188524D01*
X567482Y188562D01*
X567396Y188596D01*
X567309Y188626D01*
X565785Y185387D02*
X565844Y185328D01*
X565905Y185272D01*
X565968Y185219D01*
X566034Y185168D01*
X566102Y185121D01*
X566172Y185077D01*
X566244Y185036D01*
X566318Y184998D01*
X566393Y184964D01*
X566470Y184933D01*
X566548Y184906D01*
X566628Y184882D01*
X566708Y184861D01*
X566789Y184845D01*
X566871Y184832D01*
X566953Y184822D01*
X567036Y184817D01*
X567119Y184815D01*
X565785Y185387D02*
X561975Y188626D01*
X561975Y184816D01*
X555625Y223441D02*
X550672Y223441D01*
X550587Y223439D01*
X550501Y223433D01*
X550416Y223424D01*
X550332Y223410D01*
X550248Y223393D01*
X550165Y223372D01*
X550083Y223348D01*
X550003Y223320D01*
X549923Y223288D01*
X549845Y223252D01*
X549769Y223214D01*
X549695Y223171D01*
X549623Y223126D01*
X549552Y223077D01*
X549484Y223025D01*
X549419Y222971D01*
X549356Y222913D01*
X549295Y222852D01*
X549237Y222789D01*
X549183Y222724D01*
X549131Y222656D01*
X549082Y222585D01*
X549037Y222513D01*
X548994Y222439D01*
X548956Y222363D01*
X548920Y222285D01*
X548888Y222205D01*
X548860Y222125D01*
X548836Y222043D01*
X548815Y221960D01*
X548798Y221876D01*
X548784Y221792D01*
X548775Y221707D01*
X548769Y221621D01*
X548767Y221536D01*
X548769Y221451D01*
X548775Y221365D01*
X548784Y221280D01*
X548798Y221196D01*
X548815Y221112D01*
X548836Y221029D01*
X548860Y220947D01*
X548888Y220867D01*
X548920Y220787D01*
X548956Y220709D01*
X548994Y220633D01*
X549037Y220559D01*
X549082Y220487D01*
X549131Y220416D01*
X549183Y220348D01*
X549237Y220283D01*
X549295Y220220D01*
X549356Y220159D01*
X549419Y220101D01*
X549484Y220047D01*
X549552Y219995D01*
X549623Y219946D01*
X549695Y219901D01*
X549769Y219858D01*
X549845Y219820D01*
X549923Y219784D01*
X550003Y219752D01*
X550083Y219724D01*
X550165Y219700D01*
X550248Y219679D01*
X550332Y219662D01*
X550416Y219648D01*
X550501Y219639D01*
X550587Y219633D01*
X550672Y219631D01*
X555625Y219631D01*
X548767Y215882D02*
X548767Y213977D01*
X548769Y213892D01*
X548775Y213806D01*
X548784Y213721D01*
X548798Y213637D01*
X548815Y213553D01*
X548836Y213470D01*
X548860Y213388D01*
X548888Y213308D01*
X548920Y213228D01*
X548956Y213150D01*
X548994Y213074D01*
X549037Y213000D01*
X549082Y212928D01*
X549131Y212857D01*
X549183Y212789D01*
X549237Y212724D01*
X549295Y212661D01*
X549356Y212600D01*
X549419Y212542D01*
X549484Y212488D01*
X549552Y212436D01*
X549623Y212387D01*
X549695Y212342D01*
X549769Y212299D01*
X549845Y212261D01*
X549923Y212225D01*
X550003Y212193D01*
X550083Y212165D01*
X550165Y212141D01*
X550248Y212120D01*
X550332Y212103D01*
X550416Y212089D01*
X550501Y212080D01*
X550587Y212074D01*
X550672Y212072D01*
X550757Y212074D01*
X550843Y212080D01*
X550928Y212089D01*
X551012Y212103D01*
X551096Y212120D01*
X551179Y212141D01*
X551261Y212165D01*
X551341Y212193D01*
X551421Y212225D01*
X551499Y212261D01*
X551575Y212299D01*
X551649Y212342D01*
X551721Y212387D01*
X551792Y212436D01*
X551860Y212488D01*
X551925Y212542D01*
X551988Y212600D01*
X552049Y212661D01*
X552107Y212724D01*
X552161Y212789D01*
X552213Y212857D01*
X552262Y212928D01*
X552307Y213000D01*
X552350Y213074D01*
X552388Y213150D01*
X552424Y213228D01*
X552456Y213308D01*
X552484Y213388D01*
X552508Y213470D01*
X552529Y213553D01*
X552546Y213637D01*
X552560Y213721D01*
X552569Y213806D01*
X552575Y213892D01*
X552577Y213977D01*
X555625Y213596D02*
X555625Y215882D01*
X555625Y213596D02*
X555623Y213519D01*
X555617Y213442D01*
X555607Y213365D01*
X555594Y213289D01*
X555576Y213214D01*
X555555Y213140D01*
X555530Y213067D01*
X555501Y212995D01*
X555469Y212925D01*
X555434Y212856D01*
X555394Y212790D01*
X555352Y212725D01*
X555306Y212663D01*
X555257Y212603D01*
X555206Y212546D01*
X555151Y212491D01*
X555094Y212440D01*
X555034Y212391D01*
X554972Y212345D01*
X554907Y212303D01*
X554841Y212263D01*
X554772Y212228D01*
X554702Y212196D01*
X554630Y212167D01*
X554557Y212142D01*
X554483Y212121D01*
X554408Y212103D01*
X554332Y212090D01*
X554255Y212080D01*
X554178Y212074D01*
X554101Y212072D01*
X554024Y212074D01*
X553947Y212080D01*
X553870Y212090D01*
X553794Y212103D01*
X553719Y212121D01*
X553645Y212142D01*
X553572Y212167D01*
X553500Y212196D01*
X553430Y212228D01*
X553361Y212263D01*
X553295Y212303D01*
X553230Y212345D01*
X553168Y212391D01*
X553108Y212440D01*
X553051Y212491D01*
X552996Y212546D01*
X552945Y212603D01*
X552896Y212663D01*
X552850Y212725D01*
X552808Y212790D01*
X552768Y212856D01*
X552733Y212925D01*
X552701Y212995D01*
X552672Y213067D01*
X552647Y213140D01*
X552626Y213214D01*
X552608Y213289D01*
X552595Y213365D01*
X552585Y213442D01*
X552579Y213519D01*
X552577Y213596D01*
X552577Y215120D01*
X555625Y208948D02*
X548767Y206662D01*
X555625Y204376D01*
X554101Y201252D02*
X555625Y199347D01*
X548767Y199347D01*
X548767Y201252D02*
X548767Y197442D01*
X552577Y193937D02*
X552577Y191651D01*
X552575Y191574D01*
X552569Y191497D01*
X552559Y191420D01*
X552546Y191344D01*
X552528Y191269D01*
X552507Y191195D01*
X552482Y191122D01*
X552453Y191050D01*
X552421Y190980D01*
X552386Y190911D01*
X552346Y190845D01*
X552304Y190780D01*
X552258Y190718D01*
X552209Y190658D01*
X552158Y190601D01*
X552103Y190546D01*
X552046Y190495D01*
X551986Y190446D01*
X551924Y190400D01*
X551859Y190358D01*
X551793Y190318D01*
X551724Y190283D01*
X551654Y190251D01*
X551582Y190222D01*
X551509Y190197D01*
X551435Y190176D01*
X551360Y190158D01*
X551284Y190145D01*
X551207Y190135D01*
X551130Y190129D01*
X551053Y190127D01*
X550672Y190127D01*
X550587Y190129D01*
X550501Y190135D01*
X550416Y190144D01*
X550332Y190158D01*
X550248Y190175D01*
X550165Y190196D01*
X550083Y190220D01*
X550003Y190248D01*
X549923Y190280D01*
X549845Y190316D01*
X549769Y190354D01*
X549695Y190397D01*
X549623Y190442D01*
X549552Y190491D01*
X549484Y190543D01*
X549419Y190597D01*
X549356Y190655D01*
X549295Y190716D01*
X549237Y190779D01*
X549183Y190844D01*
X549131Y190912D01*
X549082Y190983D01*
X549037Y191055D01*
X548994Y191129D01*
X548956Y191205D01*
X548920Y191283D01*
X548888Y191363D01*
X548860Y191443D01*
X548836Y191525D01*
X548815Y191608D01*
X548798Y191692D01*
X548784Y191776D01*
X548775Y191861D01*
X548769Y191947D01*
X548767Y192032D01*
X548769Y192117D01*
X548775Y192203D01*
X548784Y192288D01*
X548798Y192372D01*
X548815Y192456D01*
X548836Y192539D01*
X548860Y192621D01*
X548888Y192701D01*
X548920Y192781D01*
X548956Y192859D01*
X548994Y192935D01*
X549037Y193009D01*
X549082Y193081D01*
X549131Y193152D01*
X549183Y193220D01*
X549237Y193285D01*
X549295Y193348D01*
X549356Y193409D01*
X549419Y193467D01*
X549484Y193521D01*
X549552Y193573D01*
X549623Y193622D01*
X549695Y193667D01*
X549769Y193710D01*
X549845Y193748D01*
X549923Y193784D01*
X550003Y193816D01*
X550083Y193844D01*
X550165Y193868D01*
X550248Y193889D01*
X550332Y193906D01*
X550416Y193920D01*
X550501Y193929D01*
X550587Y193935D01*
X550672Y193937D01*
X552577Y193937D01*
X552686Y193935D01*
X552794Y193929D01*
X552903Y193920D01*
X553011Y193906D01*
X553118Y193889D01*
X553225Y193867D01*
X553331Y193842D01*
X553436Y193814D01*
X553540Y193781D01*
X553642Y193745D01*
X553743Y193705D01*
X553843Y193662D01*
X553941Y193615D01*
X554038Y193564D01*
X554132Y193510D01*
X554225Y193453D01*
X554315Y193393D01*
X554404Y193329D01*
X554490Y193262D01*
X554573Y193193D01*
X554654Y193120D01*
X554732Y193044D01*
X554808Y192966D01*
X554881Y192885D01*
X554950Y192802D01*
X555017Y192716D01*
X555081Y192627D01*
X555141Y192537D01*
X555198Y192444D01*
X555252Y192350D01*
X555303Y192253D01*
X555350Y192155D01*
X555393Y192055D01*
X555433Y191954D01*
X555469Y191852D01*
X555502Y191748D01*
X555530Y191643D01*
X555555Y191537D01*
X555577Y191430D01*
X555594Y191323D01*
X555608Y191215D01*
X555617Y191106D01*
X555623Y190998D01*
X555625Y190889D01*
X555625Y186356D02*
X548767Y186356D01*
X555625Y186356D02*
X555625Y183308D01*
X552577Y183308D02*
X552577Y186356D01*
X552577Y180282D02*
X552577Y177996D01*
X552575Y177919D01*
X552569Y177842D01*
X552559Y177765D01*
X552546Y177689D01*
X552528Y177614D01*
X552507Y177540D01*
X552482Y177467D01*
X552453Y177395D01*
X552421Y177325D01*
X552386Y177256D01*
X552346Y177190D01*
X552304Y177125D01*
X552258Y177063D01*
X552209Y177003D01*
X552158Y176946D01*
X552103Y176891D01*
X552046Y176840D01*
X551986Y176791D01*
X551924Y176745D01*
X551859Y176703D01*
X551793Y176663D01*
X551724Y176628D01*
X551654Y176596D01*
X551582Y176567D01*
X551509Y176542D01*
X551435Y176521D01*
X551360Y176503D01*
X551284Y176490D01*
X551207Y176480D01*
X551130Y176474D01*
X551053Y176472D01*
X550672Y176472D01*
X550587Y176474D01*
X550501Y176480D01*
X550416Y176489D01*
X550332Y176503D01*
X550248Y176520D01*
X550165Y176541D01*
X550083Y176565D01*
X550003Y176593D01*
X549923Y176625D01*
X549845Y176661D01*
X549769Y176699D01*
X549695Y176742D01*
X549623Y176787D01*
X549552Y176836D01*
X549484Y176888D01*
X549419Y176942D01*
X549356Y177000D01*
X549295Y177061D01*
X549237Y177124D01*
X549183Y177189D01*
X549131Y177257D01*
X549082Y177328D01*
X549037Y177400D01*
X548994Y177474D01*
X548956Y177550D01*
X548920Y177628D01*
X548888Y177708D01*
X548860Y177788D01*
X548836Y177870D01*
X548815Y177953D01*
X548798Y178037D01*
X548784Y178121D01*
X548775Y178206D01*
X548769Y178292D01*
X548767Y178377D01*
X548769Y178462D01*
X548775Y178548D01*
X548784Y178633D01*
X548798Y178717D01*
X548815Y178801D01*
X548836Y178884D01*
X548860Y178966D01*
X548888Y179046D01*
X548920Y179126D01*
X548956Y179204D01*
X548994Y179280D01*
X549037Y179354D01*
X549082Y179426D01*
X549131Y179497D01*
X549183Y179565D01*
X549237Y179630D01*
X549295Y179693D01*
X549356Y179754D01*
X549419Y179812D01*
X549484Y179866D01*
X549552Y179918D01*
X549623Y179967D01*
X549695Y180012D01*
X549769Y180055D01*
X549845Y180093D01*
X549923Y180129D01*
X550003Y180161D01*
X550083Y180189D01*
X550165Y180213D01*
X550248Y180234D01*
X550332Y180251D01*
X550416Y180265D01*
X550501Y180274D01*
X550587Y180280D01*
X550672Y180282D01*
X552577Y180282D01*
X552686Y180280D01*
X552794Y180274D01*
X552903Y180265D01*
X553011Y180251D01*
X553118Y180234D01*
X553225Y180212D01*
X553331Y180187D01*
X553436Y180159D01*
X553540Y180126D01*
X553642Y180090D01*
X553743Y180050D01*
X553843Y180007D01*
X553941Y179960D01*
X554038Y179909D01*
X554132Y179855D01*
X554225Y179798D01*
X554315Y179738D01*
X554404Y179674D01*
X554490Y179607D01*
X554573Y179538D01*
X554654Y179465D01*
X554732Y179389D01*
X554808Y179311D01*
X554881Y179230D01*
X554950Y179147D01*
X555017Y179061D01*
X555081Y178972D01*
X555141Y178882D01*
X555198Y178789D01*
X555252Y178695D01*
X555303Y178598D01*
X555350Y178500D01*
X555393Y178400D01*
X555433Y178299D01*
X555469Y178197D01*
X555502Y178093D01*
X555530Y177988D01*
X555555Y177882D01*
X555577Y177775D01*
X555594Y177668D01*
X555608Y177560D01*
X555617Y177451D01*
X555623Y177343D01*
X555625Y177234D01*
X552577Y169065D02*
X552577Y166779D01*
X552575Y166702D01*
X552569Y166625D01*
X552559Y166548D01*
X552546Y166472D01*
X552528Y166397D01*
X552507Y166323D01*
X552482Y166250D01*
X552453Y166178D01*
X552421Y166108D01*
X552386Y166039D01*
X552346Y165973D01*
X552304Y165908D01*
X552258Y165846D01*
X552209Y165786D01*
X552158Y165729D01*
X552103Y165674D01*
X552046Y165623D01*
X551986Y165574D01*
X551924Y165528D01*
X551859Y165486D01*
X551793Y165446D01*
X551724Y165411D01*
X551654Y165379D01*
X551582Y165350D01*
X551509Y165325D01*
X551435Y165304D01*
X551360Y165286D01*
X551284Y165273D01*
X551207Y165263D01*
X551130Y165257D01*
X551053Y165255D01*
X550672Y165255D01*
X550587Y165257D01*
X550501Y165263D01*
X550416Y165272D01*
X550332Y165286D01*
X550248Y165303D01*
X550165Y165324D01*
X550083Y165348D01*
X550003Y165376D01*
X549923Y165408D01*
X549845Y165444D01*
X549769Y165482D01*
X549695Y165525D01*
X549623Y165570D01*
X549552Y165619D01*
X549484Y165671D01*
X549419Y165725D01*
X549356Y165783D01*
X549295Y165844D01*
X549237Y165907D01*
X549183Y165972D01*
X549131Y166040D01*
X549082Y166111D01*
X549037Y166183D01*
X548994Y166257D01*
X548956Y166333D01*
X548920Y166411D01*
X548888Y166491D01*
X548860Y166571D01*
X548836Y166653D01*
X548815Y166736D01*
X548798Y166820D01*
X548784Y166904D01*
X548775Y166989D01*
X548769Y167075D01*
X548767Y167160D01*
X548769Y167245D01*
X548775Y167331D01*
X548784Y167416D01*
X548798Y167500D01*
X548815Y167584D01*
X548836Y167667D01*
X548860Y167749D01*
X548888Y167829D01*
X548920Y167909D01*
X548956Y167987D01*
X548994Y168063D01*
X549037Y168137D01*
X549082Y168209D01*
X549131Y168280D01*
X549183Y168348D01*
X549237Y168413D01*
X549295Y168476D01*
X549356Y168537D01*
X549419Y168595D01*
X549484Y168649D01*
X549552Y168701D01*
X549623Y168750D01*
X549695Y168795D01*
X549769Y168838D01*
X549845Y168876D01*
X549923Y168912D01*
X550003Y168944D01*
X550083Y168972D01*
X550165Y168996D01*
X550248Y169017D01*
X550332Y169034D01*
X550416Y169048D01*
X550501Y169057D01*
X550587Y169063D01*
X550672Y169065D01*
X552577Y169065D01*
X552686Y169063D01*
X552794Y169057D01*
X552903Y169048D01*
X553011Y169034D01*
X553118Y169017D01*
X553225Y168995D01*
X553331Y168970D01*
X553436Y168942D01*
X553540Y168909D01*
X553642Y168873D01*
X553743Y168833D01*
X553843Y168790D01*
X553941Y168743D01*
X554038Y168692D01*
X554132Y168638D01*
X554225Y168581D01*
X554315Y168521D01*
X554404Y168457D01*
X554490Y168390D01*
X554573Y168321D01*
X554654Y168248D01*
X554732Y168172D01*
X554808Y168094D01*
X554881Y168013D01*
X554950Y167930D01*
X555017Y167844D01*
X555081Y167755D01*
X555141Y167665D01*
X555198Y167572D01*
X555252Y167478D01*
X555303Y167381D01*
X555350Y167283D01*
X555393Y167183D01*
X555433Y167082D01*
X555469Y166980D01*
X555502Y166876D01*
X555530Y166771D01*
X555555Y166665D01*
X555577Y166558D01*
X555594Y166451D01*
X555608Y166343D01*
X555617Y166234D01*
X555623Y166126D01*
X555625Y166017D01*
X555625Y162131D02*
X548767Y159845D01*
X555625Y157559D01*
M02*
