G04 EAGLE Gerber RS-274X export*
G75*
%MOMM*%
%FSLAX34Y34*%
%LPD*%
%INSoldermask Top*%
%IPPOS*%
%AMOC8*
5,1,8,0,0,1.08239X$1,22.5*%
G01*
G04 Define Apertures*
%ADD10C,2.260600*%
%ADD11C,2.082800*%
%ADD12R,2.082800X2.082800*%
%ADD13C,1.879600*%
%ADD14C,2.003200*%
%ADD15C,2.203200*%
%ADD16C,0.959600*%
D10*
X20828Y254000D03*
X20828Y25400D03*
X614172Y254000D03*
X614172Y101600D03*
D11*
X101600Y222758D03*
X127000Y222758D03*
X203200Y44958D03*
X203200Y95758D03*
X203200Y121158D03*
X203200Y146558D03*
X203200Y171958D03*
X203200Y197358D03*
X203200Y222758D03*
X177800Y222758D03*
X152400Y222758D03*
X76200Y222758D03*
X50800Y222758D03*
X50800Y197358D03*
X50800Y171958D03*
X50800Y146558D03*
X50800Y121158D03*
X50800Y95758D03*
X50800Y70358D03*
X203200Y70358D03*
X203200Y19558D03*
X50800Y19558D03*
X50800Y44958D03*
D12*
X272192Y222758D03*
D11*
X272192Y197358D03*
X272192Y171958D03*
X272192Y146558D03*
X272192Y121158D03*
X272192Y95758D03*
X272192Y70358D03*
X272192Y44958D03*
X399192Y44958D03*
X399192Y70358D03*
X399192Y95758D03*
X399192Y121158D03*
X399192Y146558D03*
X399192Y171958D03*
X399192Y197358D03*
X399192Y222758D03*
X297592Y222758D03*
D13*
X238664Y177800D03*
X238664Y152400D03*
X508000Y111760D03*
X533400Y111760D03*
D11*
X457200Y177800D03*
X457200Y152400D03*
X457200Y127000D03*
X457200Y101600D03*
D13*
X238664Y101600D03*
X238664Y25400D03*
D14*
X447400Y25400D03*
X492400Y25400D03*
D15*
X434900Y50400D03*
X504900Y50400D03*
D14*
X549000Y25400D03*
X594000Y25400D03*
D15*
X536500Y50400D03*
X606500Y50400D03*
D11*
X508000Y215900D03*
X508000Y190500D03*
X508000Y165100D03*
D16*
X96838Y139700D03*
X165100Y182563D03*
X257175Y252413D03*
X257175Y58738D03*
X227013Y88900D03*
X155575Y192088D03*
X220663Y76200D03*
M02*
